<svg fill="none" height="40" viewBox="0 0 40 40" width="40" xmlns="http://www.w3.org/2000/svg"><path d="m0 0h40v40h-40z" fill="#ff4338"/><path d="m3.74934 17.1469-2.942699 1.3976 2.762469 5.8166 2.9427-1.3976z" fill="#1aa2aa"/><path d="m6.70051 15.7434-2.9427 1.3975 2.76247 5.8167 2.94271-1.3976z" fill="#fff"/><path d="m9.63801 14.3458-2.9427 1.3976 2.76247 5.8166 2.94272-1.3975z" fill="#ff655c"/><path d="m15.5857 25.3632-5.4641-11.5052c-.12219-.2573-.42978-.3668-.68704-.2446s-.36676.4298-.24459.687l5.46413 11.5053c.1222.2572.4298.3667.687.2445.2573-.1221.3668-.4297.2446-.687z" fill="#fff"/><path d="m36.2253 17.147 2.9427 1.3975-2.7625 5.8166-2.9426-1.3975z" fill="#1aa2aa"/><path d="m33.2741 15.7433 2.9427 1.3975-2.7624 5.8166-2.9427-1.3975z" fill="#fff"/><path d="m30.3366 14.346 2.9427 1.3975-2.7624 5.8166-2.9427-1.3976z" fill="#ff655c"/><path d="m24.3908 25.3605 5.4616-11.4999c.1229-.2587.4322-.3688.6909-.2459.2587.1228.3688.4322.246.6909l-5.4616 11.4998c-.1229.2587-.4322.3688-.6909.246-.2587-.1229-.3688-.4322-.246-.6909z" fill="#fff"/><path d="m20.0016 1.66667c-.1116 0-.2008.08924-.2008.20079v3.94882c0 .11155.0892.20078.2008.20078.1115 0 .2008-.08923.2008-.20078v-3.94882c.0223-.11155-.067-.20079-.2008-.20079z" fill="#40c6cd"/><path clip-rule="evenodd" d="m13.4103 40h-5.89272c1.48825-1.7626 3.68152-4.6859 5.38852-8.3266.3793-.8255.7809-1.7625 1.1601-2.811.2454-.6916.4908-1.4279.7363-2.2087 2.0748-6.5591 3.7926-15.706 4.1272-22.64436h2.1195c.3346 6.93836 2.0525 16.08526 4.1273 22.64436.2454.7808.4908 1.5171.7362 2.2087.3793 1.0485.7585 1.9855 1.1601 2.811 1.7337 3.6407 3.9297 6.564 5.4159 8.3266h-5.8977c-1.4343-1.0261-3.8485-1.7006-6.5904-1.7006-2.7418 0-5.1561.6745-6.5903 1.7006z" fill="#73d4da" fill-rule="evenodd"/><path d="m20.4919 12.2193h-.9593l-.6693 9.7493h2.2979l-.3347-4.8747z" fill="#ff4338"/><path d="m21.2274 26.6536h-2.4318l-1.3386 7.2953h5.109z" fill="#ff4338"/><path d="m29.5 33.3697h-19c-.82843 0-1.5.6716-1.5 1.5s.67157 1.5 1.5 1.5h19c.8284 0 1.5-.6716 1.5-1.5s-.6716-1.5-1.5-1.5z" fill="#1aa2aa"/><g fill="#40c6cd"><path clip-rule="evenodd" d="m9.0498 34.4858c.16959-.6424.7547-1.1161 1.4504-1.1161h19c.6958 0 1.2809.4737 1.4505 1.1161z" fill-rule="evenodd"/><path d="m24.9089 25.4265h-9.8163c-.3346 0-.6024.2678-.6024.6024s.2678.6024.6024.6024h9.8163c.3346 0 .6023-.2678.6023-.6024 0-.3123-.2677-.6024-.6023-.6024z"/><path d="m23.6264 21.8123h-7.2284c-.7084 0-1.2828.5743-1.2828 1.2828 0 .7084.5744 1.2828 1.2828 1.2828h7.2284c.7085 0 1.2828-.5744 1.2828-1.2828 0-.7085-.5743-1.2828-1.2828-1.2828z"/></g><path d="m24.9092 23.5525h-9.794v.8255h9.794z" fill="#1aa2aa"/><path clip-rule="evenodd" d="m18.7294 22.6602c0-.2901-.2231-.5132-.5132-.5132-.29 0-.5131.2231-.5131.5132 0 .29.2231.5131.5131.5131.2901 0 .5132-.2231.5132-.5131zm-1.7852 0c0-.29-.2231-.5131-.5131-.5131s-.5131.2231-.5131.5131c0 .2901.2231.5132.5131.5132s.5131-.2231.5131-.5132zm3.0572-.5132c.29 0 .5131.2231.5131.5132 0 .29-.2231.5131-.5131.5131s-.5131-.2231-.5131-.5131c0-.2901.2231-.5132.5131-.5132zm2.3198.5132c0-.2901-.2231-.5132-.5132-.5132-.29 0-.5131.2231-.5131.5132 0 .29.2231.5131.5131.5131.2678 0 .5132-.2231.5132-.5131zm1.272-.5132c.29 0 .5131.2231.5131.5132 0 .29-.2231.5131-.5131.5131s-.5131-.2231-.5131-.5131c0-.2901.2231-.5132.5131-.5132z" fill="#fff" fill-rule="evenodd"/><path d="m21.4727 8.2704h-2.9449c-.3573 0-.6469.28966-.6469.64698s.2896.64699.6469.64699h2.9449c.3573 0 .647-.28967.647-.64699s-.2897-.64698-.647-.64698z" fill="#40c6cd"/><path d="m21.8087 6.51056h-3.5919v.44619h3.5919z" fill="#40c6cd"/><path d="m20.0016 3.36223c-.9817 0-1.7848.80315-1.7848 1.78478v1.36089h3.5919v-1.36089c0-.98163-.8032-1.78478-1.8071-1.78478z" fill="#40c6cd"/><path clip-rule="evenodd" d="m20.2902 6.13112v-.55821c0-.15402-.1249-.27887-.2789-.27887s-.2789.12485-.2789.27887v.55821zm-1.1368.00004v-.55821c0-.15401-.1248-.27887-.2788-.27887s-.2789.12486-.2789.27887v.55821zm2.2969-.55825v.55821h-.5577v-.55821c0-.15402.1248-.27887.2789-.27887.154 0 .2788.12485.2788.27887z" fill="#fff" fill-rule="evenodd"/></svg>