<svg fill="none" height="40" viewBox="0 0 40 40" width="40" xmlns="http://www.w3.org/2000/svg" xmlns:xlink="http://www.w3.org/1999/xlink"><clipPath id="a"><path d="m0 0h40v40h-40z"/></clipPath><mask id="b" height="6" maskUnits="userSpaceOnUse" width="6" x="11" y="16"><path d="m12.2666 18.0872c.1893-1.0734 1.213-1.7902 2.2865-1.6009 1.0734.1893 1.7902 1.2129 1.6009 2.2864l-.4569 2.5916-3.8874-.6855z" fill="#fff"/></mask><mask id="c" height="8" maskUnits="userSpaceOnUse" width="6" x="11" y="15"><path d="m12.6621 15.4099h4.34313v6.43881h-4.34313z" fill="#000" transform="matrix(.98480775 .17364818 -.17364818 .98480775 2.868267 -1.96464)"/></mask><mask id="d" height="8" maskUnits="userSpaceOnUse" width="5" x="16" y="28"><path d="m16.8018 30.2438c.1893-1.0735 1.213-1.7903 2.2864-1.601 1.0735.1893 1.7903 1.213 1.601 2.2864l-.7426 4.2114-3.8874-.6855z" fill="#fff"/></mask><mask id="e" height="8" maskUnits="userSpaceOnUse" width="7" x="15" y="28"><path d="m16.9395 28.2271h4.34313v6.43881h-4.34313z" fill="#000" transform="matrix(.98480775 .17364818 -.17364818 .98480775 5.158934 -2.51268)"/></mask><mask id="f" height="6" maskUnits="userSpaceOnUse" width="5" x="23" y="8"><path d="m23.6983 10.0821c.1893-1.07348 1.2129-1.79026 2.2864-1.60098 1.0735.18929 1.7903 1.21295 1.601 2.28638l-.5141 2.9156-3.8874-.6855z" fill="#fff"/></mask><mask id="g" height="8" maskUnits="userSpaceOnUse" width="7" x="22" y="7"><path d="m23.8164 7.70143h4.34313v6.4388h-4.34313z" fill="#000" transform="matrix(.98480775 .17364818 -.17364818 .98480775 1.699164 -4.018672)"/></mask><g clip-path="url(#a)"><path d="m0 0h40v40h-40z" fill="#0de298"/><path d="m7.00977 36.5334h21.0526v11.1842h-21.0526z" fill="#ff4338" transform="matrix(.98480775 .17364818 -.17364818 .98480775 6.450452 -.662209)"/><path d="m9.35156 23.2514h21.0526v9.86841h-21.0526z" fill="#ff4338" transform="matrix(.98480775 .17364818 -.17364818 .98480775 4.179634 -1.27064)"/><path d="m11.1211 13.2092h21.0526v7.23683h-21.0526z" fill="#ff4338" transform="matrix(.98480775 .17364818 -.17364818 .98480775 2.462708 -1.730481)"/><path d="m15.7891 5.68146h14.4737v5.92105h-14.4737z" fill="#ff4338" transform="matrix(.98480775 .17364818 -.17364818 .98480775 1.226447 -2.655434)"/><rect fill="#ff655c" height="3.61842" rx="1.80921" transform="matrix(.98480775 .17364818 -.17364818 .98480775 5.752149 -.492961)" width="25" x="5.69336" y="32.6272"/><rect fill="#ff655c" height="2.96052" rx="1.48026" transform="matrix(.98480775 .17364818 -.17364818 .98480775 3.592151 -1.071877)" width="25" x="7.92188" y="19.9933"/><rect fill="#ff655c" height="2.30263" rx="1.15131" transform="matrix(.98480775 .17364818 -.17364818 .98480775 1.985975 -1.502203)" width="25" x="9.57812" y="10.5988"/><rect fill="#ff655c" height="2.30263" rx="1.15131" transform="matrix(.98480775 .17364818 -.17364818 .98480775 .779403 -2.537678)" width="17.1052" x="14.8926" y="3.18547"/><path d="m10.3233 29.1012c.1893-1.0735 1.2129-1.7903 2.2864-1.601 1.0735.1893 1.7903 1.213 1.601 2.2865l-.7426 4.2113-3.88738-.6855z" fill="#fff"/><path d="m12.2666 18.0872c.1893-1.0734 1.213-1.7902 2.2865-1.6009 1.0734.1893 1.7902 1.2129 1.6009 2.2864l-.4569 2.5916-3.8874-.6855z" fill="#fff"/><g mask="url(#b)"><g mask="url(#c)"><path d="m12.6445 15.4068h1.48595v6.43881h-1.48595z" fill="#0bc484" transform="matrix(.98480775 .17364818 -.17364818 .98480775 2.867461 -1.96163)"/><path d="m14.1074 15.6649h1.40774v6.4388h-1.40774z" fill="#fff" transform="matrix(.98480778 .17364801 -.17364801 .98480778 2.934501 -2.211737)"/><path d="m15.4941 15.9093h1.48594v6.4388h-1.48594z" fill="#c00b00" transform="matrix(.98480778 .17364801 -.17364801 .98480778 2.998008 -2.448822)"/></g></g><path d="m16.8018 30.2438c.1893-1.0735 1.213-1.7903 2.2864-1.601 1.0735.1893 1.7903 1.213 1.601 2.2864l-.7426 4.2114-3.8874-.6855z" fill="#fff"/><g mask="url(#d)"><g mask="url(#e)"><path d="m16.9219 28.2242h1.48595v6.43881h-1.48595z" fill="#0bc484" transform="matrix(.98480775 .17364818 -.17364818 .98480775 5.158163 -2.509668)"/><path d="m18.3848 28.4823h1.40774v6.4388h-1.40774z" fill="#fff" transform="matrix(.98480775 .17364818 -.17364818 .98480775 5.225206 -2.759777)"/><path d="m19.7715 28.7267h1.48595v6.4388h-1.48595z" fill="#c00b00" transform="matrix(.98480775 .17364818 -.17364818 .98480775 5.288713 -2.996862)"/></g></g><g fill="#fff"><path d="m18.7452 19.2296c.1892-1.0734 1.2129-1.7902 2.2864-1.6009 1.0735.1892 1.7902 1.2129 1.601 2.2864l-.457 2.5916-3.8874-.6855z"/><path d="m17.2198 8.93988c.1893-1.07347 1.2129-1.79025 2.2864-1.60097 1.0735.18928 1.7902 1.21295 1.601 2.28643l-.5141 2.91556-3.8874-.6855z"/><path d="m23.2823 31.3862c.1893-1.0735 1.2129-1.7903 2.2864-1.601 1.0735.1893 1.7902 1.213 1.601 2.2864l-.7426 4.2114-3.8874-.6855z"/><path d="m25.2237 20.3719c.1893-1.0735 1.2129-1.7903 2.2864-1.601 1.0735.1893 1.7903 1.2129 1.601 2.2864l-.457 2.5916-3.8874-.6854z"/><path d="m23.6983 10.0821c.1893-1.07348 1.2129-1.79026 2.2864-1.60098 1.0735.18929 1.7903 1.21295 1.601 2.28638l-.5141 2.9156-3.8874-.6855z"/></g><g mask="url(#f)"><g mask="url(#g)"><path d="m23.7988 7.69827h1.48594v6.4388h-1.48594z" fill="#0bc484" transform="matrix(.98480778 .17364801 -.17364801 .98480778 1.698346 -4.01566)"/><path d="m25.2617 7.95638h1.40774v6.4388h-1.40774z" fill="#fff" transform="matrix(.98480778 .17364801 -.17364801 .98480778 1.765391 -4.265769)"/><path d="m26.6484 8.20074h1.48594v6.4388h-1.48594z" fill="#c00b00" transform="matrix(.98480775 .17364818 -.17364818 .98480775 1.828893 -4.502858)"/></g></g></g></svg>