<svg fill="none" height="80" viewBox="0 0 141 80" width="141" xmlns="http://www.w3.org/2000/svg"><rect fill="#fff" height="80" rx="12" width="140.5" x=".5"/><path clip-rule="evenodd" d="m82.8418 33.2318c.9786-.0334 1.4316-.0125 1.9333.0896 3.2807.6671 5.7089 3.306 6.558 7.1284.2214.9968.3041 3.4742.1567 4.7154-.1252 1.0571-.482 2.4824-.8542 3.4072-1.4028 3.4893-4.4135 5.7658-8.4079 6.3576-.9198.1364-3.8088.154-5.048.0301-.8449-.0846-3.4272-.5064-4.3291-.7081l-.6243-.1398.0485-3.2741c.1176-7.8833.132-12.187.0562-16.3726-.0749-4.0994-.0962-4.5329-.2572-5.1397-.2035-.7692-.4973-1.3048-.8516-1.5526-.138-.0962-.5111-.2327-.8304-.303l-.1532-.0337c-.5522-.1213-.7474-.1642-.8219-.2829-.0408-.0649-.0454-.1525-.0526-.288l-.0037-.0674c-.0162-.2746.0136-.4553.0851-.5106.0954-.0745 8.7937-1.7049 9.0705-1.7007.0801.0017.0912 1.0939.0503 4.856-.029 2.6699-.0332 4.8544-.0085 4.8544.0238 0 .3423-.1356.706-.3005 1.0978-.4988 2.1088-.7147 3.578-.765zm-3.6444 20.087c.8116.0628.9453.0603 1.3942-.0234.6183-.1155 1.0995-.3574 1.6156-.8135 1.2938-1.1433 2.2664-3.5019 2.6488-6.4254.1559-1.1901.1354-3.9035-.0375-4.897-.4676-2.6875-1.4708-4.4534-2.9349-5.1649-.6072-.2946-.7009-.3155-1.4215-.3155-.5152 0-.959.0544-1.3354.1632l-.5638.1632-.0418 3.0591c-.0528 3.9186.0767 13.7286.1857 14.0098.069.18.1456.2176.4906.2444zm-30.3097-19.1349c2.5599 1.5345 4.1115 4.2612 4.5427 7.9868.1319 1.1375.0462 3.5401-.1607 4.5324-.8492 4.0589-3.3226 6.8947-6.9469 7.9634-.39.1158-.996.2501-1.3456.2997-.7403.1049-2.9985.1024-3.7141-.0034-1.9994-.2963-3.7472-1.1585-5.0828-2.505-1.113-1.1233-1.8353-2.359-2.3679-4.0514-.831-2.6427-.831-6.0401-.0008-8.629.8047-2.5093 2.6168-4.6928 4.8355-5.8269 3.0719-1.5707 7.3953-1.4716 10.2406.2334zm-5.8067.3047c-1.7594.0025-2.8757 1.8729-3.3168 5.5549-.2028 1.6924-.2036 5.7244-.0017 7.2036.625 4.5794 2.2384 6.7654 4.4917 6.0837.5845-.1762 1.3043-.8638 1.6885-1.6118.7931-1.5438 1.1468-3.8263 1.1559-7.4512.0107-4.5425-.6884-7.4337-2.165-8.9473-.62-.6355-1.0603-.8336-1.8526-.8319zm64.143-.8392c-2.337-1.1555-5.947-1.0724-8.5886.1982-2.5018 1.2033-4.2241 3.2121-5.1857 6.0463-.5004 1.4763-.6586 2.6637-.6076 4.5784.0315 1.2101.0877 1.8349.2145 2.3942.9862 4.3449 4.0054 7.2992 8.2274 8.0508.929.1654 3.039.1688 3.979.0067 1.341-.2317 2.888-.8204 3.863-1.4704 1.191-.7936 2.412-1.9869 2.412-2.3572 0-.2259-.41-.7457-.588-.7457-.077 0-.408.1704-.734.3787-1.165.7432-2.278 1.048-3.827 1.048-2.136 0-3.489-.5248-4.85-1.8811-.603-.6004-.85-.9245-1.162-1.5191-.6855-1.3084-1.0557-2.8124-1.111-4.5129l-.0238-.734 6.2968-.0218 6.297-.0218.028-.4199c.016-.2309-.015-.8356-.068-1.3436-.393-3.7748-1.941-6.373-4.572-7.6738zm-3.268 7.5789c-.814.0277-2.198.0621-3.076.0764l-1.5953.0252.0017-.3393c.0009-.1864.0553-.6794.12-1.095.5318-3.3818 1.8096-5.4115 3.4096-5.4132 1.472-.0017 2.379 1.9987 2.568 5.6584l.053 1.0379zm19.805.4043c2.702 1.1399 3.991 2.1066 4.692 3.5205.455.9179.584 1.6509.538 3.0614-.034 1.0592-.067 1.2769-.306 1.9881-.778 2.3184-2.536 3.8449-5.252 4.5602-.92.2421-1.051.2548-2.88.2749-1.054.0118-2.067.0051-2.25-.0151-1.485-.1606-3.847-.6826-4.633-1.0239l-.384-.1664-.053-1.9208c-.029-1.0558-.062-2.468-.074-3.138l-.022-1.218.23-.1109c.127-.0614.383-.1186.569-.127l.337-.016.287.7146c1.123 2.7874 2.439 4.2904 4.159 4.7477.656.1748 1.885.1765 2.371.0034 1.361-.4842 2.107-1.5232 2.113-2.943.008-1.6812-.908-2.489-4.368-3.8525-2.144-.8448-2.891-1.2794-3.782-2.199-.961-.9919-1.422-2.1209-1.508-3.6936-.104-1.8998.485-3.502 1.791-4.8671 1.315-1.3744 3.021-2.1183 5.346-2.3327 2.047-.1883 5.19.2497 6.836.9532l.301.1287.053 1.7114c.03.9415.06 2.2033.068 2.8043l.014 1.0928-.403.1513c-.638.2387-.68.2085-1.035-.7398-.995-2.6588-2.15-3.9163-3.95-4.3005-1.097-.2337-2.013.0177-2.68.7364-.52.5598-.722 1.0583-.771 1.8939-.054.9053.107 1.3954.655 2.0006.677.7465 1.784 1.3904 3.991 2.3209zm-100.3297-14.1006h2.6613c3.0579 0 3.5585.063 4.6418.5841 1.5704.7559 2.7171 2.2528 3.7184 4.8508l.0055.0144c.2126.5517.3122.8104.4922.892.159.072.3806.0058.798-.1189l.0117-.0034.6012-.1793-.0549-3.8293c-.0305-2.1059-.0795-3.9786-.11-4.1612l-.055-.3319-11.6675-.0224c-6.4169-.0133-11.7927-.0016-11.9458.0249l-.2782.049.0245.6804.0245.6804.888.1045c1.1526.1353 1.841.4531 2.2494 1.0372.921 1.3176 1.0876 3.1107 1.0859 11.6365-.0017 9.0775-.1945 11.2821-1.0842 12.4272-.4592.5908-.8312.7841-1.8706.9733-.043.0078-.0847.0154-.125.0227-.737.1335-1.0164.1842-1.1221.3474-.0645.0997-.0642.2413-.0637.4696 0 .0206.0001.0419.0001.0639 0 .3825.0355.5899.1057.6173.1522.0606 15.0764.0648 15.2362.005.2047-.0772.192-1.1592-.0144-1.2637-.0812-.0415-.5852-.1394-1.1205-.2182-.5344-.0789-1.1247-.2083-1.3116-.288-.9767-.4173-1.5213-1.5723-1.7251-3.6608-.1463-1.4986-.2613-4.2592-.2613-6.3004v-1.8727l.909.0274c1.9358.0581 2.937.1576 3.3412.3327.8761.38 1.5848 1.4405 1.9527 2.9216l.1962.7882.6909.0241.6909.0241v-4.9852-4.9852l-.6901.0241-.69.0241-.2022.7874c-.3907 1.5259-1.0283 2.4627-1.9661 2.8892-.3814.1734-.6529.2207-1.5645.2747-.6063.0356-1.4554.0663-1.885.0688l-.7822.0042-.0008-2.4685c-.0009-2.4744.1353-7.7292.2207-8.5465zm43.144 5.7705c.8038-.3593 1.3393-.4669 2.3319-.4669 1.1771 0 2.3542.3752 2.3525.7503 0 .2518-2.074 5.6004-2.1885 5.643-.0555.0208-.4604-.1301-.8995-.336-.9156-.4293-1.775-.6386-2.6086-.6369-1.0387.0025-2.1996.376-2.6574.8553-.1956.2051-.1965.2176-.2452 3.2804-.0487 3.0337.0547 6.7334.2298 8.2214.1486 1.268.4937 1.8916 1.207 2.1825.2383.0967 1.7425.2976 2.2337.2985.0376 0 .0563.2909.0427.646l-.0248.6461-6.321.02c-3.4766.0109-6.3714-.0108-6.4321-.0492-.0777-.0483-.1033-.2409-.0854-.6452l.0257-.5761.2989-.0625c.1649-.0342.5177-.1025.785-.1509.8269-.1509 1.3027-.5894 1.57-1.4472.2178-.6994.3135-2.9361.3186-7.4269.006-5.4929-.111-6.7901-.6799-7.5254-.3092-.3984-.5313-.5118-1.2796-.6519-.369-.0692-.7576-.1434-.8636-.165-.1708-.035-.1922-.0892-.1922-.4977 0-.3977.0257-.4694.1922-.536.2554-.1026 8.7179-1.7532 8.9878-1.7532h.211l-.041 1.2296c-.023.6761-.0598 1.6606-.0811 2.1883l-.0393.9587.3066-.5393c.9815-1.7273 2.0825-2.7994 3.5458-3.4538z" fill="#33629a" fill-rule="evenodd"/></svg>