<svg fill="none" height="80" viewBox="0 0 141 80" width="141" xmlns="http://www.w3.org/2000/svg"><rect fill="#fff" height="80" rx="12" width="140.5"/><path d="m130.25 34.365-9.702 11.5773h9.702v2.9444h-13.502v-3.1046l9.721-11.4371h-9.061v-2.8843h12.842zm-19.803-2.9043v2.9043h-5.401v14.5217h-2.921v-14.5217h-5.4006v-2.9043zm-23.2442 11.5172c2.0604-1.0215 3.3406-3.1247 3.3606-5.4081 0-3.2048-2.6204-6.049-5.881-6.1091h-6.4211v17.426h2.9205v-5.2478h2.6605l6.041 6.1492 2.0403-2.023zm-2.7604-2.2233h-3.2806v-6.3896h3.2806c1.7803 0 3.2405 1.4222 3.2405 3.1848s-1.4402 3.2048-3.2405 3.2048zm-19.1832-9.2939h-3.5206l-6.6811 17.426h3.0605l1.2602-3.4051h8.2414l1.2602 3.4051h3.0605zm-4.7608 11.3169 3.0005-7.8718 3.0005 7.8718zm-11.1019-11.3169v11.0365c0 3.7456-3.0205 6.7901-6.7411 6.7901s-6.7411-3.0445-6.7411-6.7901v-11.0365h2.9205v11.0365c-.06 2.1632 1.6802 3.9058 3.8206 3.9058s3.8807-1.7426 3.8406-3.9058v-11.0365zm-22.7438 14.081c1.1402-1.5623 1.7603-3.4651 1.7603-5.408 0-5.0276-4.0807-9.1337-9.0815-9.1337-5.0208 0-9.0815 4.1061-9.0815 9.1337 0 5.0475 4.0807 9.1336 9.0815 9.1336 1.9603 0 3.8006-.641 5.2809-1.7025l2.2804 2.2834 2.0203-2.0231zm-2.0603-2.063-3.3606-3.3851-2.0203 2.043 3.3406 3.3651c-.9802.6009-2.0804.9013-3.2206.9013-3.4406 0-6.221-2.8042-6.221-6.2693 0-3.4452 2.8004-6.2694 6.221-6.2694 3.4406 0 6.2211 2.8042 6.2211 6.2694 0 1.1817-.3401 2.3435-.9602 3.345z" fill="#000"/></svg>