<svg fill="none" height="80" viewBox="0 0 141 80" width="141" xmlns="http://www.w3.org/2000/svg"><rect fill="#fff" height="80" rx="12" width="140.5"/><g clip-rule="evenodd" fill-rule="evenodd"><path d="m11.75 69.4126h118v-59.4126h-118z" fill="#e3120b"/><path d="m65.8574 21.9849.0704 2.9283-.6664.0356c-.0526-1.792-.4216-2.0367-3.0829-2.0367h-.5694v10.2588c0 1.417.352 1.7924 1.7155 1.8316l.0341.4898c-1.2908-.0175-2.2698-.0175-2.891-.0175-.6533 0-1.6679 0-2.9982.0175l.0341-.4898c1.367-.0392 1.7197-.4146 1.7197-1.832v-10.2588h-.6657c-2.7335 0-3.1029.2451-3.1381 2.0371l-.6626-.0356.0657-2.9283c2.4949.017 4.362.0403 5.6145.0403 1.172 0 2.9982-.0233 5.4203-.0403zm1.1055 13.0536c1.2374 0 1.4041-.2451 1.4227-2.0197v-8.557c-.0186-1.7781-.1857-2.0244-1.4227-2.0244l-.0371-.4533c1.6818-.0927 2.0671-.1513 3.5857-.4316v5.8175c.9775-1.0781 1.7731-1.5125 2.8639-1.5125 1.8072 0 2.8063 1.134 2.8063 3.2883v3.873c.0186 1.7746.1849 2.0197 1.4196 2.0197l.0317.4538c-1.0626-.0357-1.8753-.0753-2.411-.0753-.5206 0-1.2776.0396-2.2926.0753l.0387-.4538c.9763-.1492 1.0699-.3353 1.0881-2.0197v-2.8357c0-2.3803-.4042-3.171-1.6238-3.171-.6491 0-1.3492.4308-1.6443 1.094-.1111.2272-.1853.4699-.2596.7158-.017.0982-.017.1703-.017.2087v3.9882c0 1.6844.111 1.8705 1.0854 2.0197l.0398.4538c-1.0339-.0357-1.7948-.0753-2.3092-.0753-.5358 0-1.3496.0396-2.4017.0753zm13.6435-5.551c1.6969-.0388 2.2133-.0804 3.8974-.2669-.222-1.832-.8943-2.7023-2.0346-2.7023-1.1078 0-1.6806.9052-1.8628 2.9696zm5.8551 4.153c-1.1465 1.4562-2.2706 2.0628-3.7169 2.0628-2.5637 0-4.2993-1.9282-4.2993-4.7473 0-3.0376 1.7909-5.0993 4.3748-5.0993 1.3886 0 2.3877.527 3.0704 1.6444.4607.7954.5884 1.341.6058 2.703h-5.8373c.0773 2.8341 1.0896 4.4575 2.7772 4.4575.9941 0 1.8428-.4732 2.7495-1.5481zm-68.0497 19.315c1.4985-.0392 1.8868-.4573 1.8868-2.03v-9.8351c0-1.5707-.3883-1.9884-1.8868-2.0319l-.0596-.5068 3.1409.0404 4.9666-.0642 1.3074.0238.0812 3.0408-.8193.0633c-.1411-1.9036-.4889-2.1131-3.4031-2.1131h-.4526l-.2042.0182v5.6619c.3853 0 .6978.0222.8827.0222.3137.0233.6281.0362.9427.0388 1.6021 0 1.9715-.3524 1.9885-1.9096h.699c-.0619 1.2464-.0619 1.8918-.0619 2.519 0 .5044 0 1.2123.0205 2.1539h-.6576c-.0804-1.5018-.41-1.7968-1.9472-1.8154l-1.1089-.0238-.7783.0424v4.383c0 1.7825.1017 1.8649 1.8242 1.8649 2.2787 0 2.9564-.5242 3.1579-2.5209l.82.0447-.4715 3.4791-1.5766.0226-4.9817-.0412-3.3691.0186zm20.684-.94c-1.1669 1.2362-2.0953 1.7184-3.4448 1.7184-2.7011 0-4.4321-2.1575-4.4321-5.4085 0-3.3932 1.8281-5.5182 4.7794-5.5182.7775 0 1.5635.1465 2.7761.4831l.0348 2.4762-.9213.0633c-.3424-1.8486-.7021-2.2885-1.8896-2.2885-1.5341 0-2.3324 1.3664-2.3324 4.0675 0 3.1516.9585 4.9314 2.7014 4.9314.9009 0 1.6234-.3995 2.4237-1.2781zm4.6951-3.5678c.2035 2.9601 1.167 4.5711 2.7432 4.5711 1.4738 0 2.3568-1.5679 2.3568-4.1712 0-3.0978-1.2126-5.2445-2.889-5.2445-1.4935 0-2.2539 1.2864-2.2539 3.9047 0 .3148 0 .6279.0429.9403zm-2.5073.2329v-.318c0-3.5365 1.8613-5.555 5.0262-5.555 2.9358 0 5.0234 2.2291 5.0234 5.4719 0 3.2542-2.028 5.4548-5.0849 5.4548-2.9173 0-4.8614-2.0114-4.9647-5.0537zm12.4687 4.3192c1.3357 0 1.5387-.2732 1.5387-2.2398v-4.8265c0-1.91-.203-2.1828-1.5387-2.2041l-.041-.4803c1.7859-.1053 2.1986-.1687 3.7513-.5048l.1048 1.8557c1.167-1.3101 2.0675-1.7928 3.2821-1.7928 1.9893 0 3.113 1.3217 3.113 3.6533v4.2999c-.0186.1647-.0186.3338-.0186.5017 0 1.3402.347 1.7377 1.5975 1.7377l.0402.5013c-1.1874-.04-2.0887-.0831-2.6832-.0831-.5725 0-1.4328.0431-2.5243.0831l.0359-.5013c1.0556-.169 1.1767-.3761 1.1767-2.2398l.0224-1.2844v-1.8664c0-2.6358-.4719-3.4803-1.768-3.4803-.8007 0-1.4761.4197-1.8853 1.1791-.1637.3143-.3056.8136-.3056 1.0258v4.4266c.0201 1.8637.123 2.0708 1.2072 2.2394l.0631.5013c-1.1473-.04-2.0072-.0831-2.5804-.0831-.5965 0-1.4711.0431-2.6288.0831zm16.0943-4.5521c.2065 2.9601 1.1658 4.5711 2.7103 4.5711 1.4745 0 2.3557-1.5679 2.3557-4.1712 0-3.0978-1.2076-5.2445-2.8752-5.2445-1.4721 0-2.2299 1.2864-2.2299 3.9047 0 .3148 0 .6279.0387.9403zm-2.5394.2329v-.318c0-3.5365 1.8659-5.555 5.0273-5.555 2.9691 0 5.0548 2.2291 5.0548 5.4719 0 3.2542-2.0265 5.4548-5.1163 5.4548-2.8972 0-4.8621-2.0114-4.9658-5.0537zm12.3732 4.3192c1.375 0 1.5801-.2732 1.5801-2.2398v-4.8265c0-1.91-.2051-2.1828-1.5801-2.2041l-.0414-.4803c1.823-.1053 2.2369-.1687 3.781-.5048l.0917 1.8557c1.1523-1.2884 2.0551-1.7928 3.2627-1.7928 1.3925 0 2.2094.5876 2.7904 1.956 1.2513-1.4333 2.1708-1.956 3.4217-1.956 1.9325 0 3.0144 1.3415 3.0144 3.6533v4.2999c0 .1647-.0205.3338-.0205.5017 0 1.3402.3709 1.7377 1.5975 1.7377l.0445.5013c-1.1895-.04-2.0899-.0831-2.6667-.0831-.555 0-1.3979.0431-2.5223.0831l.0406-.5013c1.0838-.169 1.1871-.3761 1.2072-2.2398v-3.1508c0-2.595-.4456-3.4803-1.7194-3.4803-.7569 0-1.5364.4711-1.864 1.1791-.1029.2494-.2034.5028-.2649.7962-.0209.1037-.0426.1877-.0426.2296v4.4266c0 1.8637.123 2.0708 1.2072 2.2394l.0445.5013c-1.0857-.04-1.8837-.0831-2.4256-.0831-.5307 0-1.3314.0431-2.3967.0831l.0429-.5013c1.085-.169 1.1875-.3761 1.2049-2.2398v-3.1508c0-2.595-.4479-3.4803-1.7201-3.4803-.774 0-1.4722.4383-1.8617 1.1791-.1648.3337-.2967.8136-.2967 1.0258v4.4266c.0205 1.8637.1122 2.0708 1.1984 2.2394l.041.5013c-1.1272-.04-1.9542-.0831-2.5251-.0831-.5969 0-1.4753.0431-2.6643.0831zm21.0306-13.7497c-.001-.1824.034-.3631.102-.5318s.167-.322.293-.4512c.126-.1291.276-.2315.44-.3013.165-.0698.341-.1056.52-.1054.76 0 1.372.645 1.372 1.3897 0 .7927-.593 1.4234-1.372 1.4234-.778 0-1.355-.6085-1.355-1.4234zm2.624 3.4942v6.7313l.019 1.2844c0 1.9662.188 2.2391 1.577 2.2391l.043.502c-1.271-.04-2.192-.0828-2.826-.0828-.613 0-1.512.0428-2.751.0828l.0387-.502c1.3523 0 1.5453-.2729 1.5453-2.2391l.019-1.2844v-2.1998l-.019-1.3415c0-1.9108-.193-2.1836-1.5453-2.2045l-.0387-.4811c1.851-.1247 2.278-.1893 3.938-.5044zm4.105 10.3818-.08-2.1396 1.042-.0392c.472 1.6131.78 1.9258 1.867 1.9258.94 0 1.556-.5012 1.556-1.2543 0-.7154-.429-1.2349-1.722-2.1222-.654-.4609-1.103-.778-1.349-.9641-.534-.4185-.923-.9233-1.128-1.4864-.126-.3151-.186-.6905-.186-1.1312 0-1.8684 1.274-3.1077 3.196-3.1077.716 0 1.126.0626 2.751.4609l.044 2.081-1.041.0436c-.232-1.3692-.648-1.8514-1.609-1.8514-.922 0-1.578.5456-1.578 1.284 0 .7321.33 1.172 1.394 1.8633.96.6513 1.697 1.2353 2.197 1.6966.574.5646.903 1.2765.903 2.0688 0 1.8518-1.52 3.2799-3.469 3.2799-.757 0-1.474-.1722-2.788-.6078zm8.426-9.7095c1.615-.1267 2.226-.8367 2.69-3.0179h.92v2.829h2.582l-.288 1.1518h-2.294v5.1171c0 2.5419.329 3.1465 1.721 3.1465.327 0 .633-.0412 1.127-.1861v.6058c-.695.3987-1.658.628-2.639.628-.907 0-1.746-.5219-2.098-1.2987-.308-.6494-.408-1.2979-.408-2.6872v-5.3254h-1.313z" fill="#fff"/></g></svg>