<svg fill="none" height="80" viewBox="0 0 141 80" width="141" xmlns="http://www.w3.org/2000/svg"><rect fill="#fff" height="80" rx="12" width="140.5"/><path clip-rule="evenodd" d="m18.0844 59h2.85v-15.2h-2.85zm10.4499-.2375h2.4938v-9.6187l10.6875 9.8562v-14.9625h-2.4938v9.3812l-10.6875-9.6187zm19-3.6812c1.425 1.0687 3.0876 1.6624 4.8688 1.6624 1.7813 0 2.9688-.5937 2.9688-1.8999 0-1.1876-.8313-1.5438-2.1376-2.1375l-2.2562-.7126c-2.0187-.7125-3.5625-1.7812-3.5625-4.1562 0-2.6125 2.375-4.0375 5.1063-4.0375 1.6625 0 3.3249.475 4.5124 1.1875v2.6125c-1.3062-.95-2.6125-1.5437-4.3937-1.5437-1.5438 0-2.7313.5937-2.7313 1.7812 0 1.0688.7126 1.5438 2.0188 1.9l2.4937.8313c2.375.8312 3.4438 2.1375 3.4438 4.275 0 2.7312-2.375 4.1562-5.4625 4.1562-2.0187 0-3.8-.5937-4.8688-1.3062zm16.9813 3.9187h2.85v-15.2h-2.85zm16.15-2.2563c3.2062 0 4.8688-2.0187 4.8688-5.3437s-1.6626-5.3437-4.8688-5.3437h-3.2062v10.5687c.1187.1188 3.2062.1187 3.2062.1187zm-5.7-12.9437h5.8188c4.5125 0 7.3625 2.9687 7.3625 7.6 0 4.6312-2.9688 7.6-7.3625 7.6h-5.8188zm27.4314 0v2.2563h-6.8877v3.6812h6.1747v2.2562h-6.1747v4.75h6.8877v2.2563h-9.5001v-15.2zm10.094 6.8875h2.85c1.662 0 2.612-.95 2.612-2.375s-.95-2.375-2.612-2.375h-2.85zm0 2.1375v6.175h-2.494v-15.2h5.344c3.087 0 5.106 1.5438 5.106 4.5125 0 2.4937-1.069 4.0375-3.444 4.3938l5.344 6.2937h-2.85l-5.225-6.175zm-95.4754-23.9875c1.0688-.3562 2.0187-1.6625 2.0187-3.325 0-2.85-2.0187-4.275-5.1062-4.275h-5.34375v15.675h5.81875c3.2063 0 5.1063-1.5437 5.1063-4.5125 0-1.6625-.95-3.0875-2.4938-3.5625zm-5.9375-.95v-4.275h2.85c1.7813 0 2.7312.5938 2.7312 2.1375s-.9499 2.1375-2.7312 2.1375zm0 2.1375h3.325c1.7813 0 2.7313.8312 2.7313 2.2562 0 1.4251-.95 2.2563-2.6125 2.2563h-3.325zm20.0688 7.125c3.6812 0 6.0562-2.1375 6.0562-6.4125v-9.5h-2.6125v9.1437c0 2.9688-1.1875 4.3938-3.5625 4.3938s-3.5625-1.425-3.5625-4.3938v-9.1437h-2.6125v9.3813c.2375 4.3937 2.7313 6.5312 6.2938 6.5312zm12.1125-1.425c1.0687.7125 2.8499 1.425 4.8687 1.425 3.0875 0 5.4625-1.5438 5.4625-4.3938 0-2.2562-1.0687-3.6812-3.4437-4.5124l-2.4938-.95c-1.3062-.475-2.0187-.95-2.0187-2.0188 0-1.3062 1.1875-1.9 2.6125-1.9 1.7812 0 3.2062.7125 4.3937 1.6625v-2.7312c-1.1875-.8313-2.7313-1.3063-4.5125-1.3063-2.85 0-5.1062 1.5438-5.1062 4.275 0 2.6125 1.5437 3.6812 3.5625 4.5125l2.2562.8313c1.3063.475 2.1375 1.0687 2.1375 2.2562 0 1.425-1.1875 2.0188-2.9687 2.0188-1.7813 0-3.4438-.7125-4.8688-1.7813.1187-.1187.1188 2.6125.1188 2.6125zm19.4749-14.4875h-2.4937v15.675h2.6125v-15.675zm7.3626 15.675h2.4937v-10.2125l10.45 10.45v-15.9125h-2.4938v9.975l-10.4499-10.2125zm28.9749-15.675v2.375h-6.65v3.8h5.9375v2.2562h-5.9375v4.8688h6.65v2.375h-9.1437v-15.675zm6.0562 14.4875c1.069.7125 2.85 1.425 4.869 1.425 3.087 0 5.462-1.5438 5.462-4.3938 0-2.2562-1.068-3.6812-3.443-4.5124l-2.494-.95c-1.306-.475-2.019-.95-2.019-2.0188 0-1.3062 1.188-1.9 2.613-1.9 1.781 0 3.206.7125 4.393 1.6625v-2.7312c-1.187-.8313-2.731-1.3063-4.512-1.3063-2.85 0-5.106 1.5438-5.106 4.275 0 2.6125 1.543 3.6812 3.562 4.5125l2.256.8313c1.307.5937 2.138 1.0687 2.138 2.2562 0 1.425-1.188 2.0188-2.969 2.0188s-3.444-.7125-4.869-1.7813c.119-.1187.119 2.6125.119 2.6125zm15.556 0c1.069.7125 2.85 1.425 4.869 1.425 3.088 0 5.463-1.5438 5.463-4.3938 0-2.2562-1.069-3.6812-3.444-4.5124l-2.494-.95c-1.306-.475-2.019-.95-2.019-2.0188 0-1.3062 1.188-1.9 2.613-1.9 1.781 0 3.206.7125 4.394 1.6625v-2.7312c-1.188-.8313-2.732-1.3063-4.513-1.3063-2.85 0-5.106 1.5438-5.106 4.275 0 2.6125 1.544 3.6812 3.562 4.5125l2.257.8313c1.306.5937 2.137 1.0687 2.137 2.2562 0 1.425-1.187 2.0188-2.969 2.0188-1.781 0-3.443-.7125-4.868-1.7813.118-.1187.118 2.6125.118 2.6125z" fill="#111" fill-rule="evenodd"/></svg>