<svg fill="none" height="80" viewBox="0 0 141 80" width="141" xmlns="http://www.w3.org/2000/svg"><rect fill="#fff" height="80" rx="12" width="140.5"/><path d="m69.6985 23.3646 1.5845 1.0012-.6058 5.7248 8.5258-5.1991c-.1535-1.2256-.5573-2.4066-1.1864-3.4696s-1.47-1.9853-2.4705-2.7097-2.1393-1.2353-3.3455-1.5011c-1.2063-.2658-2.4543-.2808-3.6666-.044s-2.363.7203-3.3806 1.4205c-1.0176.7001-1.8804 1.602-2.5348 2.6496s-1.0864 2.2186-1.2693 3.4401c-.1829 1.2216-.1126 2.4678.2063 3.6611z" fill="#323956"/><path d="m69.9587 32.9792-1.5845-1.0013.6058-5.7223-6.6685 4.0702c.8908 1.6905 2.2959 3.0541 4.0123 3.8938s3.6554 1.1121 5.5367.7778c1.8814-.3343 3.6078-1.258 4.9298-2.6377 1.3221-1.3796 2.1714-3.1438 2.4252-5.0377z" fill="#323956"/><path d="m70.7523 22.5409c.7036 0 1.2741-.5704 1.2741-1.2741s-.5705-1.2741-1.2741-1.2741c-.7037 0-1.2742.5704-1.2742 1.2741s.5705 1.2741 1.2742 1.2741z" fill="#f64e00"/><path d="m9.75 56.9061 2.2345-.0329v-16.0097l-2.2345.0329zm10.6878-11.1242c-.9998 0-2.7019.4511-3.4568 1.675v-1.4469h-2.1096v10.8961h2.1096v-5.8966c0-2.1488 1.5997-3.1117 3.1843-3.1117 1.4997 0 2.4995 1.1403 2.4995 2.8355v6.1728h2.1071v-6.2868c0-1.5483-.4199-2.8153-1.2497-3.6616-.7499-.7703-1.8172-1.1758-3.0844-1.1758zm10.6778 8.3216-3.2268-8.091h-2.2571l4.4641 10.8936h2.0196l4.4866-10.8936h-2.2796zm39.3694-8.3216c-3.2494 0-5.6114 2.3718-5.6114 5.6432s2.4145 5.7116 5.6114 5.7116c.7451.0191 1.4862-.1155 2.1784-.3958.6922-.2802 1.321-.7002 1.8481-1.2344.5272-.5342.9417-1.1714 1.2185-1.873.2767-.7017.4098-1.453.3913-2.2084 0-3.2714-2.3595-5.6432-5.6363-5.6432zm0 9.3327c-1.9721 0-3.4718-1.5863-3.4718-3.6895 0-2.0652 1.4997-3.6211 3.4792-3.6211.4685-.0066.9334.0828 1.3668.2631.4335.1803.8264.4477 1.1552.786s.5867.7406.7581 1.1826.2528.9147.2392 1.3894c0 2.1032-1.5172 3.6895-3.5267 3.6895zm12.9198-9.3327c-1.5572 0-2.9819.6867-3.7067 1.7738v-1.5457h-2.1096v16.1262h2.1096v-6.7505c.7198 1.0972 2.092 1.7434 3.7292 1.7434 3.1068 0 5.3614-2.382 5.3614-5.666s-2.2646-5.6812-5.3839-5.6812zm-.1825 9.3327c-.4672.0014-.93-.0917-1.3613-.2737-.4313-.1821-.8225-.4496-1.1507-.7867-.3281-.3372-.5867-.7373-.7605-1.177s-.2594-.9101-.2517-1.3837c0-2.1032 1.5146-3.6895 3.5242-3.6895 1.9271 0 3.4343 1.6218 3.4343 3.6895s-1.4772 3.6211-3.4343 3.6211zm27.5697-7.5842c-.72-1.0972-2.092-1.7434-3.73-1.7434-3.106 0-5.361 2.3819-5.361 5.666 0 3.284 2.265 5.6888 5.384 5.6888 1.557 0 2.982-.6867 3.707-1.7738v1.5381h2.109v-16.7699h-2.109zm-3.537 7.5842c-1.915 0-3.412-1.6218-3.412-3.6895s1.457-3.6211 3.412-3.6211c.469-.003.933.0887 1.367.2699.433.1812.826.4482 1.156.7854.331.3372.591.7378.767 1.1784s.263.9122.257 1.3874c-.01 1.789-1.253 3.6895-3.547 3.6895zm8.316-9.1021h2.109v10.8936h-2.109zm15.012-.0025h-2.11v1.267c-.75-.9477-2.042-1.5001-3.552-1.5001h-.17c-3.107 0-5.361 2.3819-5.361 5.6659 0 3.2841 2.264 5.6888 5.384 5.6888h.177c1.437 0 2.765-.5879 3.529-1.5204v1.2949h2.27v-10.8961zm-5.567 9.097c-1.872-.0507-3.324-1.6471-3.324-3.6844s1.425-3.5704 3.324-3.616c1.938.0347 3.483 1.6511 3.457 3.616 0 1.7662-1.222 3.6362-3.457 3.6869zm-72.1699-4.8602c-1.1023-.2863-1.8821-.5423-1.8821-1.2391 0-.783.7798-1.3304 1.8996-1.3304.8121.0166 1.5964.3033 2.232.816l.0525.0405 1.1323-1.5913-.05-.0405c-.9981-.788-2.2347-1.2008-3.4993-1.1682-1.9021 0-3.9492 1.0617-3.9492 3.3879 0 1.6218 1.3348 2.4124 2.452 2.7874.375.1267.7499.2255 1.1298.3218 1.1673.3041 2.1771.5676 2.1771 1.49 0 .6462-.6424 1.3303-1.8322 1.3303-1.1272-.0317-2.2129-.4386-3.0893-1.158l-.055-.0405-1.1298 1.6369.0475.038c1.2138.9766 2.7247 1.4952 4.2741 1.4672 1.9246 0 3.9717-1.1631 3.9717-3.3195s-1.9621-2.9293-3.8817-3.4285zm47.4829 1.0263c0-3.2511-2.0723-5.5165-5.0717-5.5165-3.0318 0-5.2314 2.3237-5.2314 5.5215-.0203.7661.1111 1.5285.3863 2.2423.2751.7137.6886 1.3644 1.2159 1.9135.9444.9322 2.2137 1.4486 3.5318 1.4367h.0999c1.8571-.0329 3.0694-.3446 4.5416-1.9562l.045-.0482-1.4622-1.4114-.045.0507c-.3698.4402-.8313.7917-1.3512 1.0292-.52.2375-1.0855.3551-1.6557.3442-1.6296 0-2.9144-1.2112-3.2168-3.023l8.1405-.0178h.06v-.0608c.008-.0986.008-.1978 0-.2964.015-.0406.013-.0963.013-.2078zm-7.8911-1.0998c.2775-1.5736 1.2948-2.4402 2.8719-2.4402 1.5272 0 2.567.9097 2.7969 2.4402zm-45.1707 1.0998c0-3.2511-2.087-5.5165-5.0664-5.5165-3.0319 0-5.2314 2.3237-5.2314 5.5215-.0203.7661.111 1.5285.3862 2.2423.2752.7137.6886 1.3644 1.2159 1.9135.9444.9322 2.2138 1.4486 3.5318 1.4367h.0975c1.8596-.0329 3.0719-.3446 4.5441-1.9562l.0449-.0482-1.4622-1.4114-.0449.0507c-.3706.4412-.8333.7933-1.3547 1.0309-.5213.2375-1.0883.3545-1.6597.3425-1.6322 0-2.9144-1.2112-3.2169-3.023l8.1384-.0178h.0625v-.0608c.0066-.0987.0066-.1977 0-.2964.0149-.0406.0149-.0963.0149-.2078zm-7.8983-1.0998c.2799-1.5736 1.2972-2.4402 2.8744-2.4402 1.5272 0 2.567.9097 2.7969 2.4402zm24.27 4.47c-.2901.0786-.5897.1153-.8898.1089-.2406.0113-.4809-.0279-.7058-.1151-.225-.0872-.4297-.2205-.6015-.3917-.2299-.2736-.2774-.6943-.2774-1.2391v-5.1338h2.9994v-1.8625h-2.9994v-3.5273h-2.1121v3.5273h-1.1597v1.8625h1.1597v5.0223c0 1.2087.265 2.0981.8098 2.7164.3556.398.7932.7119 1.2817.9194.4885.2076 1.016.3038 1.5453.2817.5299.0051 1.058-.0684 1.5671-.2179l.0625-.0203-.6173-1.9486zm52.9861-13.8508c-.179-.0003-.356.0356-.522.1056-.165.0701-.315.1729-.441.3025-.125.1295-.224.2832-.291.452-.066.1688-.099.3494-.095.5311-.003.1804.03.3596.097.5268.067.1673.166.3192.292.4468.126.1277.276.2283.441.2961s.341.1014.519.0986c.18.0041.359-.0283.526-.0953s.319-.1672.447-.2947c.129-.1275.231-.2797.3-.4477.069-.1681.105-.3485.105-.5306 0-.1833-.035-.3649-.104-.5344-.069-.1694-.17-.3232-.299-.4526-.128-.1294-.28-.2317-.447-.3011-.168-.0694-.347-.1044-.528-.1031z" fill="#000"/></svg>