<svg fill="none" height="80" viewBox="0 0 141 80" width="141" xmlns="http://www.w3.org/2000/svg"><rect fill="#fff" height="80" rx="12" width="140.5" x=".5"/><path d="m30.8212 60.6275c0 2.1987.7631 3.0596 1.9297 3.0596 2.9194 0 7.5707-6.8591 7.394-14.0604 4.4269-4.7007 9.7336-12.0643 9.7336-17.9622 0-1.4277-.4022-2.6299-2.0833-2.6299-2.5702 0-6.2428 4.4589-8.5724 8.8866-2.2466 4.5871-4.3482 9.819-7.1379 16.9996-.6519 1.8011-1.2637 3.9825-1.2637 5.7067zm63.1486-9.789v3.6956s1.8199 1.3235 5.3706 1.3235c5.3896 0 7.7566-3.0267 7.7566-6.3297 0-7.1583-9.5753-5.4472-9.5753-10.1972 0-1.7852 1.4121-3.0768 3.7823-3.0768 2.768 0 4.807 1.4868 4.807 1.4868v-3.4206s-1.895-1.0571-4.628-1.0571c-4.6078 0-7.479 2.8969-7.479 6.3771 0 7.077 9.546 5.6926 9.546 10.3046 0 2.1196-1.732 2.8877-3.9706 2.8877-3.205 0-5.6096-1.9939-5.6096-1.9939zm34.7802 4.5115h-3.428v-12.2861c0-4.5722-1.658-6.8583-4.974-6.8583-1.714 0-3.132.6486-4.253 1.946-1.122 1.2973-1.683 2.9348-1.683 4.9123v12.2861h-3.427v-21.5427h3.427v3.5764h.084c1.616-2.7209 3.957-4.0813 7.022-4.0814 2.341.0001 4.132.7609 5.372 2.2826 1.24 1.5218 1.86 3.7203 1.86 6.5954zm-38.5221 0h-3.4276v-12.3702c-.0001-2.3843-.3658-4.1094-1.0973-5.1754-.7315-1.0658-1.9612-1.5988-3.6889-1.5988-1.4631 0-2.7066.6732-3.7307 2.0196-1.0242 1.3464-1.5362 2.9593-1.5362 4.8387v12.2861h-3.4277v-12.791c0-4.2356-1.6233-6.3534-4.8698-6.3534-1.5048 0-2.7449.6346-3.7203 1.9039-.9753 1.2693-1.463 2.9208-1.463 4.9544v12.2861h-3.4277v-21.5427h3.4277v3.4081h.0836c1.5187-2.6087 3.7342-3.913 6.6463-3.9131 1.463.0001 2.7379.4103 3.8248 1.2308 1.0868.8205 1.8322 1.8969 2.2363 3.2293 1.5884-2.9734 3.9571-4.46 7.1062-4.4601 4.7095.0001 7.0643 2.9243 7.0643 8.7728zm-72.0563 10.0848c-2.9269 0-5.4216-1.8492-5.4216-6.0407 0-6.4706 5.5319-11.3844 8.0419-12.7741 0 0 3.5116 2.0362 7.1547 3.3466-7.2385-4.61-11.8639-13.0092-11.8639-22.3316 0-8.7124 4.5686-12.635 8.6935-12.635 3.3182 0 11.185 3.6742 11.185 17.7732 0 15.1709-7.8645 32.6616-17.7896 32.6616z" fill="#000"/></svg>