<svg fill="none" height="80" viewBox="0 0 141 80" width="141" xmlns="http://www.w3.org/2000/svg"><rect fill="#fff" height="80" rx="12" width="140.5" x=".5"/><g fill="#000"><path d="m26.2645 46.7482h4.3827l2.3497-13.4482h-4.3828l-.8665 4.816h-3.7995l.8666-4.816h-4.3828l-2.3496 13.4482h4.3827l.8832-5.0327h3.7995z"/><path d="m35.48 33.2833-1.3331 7.4823c-.1167.5832-.1667 1.1498-.1667 1.6831 0 3.9661 3.4662 4.566 5.5493 4.566 4.366 0 6.2491-1.4498 6.9323-5.3659l1.4665-8.3822h-4.3827l-1.2499 7.0324c-.3999 2.1996-.6832 3.3495-2.3163 3.3495-1.0665 0-1.5831-.5666-1.5831-1.7331 0-.4499.0666-.9999.1999-1.6831l1.2665-6.9657h-4.3827z"/><path d="m71.0916 46.748h4.3827l.6166-3.4662h2.0663c3.8162 0 5.9325-2.0664 5.9325-5.8325 0-2.6496-1.833-4.1661-5.0493-4.1661h-5.5992zm6.8323-6.7824h-1.2665l.5833-3.1662h1.1832c.9665 0 1.4831.4832 1.4831 1.3665 0 1.1165-.7499 1.7997-1.9831 1.7997z"/><path d="m92.6051 33c-4.766 0-7.6156 3.0829-7.6156 8.2655 0 3.5995 2.2664 5.7659 6.0658 5.7659 4.766 0 7.6156-3.0829 7.6156-8.2655.0167-3.6162-2.2497-5.7659-6.0658-5.7659zm-1.2832 10.5485c-1.1331 0-1.7997-.8165-1.7997-2.183 0-.5166.05-.9665.15-1.4831.3333-1.7664.8999-3.3829 2.6829-3.3829 1.1332 0 1.7998.8166 1.7998 2.183 0 .5166-.05.9666-.15 1.4832-.3333 1.7497-.8999 3.3828-2.683 3.3828z"/><path d="m113.919 46.7482h4.383l1.733-9.8487h3.299l.633-3.5995h-11.215l-.633 3.5995h3.5z"/><path d="m106.653 38.2659c-1.383-.4332-1.95-.6165-1.95-1.2665 0-.4332.284-.9498 1.117-.9498.617 0 1.133.3499 1.333.8665l3.866-1.0498c-.45-1.8998-2.083-2.8663-4.899-2.8663-5.299 0-5.716 3.5495-5.716 4.6327 0 2.1997 1.167 3.5495 3.7 4.2494.666.1833 1.433.3833 1.433 1.1165 0 .5833-.434.9499-1.183.9499-.684 0-1.417-.4-1.667-1.0999l-3.816 1.0332c.4166 1.9997 2.3 3.1329 5.249 3.1329 2.25 0 6.016-.5999 6.016-4.666.017-2.0331-1.133-3.3662-3.483-4.0828z"/></g><path d="m15.6327 46.7482 2.3663-13.4482h-7.249v13.4482z" fill="#0dbe98"/><path d="m125.851 33.3-2.35 13.4482h7.249v-13.4482z" fill="#0dbe98"/><path d="m53.161 42.7819h3.6828l.5999-3.3829h-3.6828l.4166-2.4996h5.1493l.6332-3.6162h-9.532l-2.3496 13.4648h4.3827z" fill="#000"/><path d="m64.6424 42.7819h3.6995l.5999-3.3829h-3.6828l.4166-2.4996h5.1492l.6333-3.6162h-9.532l-2.3497 13.4648h4.3827z" fill="#000"/></svg>