<svg fill="none" height="80" viewBox="0 0 141 80" width="141" xmlns="http://www.w3.org/2000/svg"><rect fill="#fff" height="80" rx="12" width="140.5" x=".5"/><g fill="#000"><path d="m88.008 27.453-.1033.3667c1.5968.0824 2.0484.7762 2.0484 1.3793 0 .3538-.1422.7635-.4273 1.2236 0 0-7.8574 12.3072-8.4729 13.271-.0355-.1522-3.2613-13.8691-3.2613-13.8691-.0576-.2525-.0865-.4742-.0865-.6685 0-.9515.731-1.281 2.1441-1.3336l.1041-.3695h-6.2382l-.1072.3667c1.3339.0518 2.1135.4093 2.5328 2.107.7442 3.0628 3.6268 15.2271 3.7108 15.5828-3.0174 4.4121-5.5622 6.9678-9.6299 6.9678-2.9657 0-5.2015-2.0496-5.2015-4.7682 0-2.7121 2.1679-4.9192 4.8321-4.9192 1.6572 0 2.5518.8442 2.5518 1.6398 0 .4573-.2524.6863-.4417.8194-.2216.1411-.4271.3189-.4271.6571 0 .3218.2514.5554.5981.5554.5712 0 .8798-.6891.8798-1.337 0-1.6683-1.211-2.7053-3.1607-2.7053-3.2672 0-5.29 2.7914-5.29 5.3771 0 2.5148 2.1169 5.1161 5.6593 5.1161 5.1729 0 7.899-4.0999 10.7853-8.4397 0 0 8.3023-12.9213 9.1824-14.2307 1.0194-1.5174 2.3387-2.3606 3.8003-2.4206l.1049-.3685h-6.0866zm-.4641 13.305c0 2.9743 1.9619 4.5297 3.9001 4.5297 1.6909 0 3.4383-.8662 4.7953-2.3783 1.3906-1.5501 2.1884-3.6087 2.1884-5.648 0-2.5665-1.5234-4.2905-3.7909-4.2905-3.5133-.0001-7.0929 3.9298-7.0929 7.7871zm1.3483.4564c0-3.3741 2.8073-7.9036 5.6796-7.9036 2.0372 0 2.4646 1.8214 2.4646 3.3418 0 2.8918-1.9285 8.295-5.6149 8.295-1.5835 0-2.5293-1.4006-2.5293-3.7332zm17.1488-8.0483s-2.095.0374-2.095.0374c-1.027.0258-2.111.0514-2.907.0275l-.083.2829c1.182.0747 1.626.3702 1.187 1.7822l-2.3684 7.8423c-.3076.9878-.9752 1.5032-2.013 1.5636l-.1096.3034h4.742l.085-.3034c-.887-.0418-1.553-.1823-1.553-.9661 0-.1787.036-.3848.107-.6217 0 0 1.152-3.84 1.166-3.8864h2.149c.007.0144.015.0297.015.0297.94 1.882 2.11 4.2218 2.799 5.7286l.009.0193h6.368l.083-.3052c-.879-.0189-1.572-.2072-1.572-.9733 0-.1761.036-.3797.105-.6129 0 0 .942-3.1387.975-3.2479.016-.0129 1.57-1.224 1.631-1.2722 2.172 4.3823 5.801 11.6691 12.872 11.6691 2.028 0 3.617-1.265 3.617-2.879 0-1.2355-.924-1.901-1.792-1.901-.859 0-1.316.5865-1.316 1.0102 0 .2536.208.4243.403.4243.23 0 .382-.0957.507-.3213.126-.2279.388-.4441.751-.4441.682 0 1.142.4638 1.142 1.2319 0 1.383-1.447 2.508-3.225 2.508-4.479 0-8.352-3.9582-11.841-12.099.041-.0311 4.106-3.1337 4.106-3.1337 1.348-.9964 2.006-1.1027 2.543-1.1443l.086-.2838h-3.977l-.084.2819c.662.0379 1.054.2855 1.054.6238 0 .2629-.226.5801-.662.9261 0 0-4.982 3.7599-5.674 4.2827.057-.1869 1.251-4.0947 1.251-4.0947 0 .0015.026-.0756.026-.0756.353-1.0165.572-1.5874 2.033-1.6622l.083-.2819h-4.501l-.088.2838c.653.0289 1.05.1646 1.217.4018.175.249.161.6489-.05 1.3804l-2.345 7.8411c-.305.978-.927 1.5618-1.663 1.5618-.671 0-1.117-.407-1.642-1.5019 0 0-1.835-3.7464-2.024-4.1322 1.827-.3434 3.938-1.4658 3.938-3.5212 0-1.4403-1.002-2.3871-3.465-2.3788zm-.369.2831c2.108 0 2.551 1.0576 2.551 1.9441 0 1.6099-.756 3.5287-4.354 3.5287 0 0-1.499 0-1.585 0 .026-.0844 1.641-5.3664 1.654-5.4091.267-.0228 1.062-.0637 1.734-.0637z"/><path d="m38.8395 42.0669c-1.8885-3.3052-4.4017-8.5259-5.7367-14.6137h-6.2015c-1.6027 0-4.2914.3428-4.2914 2.6205 0 .8936.7103 1.8579 1.8584 1.8579 1.042 0 1.5969-.688 1.5969-1.1842 0-.3097-.1733-.6422-.5546-.6422-.3832 0-.5545.3223-.5545.6422 0 .3896-.2632.6619-.6403.6619-.7602 0-1.2918-.5675-1.2918-1.3787 0-1.4629 1.3047-2.2045 3.8771-2.2045h2.6301c1.5404 0 2.2199.7636 1.8337 2.3053-2.6353 9.2908-7.9083 19.2197-14.8037 19.2197-3.1726 0-4.8324-1.8514-4.8324-3.6812 0-1.3235.9004-2.3124 1.7048-2.3124.5329 0 .7291.3534.9183.6948.1775.3208.3612.6517.8191.6517.3217 0 .6636-.2322.6636-.6625 0-.7377-.836-1.2933-1.9449-1.2933-1.2749 0-2.6397 1.1741-2.6397 2.9218 0 2.3982 2.2337 4.1389 5.3114 4.1389 3.6902 0 7.1354-2.5922 10.2406-7.7051 2.9664-4.885 4.586-10.4031 5.0535-12.1453 2.7022 9.6633 10.7714 22.9568 19.0052 22.9568 2.2067 0 3.7477-1.2286 3.7477-2.9871 0-1.0907-.6636-1.9416-1.5105-1.9416-.5085 0-.8371.2227-.8371.5727 0 .3063.2819.4902.5551.4902.1395 0 .2483-.0473.3537-.0929.0963-.0422.1879-.0818.2974-.0818.4463 0 .7703.4706.7703 1.1186 0 1.4785-1.3926 2.5514-3.3115 2.5514-3.9471 0-7.8147-3.2732-11.8242-10.0068 1.6433-5.3064 4.9463-14.1902 8.6309-14.1902.6729 0 1.0915.1681 1.4609.3167.2906.1165.565.2262.9075.2262.7973 0 1.01-.4984 1.01-.7936 0-.6563-.6508-1.0971-1.6186-1.0971-5.3768-.0005-8.6528 8.5758-10.6528 15.0669zm28.3525-8.8358-.0862.2792c1.0083.0705 1.3099.6063 1.3099 1.0487 0 .2405-.0767.5146-.2292.8198l-4.29 8.2229-.6466-8.9094c-.0696-.9235.4315-1.1688 1.4279-1.1774l.0863-.2838h-4.0882l-.0855.2792c1.0123.0842 1.3216.4377 1.3216.8492 0 .1966-.0526.3944-.1984.6934-.0004 0-4.1837 8.5099-4.1837 8.5099l-.6504-8.8506c-.0512-1.0126.4566-1.1621 1.3923-1.1988l.0845-.2824h-4.1752l-.0875.2824c1.1764.0687 1.5376.4088 1.6209 1.4912l.8277 10.2052h.5076l5.0348-10.2161.8222 10.2161h.4852l5.1342-9.8009c.6857-1.2959 1.4509-1.8331 2.452-1.8958l.0842-.282zm-14.0511 0h-7.9745l-.0843.2801c.6516.0464 1.0594.1806 1.2302.4258.1669.2401.1669.6062-.0022 1.1866l-2.4328 8.1022c-.2832.9144-.9707 1.4169-1.9936 1.4807l-.1072.2999h10.1686l1.7631-3.482-.2089-.0895c-1.4479 2.3029-3.5712 3.2654-7.2878 3.2654 0 0-1.4344 0-1.5187 0 .0251-.0834 1.7034-5.6645 1.7176-5.7112h1.691c.682 0 1.1366.1521 1.3906.4648.2914.3588.3286.9715.1342 1.9014l.2595.0013 1.4074-4.6892-.264-.0018c-.4967 1.3006-1.5334 2.0393-2.9054 2.0393 0 0-1.5435 0-1.6278 0 .0251-.0834 1.5512-5.1439 1.5656-5.1901h1.5828c1.9983 0 3.2474.8762 3.692 2.5457l.2117-.0308-.3776-2.7987h-.0295z"/></g></svg>