<svg fill="none" height="80" viewBox="0 0 141 80" width="141" xmlns="http://www.w3.org/2000/svg"><rect fill="#fff" height="80" rx="12" width="140.5" x=".5"/><path clip-rule="evenodd" d="m95.5539 59.162h-5.26v-39.162h5.26zm7.1191-16.6289h4.44c.015-.4741.07-2.651-.003-6.252-.079-3.947-2.11-4.1041-2.22-4.11-.469.001-.872.17-1.198.502-1.04 1.0552-1.021 3.4304-1.02 3.5196v.0024 6.338zm2.211 16.88c-1.72 0-3.197-.618-4.393-1.84-4.2707-4.3644-3.6704-15.1703-3.6601-15.3555l.0001-.0015c-.006-.102-.485-11.321 8.13-12.393.033-.003 2.581-.141 4.81 2.05 2.549 2.506 3.675 6.906 3.347 13.078l-.005.097h-10.44v8.564c.002.024.268 3.204 2.388 3.282.47.02.875-.13 1.207-.44.933-.8744 1.005-2.7575 1.008-2.8413v-.0001-.0026-6.455h5.747l.011.089c.008.06.742 6.138-2.265 9.66-1.347 1.577-3.24 2.42-5.625 2.5049-.087.0031-.173.0048-.26.0051zm-87.631-35.2541-.003-3.829 17.691-.008v3.837h-5.828v35.003h-5.866v-35.003zm14.2509 34.9199h5.469v-.102l.0013-.416v-.0012-.0011-.0002c.0091-2.8116.061-18.8429-.0013-20.7135-.033-.978.547-1.702 1.723-2.15.896-.342 1.817-.387 1.822-.387h1.843v-5.307l-.087-.013c-2.439-.358-4.897 1.309-5.55 1.792v-1.545h-5.22zm36.5423.0821h-4.397l-.017-.082-5.66-28.927h5.681l.015.084 3.128 17.81 2.901-17.811h3.692zm14.9607-16.628h-4.441v-6.338c-.001-.025-.036-2.452 1.019-3.522.327-.332.73-.501 1.198-.502.064.004 2.141.168 2.221 4.11.072 3.601.018 5.778.003 6.252zm-6.623 15.04c1.197 1.222 2.673 1.84 4.393 1.84v.001c.0867-.0003.1734-.002.26-.005 2.386-.085 4.279-.928 5.625-2.505 3.007-3.521 2.273-9.6 2.265-9.66l-.011-.089h-5.747v6.455c0 .019-.057 1.953-1.008 2.843-.331.311-.738.462-1.207.441-2.12-.078-2.386-3.258-2.388-3.282v-8.564h10.44l.005-.097c.328-6.172-.798-10.572-3.346-13.078-2.23-2.191-4.778-2.053-4.81-2.05-8.616 1.072-8.136 12.291-8.131 12.393l-.0001.0015c-.0102.1841-.6108 10.9909 3.6601 15.3555zm43.3011 1.588h-5.47v-29.256h5.221v1.546c.653-.484 3.111-2.15 5.55-1.792l.087.013v5.307h-1.843c-.004 0-.9.045-1.782.386-1.16.45-1.753 1.174-1.763 2.154-.018 1.8681-.003 18.2161 0 21.1067v.0088.4255zm-71.0661-4.738c-.341-.491-.474-.993-.493-1.0699v-6.9431c0-.009.06-.8799.554-1.424.268-.295 1.21-.875 2.122-1.4349.736-.452 1.436-.8831 1.844-1.1961v10.7301c-.005.054-.07.627-.344 1.194-.377.776-.952 1.174-1.71 1.184-.816.0099-1.485-.339-1.973-1.0401zm-5.384 2.2081c.45.86 1.818 2.86 4.816 2.86v-.001c2.549 0 4.326-1.368 4.872-1.848v1.519h5.095v-20.242c0-3.243-.848-5.676-2.522-7.231-2.061-1.9161-4.692-1.79-4.796-1.784-2.534.048-4.479.838-5.782 2.348-2.2794 2.6401-1.7817 6.6213-1.776 6.6669v.0001l.012.0889h5.386v-3.8719c.003-.028.367-2.718 2.081-2.718 1.708 0 1.941 2.55 1.942 2.567v3.8249c-.232.361-1.457 1.29-1.916 1.621-.235.1557-.4842.331-.7946.5494l-.0564.0397-.0143.01-.0004.0003-.0003.0002c-.5668.3991-1.3433.946-2.616 1.7945-2.4236 1.6173-3.5638 3.364-3.6454 3.4889l-.0046.007c-1.602 2.533-1.162 8.6201-.28 10.3101zm-3.4921-27.7792c-.494 0-1.44-.118-2.23-.91-.75-.754-1.131-1.886-1.131-3.365 0-2.772 1.331-4.564 3.392-4.564h.035c1.769 0 2.586 1.48 2.79 2.36l.022.092-1.576.496-.023-.11c-.242-1.12-.93-1.287-1.319-1.287-1.492 0-1.567 2.454-1.567 2.947 0 1.226.373 2.658 1.426 2.658.335 0 1.154-.138 1.542-1.408l.03-.098 1.558.481-.034.141c-.097.411-.198.836-.558 1.334-.405.563-1.143 1.233-2.357 1.233zm5.014-3.2169c0-.903.171-1.98.984-1.98v.001c.886 0 .954 1.387.954 1.812 0 .928-.169 2.034-.974 2.034-.87 0-.964-1.306-.964-1.867zm-1.562-.023c0 2.2 1.279 3.185 2.546 3.185 1.253 0 2.517-.988 2.517-3.195 0-2.835-1.858-3.14-2.657-3.14-1.462 0-2.406 1.236-2.406 3.15zm10.4003 3.0851h-1.563v-4.242c0-.404-.117-.577-.39-.577-.374 0-.718.266-1.146.697v4.122h-1.563v-6.124h1.563v.662c.325-.316.899-.762 1.759-.762.611 0 1.34.28 1.34 1.615zm2.2681-3.0291c0-.652.124-1.745.954-1.745.295 0 .571.167.843.512v2.41c-.152.19-.42.502-.833.502-.937 0-.964-1.507-.964-1.679zm-1.684-.022c0 1.826.885 3.151 2.104 3.151h.001c.65 0 1.109-.358 1.366-.617v.517h1.563v-8.639h-1.563v3.027c-.309-.313-.76-.612-1.356-.612-1.225 0-2.115 1.334-2.115 3.173zm7.224-.748h.0001l-.0001.001zm.0001 0c.1023-1.1191.7609-1.209.9669-1.209.155 0 .914.06 1.008 1.209zm1.0069 3.898c-1.274 0-2.647-1.01-2.647-3.228 0-1.852 1.044-3.095 2.597-3.095 1.1 0 1.978.654 2.292 1.708.19.651.177 1.167.144 1.727l-.005.096h-3.39c.082 1.25.736 1.387 1.02 1.387.599 0 .836-.483.963-.743l.056-.113 1.292.598-.046.093-.0008.0015c-.1937.3915-.7762 1.5685-2.2742 1.5685zm-1.3863-6.765h1.263l2.15-1.918h-1.917zm12.9311 6.6661h-1.622l-3.016-5.535v5.535h-1.673v-8.517h1.722l2.915 5.315v-5.315h1.674zm2.2459-1.8301c0-.785 1.089-1.073 1.634-1.191v1.23c-.194.17-.666.566-1.089.566-.262 0-.545-.189-.545-.605zm-1.424.117c0 1.083.866 1.65 1.722 1.65h.001c.692 0 1.146-.327 1.415-.568.0236.133.0523.2651.086.396l.019.077h1.459l-.043-.133c-.083-.255-.176-.787-.176-1.117v-2.624c0-1.766-1.354-2.03-2.16-2.03-.4197-.0074-.835.0862-1.211.2729-.3759.1868-.7014.4612-.949.8001l-.055.073.917.85.068-.098c.33-.488.737-.735 1.21-.735.458 0 .755.307.755.783v.076c-1.945.189-3.058 1.034-3.058 2.327zm7.506 1.813c-1.319 0-1.962-.754-2.27-1.116l-.07-.081.975-.75.063.053.0023.002c.2928.2478.6924.586 1.3197.586.343 0 .743-.128.743-.488 0-.32-.256-.49-.912-.612-1.338-.255-2.015-.921-2.015-1.98 0-1.087.95-1.938 2.164-1.938 1.0225 0 1.6751.5354 2.0653.8556l.0017.0014.09.075-.93.857-.198-.134c-.44-.304-.692-.439-1.019-.439-.44 0-.702.299-.702.588 0 .41.373.53.987.677l-.013.102.038-.096.0015.0003c.7003.1641 2.0045.4696 2.0045 1.8317 0 .998-.72 2.005-2.326 2.005zm4.3149-.2989c.32.242.7.301 1.195.301v-.001c.155 0 .321-.006.501-.014l.098-.004v-1.421l-.1-.002c-.596-.013-.846-.079-.846-.455v-3.047h.946v-1.282h-.946v-1.914h-1.5619v1.914h-.8151v1.283h.8151v3.047c0 .692.2539 1.259.7139 1.595z" fill="#000" fill-rule="evenodd"/></svg>