<svg fill="none" height="80" viewBox="0 0 141 80" width="141" xmlns="http://www.w3.org/2000/svg"><rect fill="#fff" height="80" rx="12" width="140.5"/><path d="m37.4608 41.3415c.4136-.2064.8686-.4542 1.2822-.6606.1654-.0826.7444-.289.8272-.4542.0413-.0826 0-.3303 0-.4542v-.9909-7.0603-6.8951-.9084c0-.0413.0413-.3303 0-.3716-.0414-.0413-.3723 0-.4136 0h-.9099c-.3309 0-.2896.0413-.4964.289-.7858 1.0322-1.5716 2.0644-2.3574 3.1379-.3723.4955-.7445.9497-1.0754 1.4451-.2482.3303-.2482.3716-.7031.3716l.1241-2.725c.0413-.6606.0413-1.3212.0827-1.9818 0-.2478.0414-.4955.0414-.7432 0-.0826-.0414-.3303 0-.3716.0827-.1239.8271-.0413 1.0339-.0413h15.4685c.0827 0 .4549-.0413.5376 0 .0828.0413.0414.289.0414.4129.0414.5367.0414 1.1148.0827 1.6515.0414 1.1974.0827 2.3534.1655 3.5508v.2477c-.2068 0-.3723.0413-.5377-.0825-.1655-.1239-.2895-.3716-.4136-.5368-.4963-.6606-.9926-1.3625-1.5303-2.0231l-1.4889-1.9819c-.0828-.1238-.2068-.4128-.3723-.4954-.1241-.0826-.3722-.0413-.5377-.0413h-.6617c-.0827 0-.4136-.0413-.4963 0-.0414.0413 0 .0413-.0414.1239-.0827.3303 0 .7431 0 1.0735v14.3683c0 .289-.0827.7019 0 .9909s.7445.4955 1.034.6193c.2895.1652.7858.2891 1.034.5368.0827.0826.1654.4955.0827.6193-.0413.0413-.2481 0-.2895 0h-9.0991c-.0827 0-.3722.0413-.4136 0-.0413-.1651 0-.4954 0-.6193zm15.3444-.7432v-6.0281-9.8679-1.6103c0-.2477.0827-.6193 0-.867-.0827-.289-.5791-.3303-.8686-.4542-.1654-.0413-.7031-.1651-.7858-.3303v-.3303h.1241c.1654-.0826.4963-.0826.7031-.1239.3722-.0825.7445-.1238 1.0753-.2064.8272-.1652 1.6958-.3303 2.523-.4542.4963-.0826.9926-.2064 1.4889-.289.1241 0 .6204-.0826.6617 0 .0414.0413 0 .2064 0 .2477v8.5467c1.5717-1.5689 4.3014-2.436 6.4935-1.8992 1.9025.4541 2.5229 2.2295 2.5229 4.0462.0414 2.3122 0 4.583 0 6.8952v1.858c0 .2064-.0827.7019 0 .9083.0414.0826.2068.1239.2895.2064.2895.1652.6204.3303.9099.4955.0414.0413.1655.0826.1655.1239.0413.0413.0413.4128 0 .4541-.0414.0826-.0414.0413-.1655.0413-.4549.0826-.9512 0-1.3648 0h-5.9558c-.0413 0-.2481.0413-.2895 0s-.0414-.4954 0-.5367c.1241-.1652.6204-.3303.7858-.4542.1241-.0826.4963-.2064.5791-.3303.0827-.1239 0-.578 0-.7019v-1.6928c0-2.3948.0413-4.8308 0-7.2255 0-.7019-.1241-1.5277-.8272-1.8993-.3723-.2064-.8686-.2477-1.2822-.2477-.3309 0-.6617.0826-.9512.1652-.2482.0825-.7032.2477-.8686.4541-.1241.1652-.0414.4129-.0414.6194v9.744c0 .2065-.0827.6193 0 .7845.0414.0826.2068.1651.3309.2064.2895.1652.6618.3303.9513.4955.0414.0413.1241.0413.1241.0826.0413.0413.0413.4129 0 .4541-.0414.0413-.0827.0413-.1655.0413-.4549.0413-.9512 0-1.4062 0h-5.9557c-.0414 0-.2482.0413-.2896 0-.0413-.0413 0-.4541.0414-.5367.1241-.1652.579-.3303.7445-.4129.2895-.1239.4963-.2477.7031-.3716zm19.6457-5.6978c.0827 1.8167.6618 3.8398 2.3161 4.8308.8686.4954 1.9439.6606 2.9366.578 1.1994-.1239 2.192-.7019 3.226-1.2387 0 .1652.0414.4542 0 .6194-.0827.1651-.2895.3716-.4136.4954-.1654.1652-.3722.3716-.579.5368-.7031.578-1.489.9909-2.3162 1.2799-1.5716.5368-3.3914.4955-5.0045.0826-1.2821-.3303-2.4402-.9496-3.3087-1.9406-.8686-.9909-1.3649-2.2708-1.5717-3.5921-.4549-2.8489.0828-6.1106 2.4402-8.0099 2.068-1.6515 5.3768-1.9818 7.817-.9909 2.9779 1.1973 3.4742 4.583 3.4742 7.3906h-7.8997c-.3722-.0413-.7445-.0413-1.1167-.0413zm-.0827-.7019c.8272-.0413 1.6544-.0826 2.5229-.1651.4963-.0413 1.034-.0413 1.5303-.0826.0827 0 .2895 0 .3723-.0413.124-.0826.0413-.9084.0413-1.0735-.0413-1.4864-.0827-3.3031-.9513-4.583-.6203-.9084-1.5716-.7432-2.1506.0826-1.1995 1.6102-1.3649 4.0049-1.3649 5.8629zm-62.6182 15.0703c0-2.3122.455-4.7069 1.7371-6.6475 1.2408-1.8992 3.226-3.1379 5.3767-3.7572 2.6057-.7432 5.5008-.6606 8.1892-.1652.579.1239 1.1581.2478 1.6957.4129.0827.0413.455.1239.4963.2065v.1238c.1241.4955.0414 1.1148.0414 1.6103.0414 1.2799.0414 2.6011.0827 3.8811-.1654 0-.4549.0413-.579 0-.0827-.0413-.1654-.2477-.2068-.3303-.3309-.4955-.6618-.9909-.9513-1.5277-.7031-1.1148-1.4476-2.2296-2.1507-3.3443-.3722-.6194-1.4062-.6194-2.0679-.6194-.7445 0-1.489.1239-2.1094.4955-1.4062.867-2.0679 2.5599-2.4402 4.0875-.579 2.436-.5376 4.9959-.4136 7.4732.1241 1.8993.2895 3.9224 1.034 5.6565.455 1.0735 1.2408 2.0232 2.4402 2.2709.3723.0826.7445.0826 1.1581.0413.2481-.0413 1.1167-.0826 1.2408-.3303.0413-.0826 0-.289 0-.3716v-.7019-4.3766-1.6928c0-.289.0827-.4129-.1655-.578-.2895-.1652-.6204-.3304-.9099-.5368-.2068-.1239-.6204-.2477-.7444-.4129-.0828-.0826-.1241-.5367-.0414-.6193.0414-.0826.0414-.0413.1654-.0413.3723-.0826.8686 0 1.2408 0h6.4107c.4136 0 .8686-.0413 1.2822 0h.1654c.0414.0413.0414.6193 0 .7019-.0827.1239-.4963.289-.6617.3716-.2896.1652-.6204.3303-.9099.5368-.3309.1651-.2896.1651-.2896.5367v6.73c0 .0826.0414.289 0 .3716-.0827.2064-.9512.3303-1.1994.4129-.7031.2064-1.4476.3716-2.192.4954-1.4476.2478-2.8952.3304-4.3428.2891-2.3161-.0826-4.7563-.5781-6.6589-1.9819-1.6543-1.1973-2.7297-3.014-3.226-4.9959-.37222-1.156-.4963-2.436-.4963-3.6746zm19.0667-3.7573c0-.0826-.0414-.4129 0-.4541.0414-.0413.0827 0 .1241-.0413.2481-.1239.579-.1239.8685-.1652.9513-.1651 1.9026-.3303 2.8952-.4955.7445-.1238 1.4889-.289 2.192-.3715.2068-.0413.455-.0413.6618.0412.2068.0413.1241 0 .1654.1652.0827.4955 0 1.0735 0 1.569v8.6292c0 1.0322-.2895 2.9315.7031 3.5508.4964.3303 1.1995.3303 1.7785.2065.4549-.0826 1.3235-.4129 1.4889-.9084.0414-.1238 0-.289 0-.4129v-.867-5.7391-2.6425-.867c0-.0826.0414-.3303 0-.4129-.124-.1239-.5376-.2477-.6617-.289-.2482-.0826-.455-.2065-.7031-.289-.0827-.0413-.3723-.0826-.4136-.1652-.0414-.0413-.0414-.4129 0-.4542.0413-.0412.0413 0 .0827-.0412.2068-.1239.579-.0826.7858-.1239 1.6958-.289 3.4329-.6606 5.17-.9084.2068-.0412.4135-.0412.6203 0 .2068.0413.1241-.0412.1655.1652.0827.4129 0 .9909 0 1.4451v11.891c0 .1239-.0414.3303 0 .4955.0413.1239 0 .0826.2068.1652.4136.1651.8685.3715 1.2821.5367.1241.0413.1655.0413.2068.1239.0414.0825.0414.3716 0 .3716-.0827.0825-.4963.0412-.579.0825-.9099.1239-1.8198.2065-2.7711.3303-.8272.0826-1.6544.2065-2.4402.2891-.1654.0413-.3309.0413-.4963 0-.0827 0-.3309 0-.3722-.0413-.0414-.0826 0-.4129 0-.4955v-.7019c0-.1239.0827-.4542 0-.578-.0828-.1239-.2482.0413-.3723.1238-.3309.2891-.7031.5781-1.0753.7845-1.3649.8258-3.0606 1.1974-4.6323.8671-1.158-.2478-2.1507-.9084-2.647-2.0232-.3722-.7844-.4549-1.6515-.4549-2.4773v-4.9133-2.8076-.9496c0-.0826.0413-.3303 0-.4129-.0828-.1239-.5791-.2477-.7032-.3303-.4135-.1652-.7444-.289-1.0753-.4542zm39.002-1.5689c.0827 0 .4549 0 .4963.0825.0413.0413 0 .3303 0 .3716v3.6334c0 .1239-.0414.3303 0 .4542v.0826c.1654.1651.2068-.3716.2481-.4129.3723-1.5277 1.0754-3.3031 2.647-3.9224.2895-.1239.5791-.1652.8686-.2065.2481 0 .9512-.0825 1.0753.1239.0414.0826 0 .289 0 .3716v4.2114c-.9926-.2064-2.1093-.1651-3.0606.0413-.4549.0826-.8685.2064-1.2821.4129-.2068.0826-.2482.0413-.2895.2064-.0414.1652 0 .4542 0 .6194v7.9686c0 .0826-.0414.2065 0 .289.0827.1239.3722.2065.4963.2478.2068.1238.4549.2477.6617.3716.0828.0412.2068.0825.2482.1651.0413.0413.0413.5368 0 .578-.0414.0413-.2895 0-.3722 0h-6.8657c-.2068 0-.5791.0826-.7445 0h-.1241c-.0413-.0412 0-.4954 0-.5367.0828-.2477.6204-.4129.8686-.5368.1654-.0825.4963-.2064.579-.3715.0414-.0826 0-.3304 0-.4129v-.8671-10.6111c0-.0413.0414-.2477 0-.289-.0413-.0413-.2481-.0826-.3309-.0826-.2481-.0826-.4963-.1651-.7444-.2064-.2482-.0826-.8686-.1239-.6618-.5368.0414-.1238.2068-.0826.3723-.1238 1.8198-.3304 3.5982-.6607 5.418-.991.1655-.0825.3309-.0825.4964-.1238zm15.5925.3716v-3.3031-.9496c0-.1239.0413-.3716 0-.4955-.0414-.0826-.2068-.1239-.3309-.1652-.3309-.1238-.6618-.2477-1.034-.3716-.2482-.0825-.3722-.0412-.3722-.3303 0-.2477-.0414-.1651.1654-.2064.455-.1652.9926-.1652 1.4476-.2477 1.3648-.2478 2.6883-.4955 4.0532-.7432.2895-.0413.579-.1239.8686-.0826.3308.0413.3722-.0413.3722.2477.0414.6606 0 1.3625 0 2.0232v18.0843c0 .1651-.0414.1651.0827.2477.2482.1652.6618.2477.9099.3303.1655.0413.6204.1239.7031.2477.0414.0413.0414.4955 0 .5368-.0413.0413-.2895.0413-.3308.0413-.5791.0826-1.1168.1651-1.6958.2064-1.2821.1652-2.5643.3303-3.8878.4955-.2068.0413-.7031.1238-.7858-.0413-.0827-.1652 0-.7019 0-.8671 0-.1238.0827-.6606 0-.7432-.0827-.0825-.9926.7432-1.1167.8258-.4963.3303-1.034.578-1.613.7432-.9099.2477-1.9439.2477-2.8538.0413-3.9705-.9084-4.7977-5.6152-4.4668-9.0422.1654-1.8167.7444-3.6333 1.9852-4.9546 1.1581-1.1973 2.7297-1.8167 4.3427-1.9405 1.2408-.1239 2.4403-.0413 3.557.4129zm0 13.171v-10.157-1.8993c0-.2477-.0414-.289-.3309-.4541-.579-.3303-1.3235-.4542-1.9439-.2065-.9513.3716-1.4062 1.4864-1.6544 2.3948-.4963 1.6515-.5377 3.4269-.4963 5.161.0414 1.4864.0827 3.3031.9099 4.6243.7445 1.1561 2.4402 1.4451 3.5156.5368zm13.6899-13.5426c.2068.0413.455-.0413.5377.1651.0414.1239 0 .4129 0 .5368v12.9232c0 .1652-.0414.4129 0 .5781.0414.1651.2068.2064.3722.289.2482.1238.455.2477.7032.3716.0827.0413.3308.1238.3722.2477 0 .0413.0413.5368 0 .578h-.1241c-.2481.0413-.579 0-.8685 0h-6.2867c-.1654 0-.6204.0826-.7444 0-.0828-.0412-.1241-.5367-.0414-.6193.0827-.1238.3722-.2064.4963-.2477.2482-.1239.4963-.289.7445-.4129.2068-.1239.1654-.0826.1654-.2477.0827-.6193 0-1.3213 0-1.9406v-3.2618-5.9455c0-.1651.0414-.4542 0-.6193-.0413-.1652-.2481-.1652-.4136-.2477-.2895-.1239-.5376-.2065-.8272-.3303-.0827-.0413-.4136-.0826-.4963-.2065-.0413-.0413-.0413-.4542 0-.4954.0414-.0413.1241 0 .1655-.0413.3308-.1239.7031-.1239 1.0753-.2065.5377-.0826 1.034-.2064 1.5717-.289 1.034-.1652 2.0266-.3716 3.0606-.5367.2068.0412.3722 0 .5376-.0413zm.5791-3.8399c-.0827 2.4773-3.4329 3.5508-4.9632 1.6103-.7031-.9084-.7444-2.147-.124-3.0966.6204-.9497 1.8198-1.3626 2.9365-1.1148 1.2408.2477 2.1507 1.3212 2.1507 2.6011zm18.1158 18.1256v-9.9505-1.8992c0-.0413.041-.2478 0-.289-.042-.0826-.29-.1239-.373-.1239l-.744-.2477c-.124-.0413-.455-.0826-.538-.2065-.082-.0826-.041-.289-.041-.4129 0-.2477.083-.2064.331-.2477l2.729-.4955 2.73-.4954c.166-.0413.29-.0826.455-.0826.083 0 .496 0 .579.0413.042.0413 0 .289 0 .3716v.7845c0 .1238-.083.4954 0 .6193.083.1652.248 0 .372-.1239.373-.289.745-.5367 1.158-.7432 1.489-.8257 3.268-1.1973 4.964-.9496 1.158.1652 2.109.7845 2.523 1.8993.289.7845.33 1.6102.33 2.436v9.4137c0 .1652-.041.4542 0 .6194.042.1651.166.2064.373.289.206.1238.455.2477.661.3716.083.0413.373.1238.414.2477.041.0826.041.4955 0 .5368-.041.0825.041 0-.083.0412-.165.0826-.537 0-.744 0h-5.915c-.248 0-1.199.1239-1.323-.0412-.041-.0413-.041-.4955 0-.5781s.289-.1651.372-.2064c.248-.1239.455-.2478.703-.3716.083-.0413.331-.1239.372-.2065.042-.0825 0-.2477 0-.3303v-.9083-2.8902-5.5739c0-.6606.042-1.4038-.372-1.9819-.331-.4954-.91-.6193-1.489-.6606-.455 0-.868.0413-1.282.1652-.207.0825-.827.2477-.951.4954-.041.0826 0 .2478 0 .3303v10.6937c0 .1239-.041.4129 0 .5368.041.1651.289.2064.413.289.207.1239.455.2477.662.3716.083.0413.248.1239.29.1651.041.0413.041.5368 0 .5781 0 .0413-.042 0-.083 0-.165.0826-.579 0-.744 0h-6.949c-.207 0-.248.0413-.289-.0826-.042-.0826-.042-.4542 0-.5367.041-.0826.289-.1652.372-.2065.413-.0413.744-.2477 1.117-.4542zm-8.769-7.597c0-1.0735.042-2.1883-.041-3.3031-.124-1.1974-.455-2.5186-1.82-2.7663-.413-.0826-1.158-.2065-1.447.1239-.29.289-.497.7019-.745 1.0322l-2.109 2.8489c-.124.1651-.248.4954-.414.578-.041.0413-.4547.0413-.4547 0-.0414-.0413 0-.3303 0-.4129v-3.3443c0-.1239-.0414-.3303 0-.4542.0827-.2065.9927-.3303 1.1997-.4129 1.158-.289 2.357-.4955 3.557-.578 1.695-.1239 3.598-.0826 5.17.6606 1.24.578 2.026 1.6102 2.233 2.9315.124.6606.083 1.4038.083 2.0644v8.2576c0 .1239-.083.4542 0 .5368.041.0413.248.0826.289.0826.331.0825.621.1651.951.2477.207.0413.249.0413.249.2477 0 .2065.041.2065-.207.289-.29.1239-.579.2478-.869.3304-1.53.4541-3.929.578-5.046-.8258-.082-.1239-.33-.6606-.455-.7019-.165-.0413-.661.6193-.827.7432-.661.578-1.53.9083-2.399 1.0322-1.613.2064-3.35-.1239-4.3423-1.5277-.8272-1.1973-.9926-3.0553-.3722-4.3766 1.1165-2.5185 4.4255-2.7663 6.8245-3.1792.289 0 .62-.0825.992-.1238zm0 6.8539v-6.1107c-1.24.0825-2.523.1651-2.977 1.5276-.331.9084-.331 1.9819-.207 2.9315.082.6606.248 1.4864.868 1.8993.662.4542 1.779.3716 2.316-.2477zm-52.3606-6.8539c0-1.0735.0413-2.1883-.0414-3.3031-.1241-1.1974-.455-2.5186-1.8198-2.7663-.4136-.0826-1.1581-.2065-1.4476.1239-.2895.289-.4963.7019-.7445 1.0322l-2.1093 2.8489c-.1241.1651-.2482.4954-.4136.578-.0414.0413-.455.0413-.455 0-.0413-.0413 0-.3303 0-.4129v-3.3031c0-.1238-.0413-.3303 0-.4541.0828-.2065.9513-.3303 1.1995-.4129 1.158-.289 2.3575-.4955 3.5155-.578 1.6958-.1239 3.5983-.0826 5.17.6606 1.2407.578 2.0266 1.6102 2.2334 2.9314.124.6607.0827 1.4038.0827 2.0645v8.2576c0 .1239-.0827.4542 0 .5368.0413.0413.2481.0826.2895.0826.3309.0825.6204.1651.9513.2477.2068.0413.2481.0413.2481.2477 0 .2065.0414.2065-.2068.289-.2895.1239-.579.2478-.8685.3303-1.5303.4542-3.9292.5781-5.0459-.8257-.0827-.1239-.3309-.6606-.4549-.7019-.1655-.0413-.6618.6193-.7859.7432-.6617.578-1.5303.9083-2.3988 1.0322-1.613.2064-3.3501-.1239-4.3427-1.5277-.8272-1.1974-.9927-3.0553-.3723-4.3766 1.1167-2.5185 4.4255-2.7663 6.783-3.1792.3308-.0413.6617-.1238 1.034-.1651zm0 6.8539v-6.1107c-1.2408.0825-2.523.1651-2.9779 1.5276-.3309.9084-.3309 1.9819-.2068 2.9315.0827.6606.2481 1.4864.8685 1.8993.6618.4542 1.7785.3716 2.3162-.2477z" fill="#121212"/></svg>