<svg fill="none" height="80" viewBox="0 0 141 80" width="141" xmlns="http://www.w3.org/2000/svg"><rect fill="#fff" height="80" rx="12" width="140.5"/><path d="m75.6844 44.7006c0 3.6487-4.5478 3.4322-4.5478 3.4322h-4.5478v-6.593h4.5478c4.6802-.0313 4.5478 3.1608 4.5478 3.1608zm-9.0956-13.2156h3.4655c3.5985.1898 3.4627 2.8646 3.4627 2.8646 0 3.3242-3.9791 3.3784-3.9791 3.3784h-2.9491zm8.2544 7.5394s3.1128-1.3243 3.0851-4.8369c0 0 .4734-5.7566-7.166-6.4587h-8.4769v24.1331h9.7166s8.1186.0242 8.1186-6.8093c-.0001 0 .1919-4.6503-5.2774-6.0282zm-21.938-16.0244h35.6895v33.5772h-35.6895zm-18.3764 21.7006c0 3.6487-4.5478 3.4322-4.5478 3.4322h-4.5481v-6.593h4.5481c4.6806-.0313 4.5478 3.1608 4.5478 3.1608zm-9.0959-13.2156h3.4662c3.5986.1898 3.4624 2.8646 3.4624 2.8646 0 3.3242-3.9788 3.3784-3.9788 3.3784h-2.9498zm8.2551 7.5394s3.1133-1.3243 3.0853-4.8369c0 0 .4731-5.7566-7.1664-6.4587h-8.4772v24.1331h9.7172s8.1185.0242 8.1185-6.8093c0 0 .1913-4.6503-5.2774-6.0282zm-21.938-16.0244h35.6895v33.5772h-35.6895zm110.72 6.4589v4.4586s-4.36-2.6745-9.177-2.7283c0 0-8.987-.1762-9.392 8.6007 0 0-.324 8.0714 9.284 8.5314 0 0 4.032.4848 9.501-2.9972v4.6175s-7.337 4.3518-15.836 1c0 0-7.1439-2.6047-7.416-11.1517 0 0-.2971-8.7909 9.231-11.709 0 0 2.545-.9725 7.117-.5403 0-.0001 2.733.2698 6.688 1.9183zm-28.4095 27.1183h35.6895v-33.5772h-35.6895z" fill="#000"/></svg>