<svg fill="none" height="80" viewBox="0 0 141 80" width="141" xmlns="http://www.w3.org/2000/svg"><rect fill="#fff" height="80" rx="12" width="140.5"/><path clip-rule="evenodd" d="m66.7244 8.54681c0-2.11948-2.0135-2.64935-3.6031-2.64935v.31792c.9537 0 1.6955.31793 1.6955 1.05974 0 .4239-.3179 1.05974-1.2716 1.05974-.7419 0-2.3315-.42389-3.4972-.84779-1.3777-.52987-2.6493-.95376-3.7091-.95376-2.1195 0-3.6031 1.58961-3.6031 3.39117 0 1.54222 1.0972 2.08692 1.5498 2.31162l.0398.0198.106-.2119c-.0257-.0258-.053-.0515-.0811-.0779-.2033-.1918-.4488-.4232-.4488-.9819 0-.4239.4239-1.1657 1.4837-1.1657.8804 0 2.0316.3612 3.5372.8335l.003.001c.1245.039.2514.0788.3808.1193 1.4836.4239 3.0732.7418 3.921.8478v3.2852l-1.5896 1.3776v.106l1.5896 1.3777v4.5568c-.8478.5299-1.8015.6359-2.6493.6359-1.5896 0-2.9673-.4239-4.133-1.6956l4.3449-2.1195v-7.3122l-5.2987 2.3314c.4239-1.3776 1.5896-2.3314 2.7554-2.9672l-.106-.318c-3.1792.8478-6.0405 3.8151-6.0405 7.4182 0 4.239 3.4971 7.4182 7.4181 7.4182 4.239 0 6.9943-3.3912 6.9943-6.8883h-.2119c-.6359 1.3777-1.5896 2.6493-2.7553 3.2852v-4.3449l1.6955-1.3777v-.106l-1.6955-1.3776v-3.2852c1.5896 0 3.1792-1.0598 3.1792-3.07329zm-9.2198 11.65719-1.2717.6358c-.7418-.9538-1.1657-2.2255-1.1657-4.027 0-.7418 0-1.5896.212-2.2255l2.2254-.9537zm11.2333 2.4374-1.3777 1.0597.212.212.6358-.5299 2.3314 2.1195 3.1793-2.1195-.106-.212-.8478.5299-1.0597-1.0597v-7.2063l.8477-.6358 1.8016 1.4836v6.4644c0 4.0271-.8478 4.6629-2.6493 5.2987v.318c2.9672.1059 5.7226-.8478 5.7226-6.0406v-6.9942l.9537-.7419-.2119-.2119-.8478.6358-2.6494-2.2254-2.9672 2.2254v-8.68984h-.212l-3.7091 2.54337v.21195c.0317.01586.0646.03172.0984.04798l.0002.0001c.4171.20101.9612.46322.9612 1.54154zm19.3932-1.1658-2.6493 2.0136-2.6494-2.1195v-1.2717l4.9808-3.3912v-.106l-2.5434-3.815-5.5106 2.9672v6.9943l-1.0598.8478.212.212.9538-.7418 3.6031 2.6493 4.7688-3.8151zm-5.2987-1.8015v-5.1927l.212-.106 2.3314 3.7091zm-43.2614 10.8146c0-.3179-.1059-.6358-.2119-.9537h-.212c-.3179.8478-.7418 1.2717-1.8015 1.2717-.9538 0-1.5896-.5299-2.0135-.9538l-3.0733 3.4971.212.212 1.0597-.9538c.6359.5299 1.1657.9538 2.6494 1.0597v8.7959l-6.2525-10.7034c-.5299-.8478-1.2717-2.0135-2.7553-2.0135-1.6956 0-3.1793 1.4836-2.9673 3.8151h.3179c.106-.6359.4239-1.3777 1.1657-1.3777.5299 0 1.0598.5299 1.3777 1.0598v3.4971c-1.9075 0-3.1792.8478-3.1792 2.4374 0 .8478.4239 2.1195 1.6956 2.4374v-.2119c-.212-.212-.318-.4239-.318-.7419 0-.5298.4239-.9537 1.1657-.9537h.5299v4.4509c-2.2254 0-4.027 1.2717-4.027 3.3912 0 2.0135 1.6956 2.9672 3.6031 2.8612v-.2119c-1.1657-.106-1.6956-.6358-1.6956-1.3777 0-.9537.6359-1.3776 1.4837-1.3776s1.5896.5298 2.1195 1.1657l3.0732-3.3912-.2119-.2119-.7419.8478c-1.1657-1.0598-1.8015-1.3777-3.1792-1.5896v-10.5975l8.4779 14.8364h.6359v-14.8364c1.5896-.1059 3.0732-1.3776 3.0732-3.1792zm7.7361 13.8826-2.6493 2.0135-2.6494-2.1194v-1.2717l4.9808-3.3912v-.106l-2.5434-3.815-5.5106 2.9672v6.9943l-1.0597.8478.2119.212.9538-.7419 3.6031 2.6494 4.7688-3.8151zm-5.2987-1.8015v-5.1928l.212-.1059 2.3314 3.7091zm22.5725-5.7226-.7418.5298-2.0135-1.6955-2.3314 2.1194.9537.9538v7.9481l-2.5433-1.5897v-6.5703l.8477-.5299-2.4374-2.3314-2.3314 2.1194.9538.9538v7.6301l-.3179.212-2.2255-1.5896v-6.3585c0-1.4457-.7044-1.8852-1.5249-2.397l-.0647-.0404c-.7418-.5298-1.1657-.8478-1.1657-1.5896 0-.5617.4963-.8753.8312-1.087.0441-.0279.0855-.054.1225-.0787v-.2119c-.8478 0-3.0732.8477-3.0732 2.8613 0 .9708.4447 1.408.9266 1.8819l.0005.0004c.044.0432.0883.0868.1326.1312.0485.0484.097.096.145.1432l.0003.0003c.4773.4685.9145.8977.9145 1.764v6.1465l-1.1657.8478.2119.2119 1.0597-.8478 2.4374 2.1195 2.6494-1.8015 2.9673 1.8015 5.6166-3.2852v-7.1002l1.3777-1.0598zm19.7112-5.8286-1.0598.9538-2.3314-2.1195-3.4971 2.5434v-2.3315h-.3179l.1059 17.1678c-.3179 0-1.2717-.2119-2.0135-.4239l-.2119-14.3065c0-1.0597-.7418-2.5433-2.6494-2.5433-1.9075 0-3.1792 1.4836-3.1792 2.9672h.3179c.106-.6358.4239-1.1657 1.0598-1.1657.6358 0 1.1657.4239 1.1657 1.8016v4.133c-1.9076.1059-3.0733 1.1657-3.0733 2.5433 0 .8478.4239 2.1195 1.6956 2.1195v-.2119c-.4239-.212-.5299-.5299-.5299-.7418 0-.6359.5299-.8478 1.3777-.8478h.4239v6.5704c-1.5896.5298-2.2255 1.6955-2.2255 2.9672 0 1.8016 1.3777 3.0733 3.4972 3.0733 1.4836 0 2.7553-.212 4.027-.5299.2078-.0415.4277-.0872.6519-.1337h.0004c.9194-.1907 1.9098-.3962 2.421-.3962.8477 0 1.1657.4239 1.1657.9538 0 .7418-.318 1.0597-.7418 1.1657v.212c1.6955-.318 2.7553-1.3777 2.7553-2.9673s-1.5896-2.5434-3.2852-2.5434c-.7654 0-2.3083.2592-3.5367.4655-.1322.0222-.2608.0438-.3844.0644-1.4836.3179-2.9672.5299-3.3911.5299-.7418 0-1.5896-.318-1.5896-1.3777 0-.8478.7418-1.5896 2.5433-1.5896.9538 0 2.1195.106 3.2852.4239.1067.0267.2127.0533.3179.0798 1.1487.2892 2.2085.556 3.1793.556 1.5896 0 2.9672-.5298 2.9672-2.7553v-13.0348l1.2717-1.0598zm-4.3449 6.4644c-.318.3179-.7419.6359-1.2717.6359-.5299 0-1.0598-.318-1.2717-.6359v-4.6628l1.0597-.7419 1.4837 1.3777zm0 3.1792c-.212-.2119-.7419-.5298-1.2717-.5298-.5299 0-1.0598.3179-1.2717.5298v-2.7553c.2119.212.7418.5299 1.2717.5299.5298 0 1.0597-.3179 1.2717-.5299zm0 4.9808c0 .8478-.5299 1.6956-1.6956 1.6956h-.8478v-6.2525c.2119-.2119.7418-.5298 1.2717-.5298.4868 0 .8842.2684 1.1922.4764.0272.0183.0537.0362.0795.0534zm14.5184-7.5241-3.3912-2.4374-5.1927 2.9672v6.8883l-1.0597.8478.1059.212.8478-.6359 3.3912 2.5434 5.2987-3.1792zm-5.7226-.9538 2.6494 1.9075v7.5242l-2.6494-1.8016zm15.79-1.2717h-.212c-.318.212-.636.4239-.954.4239-.423 0-.953-.2119-1.165-.5299h-.212l-1.802 2.0135-1.8013-2.0135-3.1793 2.1195.106.212.8478-.5299 1.0597 1.1657v6.6764l-1.3776 1.0597.2119.212.6359-.5299 2.5433 2.1195 3.2856-2.2255-.106-.2119-.954.5298-1.272-1.0597v-7.4182c.53.5299 1.166 1.0598 1.908 1.0598 1.483.1059 2.331-1.3777 2.437-3.0733zm12.717 10.1735-3.603 2.4374-4.875-7.4182 3.497-5.4046h.212c.424.4239 1.06.8477 1.802.8477s1.271-.4238 1.589-.8477h.212c-.106 2.1194-1.589 3.3911-2.649 3.3911-.8 0-1.298-.302-1.768-.5868-.152-.0925-.302-.1831-.457-.261l-.318.5299 5.298 7.8421 1.06-.6359zm-11.657-.5299-1.378 1.0598.212.2119.636-.5298 2.331 2.1194 3.18-2.1194-.212-.212-.848.5299-1.06-1.0598v-16.32h-.106l-3.815 2.5434v.212c.052.0257.106.0498.162.0747.407.1801.898.3975.898 1.5149zm-53.5674 9.3244c1.5896 0 3.6031.5299 3.6031 2.6494 0 2.0135-1.5896 3.0732-3.1792 3.0732v3.1792l1.5896 1.3777v.106l-1.6956 1.3776v4.345c1.1658-.6359 2.1195-1.9076 2.7554-3.2852h.2119c0 3.4971-2.7553 6.8883-6.9943 6.8883-3.921 0-7.4181-3.1792-7.4181-7.4182 0-3.6031 2.8613-6.4644 6.0405-7.3122l.1059.2119c-1.0597.7419-2.2254 1.6956-2.7553 3.0733l5.2987-2.3314v7.4182l-4.3449 2.1194c1.1657 1.2717 2.5434 1.6956 4.133 1.6956.8478 0 1.8015-.106 2.6493-.6358v-4.5569l-1.5896-1.3777v-.1059l1.5896-1.3777v-3.2852c-.8478-.106-2.4374-.4239-3.921-.8478-.1305-.0408-.2584-.0809-.3839-.1203-1.5055-.4723-2.6568-.8335-3.5372-.8335-1.0597 0-1.4836.7419-1.4836 1.1657 0 .6359.3179.8478.6358 1.0598l-.1059.2119c-.0127-.0063-.026-.0129-.0399-.0198-.4525-.2247-1.5497-.7694-1.5497-2.3116 0-1.8016 1.4836-3.3912 3.6031-3.3912.9708 0 2.1195.3558 3.3645.7414.1141.0353.229.0709.3446.1064 1.1657.4239 2.7553.8478 3.4971.8478.9538 0 1.2717-.6358 1.2717-1.0597 0-.7418-.7418-1.0598-1.6956-1.0598zm-6.8883 14.9424 1.2717-.6359.106-6.5704-2.2255.9538c-.2119.6358-.3179 1.4836-.3179 2.2254 0 1.8016.4239 3.0733 1.1657 4.0271zm14.0945-13.3528h.106l1.9076 2.0135v.106l-2.1195 1.8016h-.212l-1.8015-2.0135v-.106zm2.4375 16.2141.8478-.5299.1059.3179-3.1792 2.1195-2.3314-2.1195-.7419.5299-.1059-.212 1.3776-1.0597v-6.8883l-.9537-1.1657-.7418.5298-.212-.3179 3.0733-2.1195 1.9075 2.2255.7418-.6359.212.212-1.0598.7418v7.3122zm17.8036-.106.7418-.5299v.3179l-3.2852 2.2255-2.4374-2.2255.7418-.7418v-6.3584l-1.6956-1.4837-.8477.5299v6.9943l.9537.9538-2.3314 2.1194-2.4374-2.0135.8478-.8478v-6.3584l-1.5896-1.4836-.9538.6358v7.2062l.9538.9538-2.3314 2.1195-2.4375-2.0135.8478-.8478v-6.8883l-1.0597-1.1657-.7418.5298-.106-.3179 3.0733-2.1195 1.9075 2.2255 2.9673-2.2255 2.4374 2.2255 3.1792-2.2255 2.4374 2.2255.8478-.7418.2119.2119-1.0597.8478v7.2062zm7.3122-.106 2.6494-2.0135.1059.3179-4.7688 3.8151-3.7091-2.6494v-7.2062l5.5107-2.9673 2.5434 3.8151v.106l-4.9808 3.3911v1.2717zm-2.6493-9.0078v5.1927l2.5433-1.5896-2.3314-3.7091zm12.9288 2.6494 2.0135 1.5896h.106v3.815l-4.5569 2.7554c-.0245-.0246-.051-.0516-.0794-.0807-.3392-.3474-.9562-.9791-1.9341-.9791-.8478 0-1.2717.5299-1.2717.8478 0 .4526.1546.5959.3318.7602.0302.028.0612.0567.0921.0876l-.106.212c-.8478-.318-1.3776-1.0598-1.3776-2.1195 0-.8478.3179-1.9075 2.1194-3.4972l-1.8015-1.3776v-3.8151l4.7688-2.6493c.5299.6358 1.0598 1.0597 1.9075 1.0597.8478 0 1.2717-.5299 1.4837-1.0597h.2119v.6358c0 1.0597-.5298 2.6494-1.9075 3.8151zm-2.4374 1.5896c.9538-.6359 2.5434-1.9076 3.2852-3.1792-.5299.3179-.9538.4239-1.6956.4239-1.1657 0-2.3314-.8478-2.7553-1.9076v3.7091zm-1.5896 3.2852c1.2717 0 2.5434.8478 3.0732 2.0135l-.1059-3.8151-1.2717-1.0597c-1.8016 1.0597-3.1793 2.5434-3.7091 3.3911.8478-.5298 1.6956-.5298 2.0135-.5298z" fill="#000" fill-rule="evenodd"/></svg>