<svg fill="none" height="80" viewBox="0 0 141 80" width="141" xmlns="http://www.w3.org/2000/svg"><rect fill="#fff" height="80" rx="12" width="140.5"/><path d="m19.4689 28.0037.1695.1695z" fill="#4495b0"/><path d="m23.3674 28.0037.1695.1695z" fill="#8181ff"/><path d="m24.893 28.3425.1695.1695zm.5085.1695.1695.1695zm-8.475.1695.1695.1695z" fill="#4495b0"/><path d="m14.8925 29.6987.1695.1695z" fill="#8181ff"/><path d="m14.384 30.0378.1695.1695z" fill="#4495b0"/><path d="m55.064 30.7156.1695.1695z" fill="#4495b0"/><path d="m55.403 30.8853.1695.1695z" fill="#fff"/><path d="m21.1639 31.0547.1695.1695z" fill="#4495b0"/><path d="m21.6725 31.0547.1695.1695z" fill="#8181ff"/><path d="m19.6384 31.2241.1695.1695zm-.678.1695.1695.1695zm37.1206.1695.1695.1695z" fill="#fff"/><path d="m17.9434 31.7327.1695.1695z" fill="#4495b0"/><path d="m24.8929 31.7327.1695.1695z" fill="#fff"/><path d="m61.5049 31.7327.1695.1695z" fill="#8181ff"/><path d="m60.6575 32.2412.1695.1695z" fill="#fff"/><path d="m16.079 32.7498.1695.1695z" fill="#4495b0"/><path d="m26.7574 32.7498.1695.1695z" fill="#8181ff"/><path d="m60.149 32.7498.1695.1695zm-48.8161.339.1695.1695zm16.1026.1695.1695.1695z" fill="#4495b0"/><path d="m27.605 33.4275.1695.1695z" fill="#fff"/><path d="m10.994 33.5972.1695.1695zm4.068 0 .1695.1695z" fill="#8181ff"/><path d="m14.7229 33.9363.1695.1695z" fill="#fff"/><path d="m32.012 33.9363.1695.1695zm27.459 0 .1695.1695zm-31.0185.339.1695.1695z" fill="#4495b0"/><path d="m17.2655 34.6143.1695.1695zm34.917 0 .1695.1695zm.1695.1695.1695.1695zm-38.4765.1695.1695.1695zm49.833 0 .1695.1695z" fill="#8181ff"/><path d="m53.1995 35.2922.1695.1695z" fill="#fff"/><path d="m13.5364 35.4617.1695.1695z" fill="#8181ff"/><path d="m9.97693 35.6311.16947.1695z" fill="#4495b0"/><path d="m86.591 35.8008.1695.1695z" fill="#8181ff"/><path d="m88.625 35.8008.1695.1695zm8.6445 0 .1695.1695z" fill="#4495b0"/><path d="m111.169 35.8008.169.1695z" fill="#fff"/><path d="m109.982 36.1396.169.1695z" fill="#fff"/><path d="m125.576 36.3091.17.1695z" fill="#4495b0"/><path d="m130.491 36.3091.17.1695z" fill="#fff"/><path d="m130.322 36.4785.169.1695zm-61.0201.1695.1695.1695z" fill="#4495b0"/><path d="m95.066 36.6482.1695.1695z" fill="#fff"/><path d="m18.791 36.8176.1695.1695zm71.868.1695.1695.1695zm12.882.1695.169.1695z" fill="#4495b0"/><path d="m19.9775 37.3262.1695.1695z" fill="#8181ff"/><path d="m116.762 37.3262.17.1695zm-104.2425.339.1695.1695z" fill="#4495b0"/><path d="m104.049 37.8347.17.1695z" fill="#8181ff"/><path d="m124.389 37.8347.17.1695z" fill="#4495b0"/><path d="m129.135 37.8347.17.1695z" fill="#fff"/><path d="m128.966 38.0042.17.1695zm-119.66705.1695.1695.1695z" fill="#4495b0"/><path d="m15.2314 38.1736.1695.1695z" fill="#fff"/><path d="m91.337 38.1736.1695.1695z" fill="#4495b0"/><path d="m104.219 38.1736.169.1695z" fill="#8181ff"/><path d="m12.35 38.3433.1695.1695zm21.1875 0 .1695.1695z" fill="#fff"/><path d="m24.215 39.1907.1695.1695zm6.441 0 .1695.1695z" fill="#8181ff"/><path d="m72.014 39.1907.1695.1695z" fill="#fff"/><path d="m98.2865 39.1907.1695.1695z" fill="#fff"/><path d="m99.812 39.3601.1695.1695z" fill="#8181ff"/><path d="m123.203 39.3601.17.1695zm4.577 0 .169.1695z" fill="#fff"/><path d="m28.1135 39.5295.1695.1695z" fill="#4495b0"/><path d="m73.8785 39.5295.1695.1695z" fill="#fff"/><path d="m111.847 39.5295.169.1695zm-97.463.1695.1695.1695z" fill="#8181ff"/><path d="m74.048 39.6992.1695.1695z" fill="#4495b0"/><path d="m97.1 39.6992.1695.1695zm-25.9335.1695.1695.1695zm16.1025 0 .1695.1695z" fill="#fff"/><path d="m113.88 40.0381.17.1695zm8.814 0 .17.1695z" fill="#4495b0"/><path d="m16.9265 40.2075.1695.1695z" fill="#8181ff"/><path d="m26.0795 40.5466.1695.1695z" fill="#fff"/><path d="m87.608 40.5466.1695.1695z" fill="#8181ff"/><path d="m106.761 40.5466.17.1695z" fill="#fff"/><path d="m14.5535 40.7163.1695.1695z" fill="#8181ff"/><path d="m24.215 40.8857.1695.1695z" fill="#4495b0"/><path d="m126.424 40.8857.169.1695z" fill="#8181ff"/><path d="m18.9604 41.0552.1695.1695zm91.8686 0 .17.1695z" fill="#fff"/><path d="m12.1805 41.394.1695.1695zm18.4755.1695.1695.1695z" fill="#4495b0"/><path d="m17.7739 41.7332.1695.1695zm-2.5425.1695.1695.1695z" fill="#fff"/><path d="m23.5369 42.0723.1695.1695z" fill="#8181ff"/><path d="m25.2319 42.0723.1695.1695zm2.5425.1695.1695.1695zm66.4441.339.1695.1695z" fill="#fff"/><path d="m18.452 42.9197.1695.1695z" fill="#8181ff"/><path d="m24.554 43.2585.1695.1695z" fill="#fff"/><path d="m27.0965 43.4282.1695.1695zm100.5135.1695.17.1695z" fill="#4495b0"/><path d="m18.9604 43.7671.1695.1695z" fill="#fff"/><path d="m93.71 43.7671.1695.1695z" fill="#8181ff"/><path d="m98.117 43.7671.1695.1695z" fill="#4495b0"/><path clip-rule="evenodd" d="m54.2807 55.6406c-2.9427-.1137-5.8574-.2263-8.6879-.2263 0-2.8075-.1424-5.7691-.2876-8.789-.3552-7.3849-.7271-15.1188.926-21.8016.6863-2.7744 2.0307-5.3766 3.6212-7.7317 12.9678-19.20168 44.1389-8.99958 44.1476 13.7826.0014 3.5391-.5126 6.8158-1.9232 10.0848-1.5211 3.526-3.806 6.6738-6.817 9.075-3.5434 2.8258-7.6142 4.593-12.1018 5.236-6.0445.8659-12.526.6155-18.8773.3702zm15.1797-42.383c-19.2384.7027-24.8443 27.3104-7.0594 35.3281 2.8766 1.2966 5.9604 1.5743 9.0763 1.4368 2.3573-.1042 4.6308-.87 6.7233-1.9232 17.0087-8.5601 10.4166-35.5413-8.7402-34.8417zm-11.3099 12.5287c1.2304-2.6405 2.7423-5.885 4.6573-7.0038.7873-.46 1.8774-.4119 2.8498-.369.2713.0119.5335.0235.7774.0235.8622 0 1.8052-.0582 2.7778-.1182 2.2661-.1399 4.6922-.2896 6.6282.2639 1.4543.4158 2.1519 2.1449 1.3418 3.4753-1.0187 1.6728-4.0562 1.4216-6.7908 1.1954-1.5547-.1286-3.0114-.249-3.9435-.0033-1.3156.3468-2.0221 1.685-2.6488 2.872l-.0001.0001c-.1319.2499-.2603.493-.3901.7188-.1854.3226-.4196.6754-.6657 1.046-.6705 1.01-1.4292 2.1528-1.5302 3.1814-.1917 1.9515 3.0366 6.9287 4.5841 8.0077 1.5043 1.049 7.4528 1.1531 8.9139 0 1.1578-.9136 1.9871-2.6245 2.7194-4.135v-.0001c.2383-.4916.4663-.962.6921-1.3768.0437-.0804.09-.1664.1388-.2571l.0005-.0009c.9065-1.6849 2.6695-4.9617 4.8347-3.1391 1.0246.8622.8176 2.2981.3601 3.3971-1.1605 2.7868-3.4686 7.9001-5.7977 9.8354-1.1862.9856-3.6262.8097-5.5674.6697h-.0001c-.6079-.0438-1.1668-.0841-1.6231-.0841-.4893 0-1.037.0253-1.615.0519h-.0002c-2.0529.0947-4.4876.207-6.0449-.7323-1.0679-.6439-1.7898-2.1095-2.4277-3.4045v-.0001c-.2312-.4693-.4514-.9163-.673-1.2936-.3339-.5686-.7434-1.179-1.1699-1.8149-1.1207-1.6708-2.3594-3.5175-2.6575-5.2444-.1864-1.0796.4121-2.1448.9364-3.0777.054-.0961.1072-.1908.1587-.284.3616-.6542.7515-1.491 1.1747-2.3993zm9.0191.0551c-6.527 3.7292-.4274 14.3329 5.8613 10.4023 6.1729-3.8583.521-14.0488-5.8613-10.4023z" fill="#1d5797" fill-rule="evenodd"/><path clip-rule="evenodd" d="m51.6262 60.0431c-1.7953.4271-1.1133 3.1624.6862 2.7517 1.7842-.4072 1.074-3.1705-.6862-2.7517zm2.6468 3.3784h.6861c.0003-2.4877 1.4713-2.8428 3.627-2.8428v1.9606c-.7307 0-1.2281.0374-1.2744.8822h1.2744v1.7644h-1.2744v5.3914h-2.3526v-5.3914h-.6861zm-11.273-2.7448v9.9006h6.5677v-2.2546h-4.1171v-7.646zm24.4083 9.9006v-9.9006h2.3526v2.9408c1.2414-1.0167 3.2115-.7003 3.7991.8822.4711 1.2684.3746 2.9214.286 4.4391-.0336.575-.066 1.1306-.066 1.6385h-2.3526c0-.4676.0083-.9378.0167-1.4088.0172-.9699.0345-1.9433-.0209-2.9043-.0282-.4876-.2949-1.0871-.8778-1.0453-.5811.0418-.7685.6569-.783 1.1433-.028.9408-.0191 1.8848-.0102 2.8279v.0001.0001.0001c.0044.4627.0087.9251.0087 1.3869zm21.8597 0v-9.9006h2.3526v4.9013h.098c.2846-.6732 1.1827-2.1062 1.8793-2.3915.5115-.2096 1.2794-.1515 1.9598-.1001.2786.021.5425.041.7681.041l-2.49 3.0387.6087 1.2744 1.9794 3.1368c-.2281 0-.5004.0214-.7898.0442-.7083.0558-1.5187.1197-2.0321-.1033-.6154-.2673-1.2965-1.8739-1.4913-2.4896-.5963.4544-.551 1.2776-.5099 2.0218.01.1826.0198.3604.0198.5269zm-.9803-.7843c-.3264-.4634-.9974-1.3774-1.5684-1.5247-.202-.052-.3831.0228-.5655.0982-.221.0913-.4437.1833-.7074.051-.9812-.4922-.9812-2.6383 0-3.1305.2744-.1376.5244-.0422.77.0515.2626.1002.5201.1985.797.0079.3322-.2287.6263-.5472.9124-.857.1213-.1313.2412-.2611.3619-.3819-1.0763-1.492-3.8852-1.4551-5.0651-.094-1.2265 1.4148-1.2027 4.5479.1729 5.8594.7263.6923 1.6782.8248 2.6376.8009.8831-.022 1.5375-.4129 2.2546-.8808zm-37.5437.7844v-7.1559h2.3526v7.1559zm15.39-2.9407h-4.4112c.2543 1.2595 1.05 1.0174 1.8395.7772.2778-.0845.5548-.1688.8072-.1874.4219-.031 1.3521.8439 1.3521 1.2689 0 .3308-.4673.5895-.7316.7358l-.0323.018c-.8695.4835-2.0733.5655-3.0388.3607-2.178-.4619-2.8204-2.6398-2.5056-4.6396.4064-2.5819 3.5754-4.0368 5.6385-2.1384 1.0826.9961 1.0824 2.3951 1.0822 3.7517zm-4.4112-1.5686h2.0586c-.1512-1.3567-1.9647-1.3999-2.0586 0zm13.4296-2.0585v.098c.0982.0983.2044.2205.317.35.3137.3608.6769.7786 1.0553.8947.2876.0883.6305-.0065.9651-.0989.6444-.1781 1.258-.3477 1.3875.8147-.1966 0-.4006-.0071-.6081-.0143-.9095-.0316-1.8883-.0656-2.6228.4838-1.1368.8504-1.0251 2.8614.0956 3.6831.9843.7216 2.2945.5344 3.2333-.1335v.4901h2.2546c0-.493.0374-1.0509.0766-1.6347v-.0002c.1003-1.4969.2121-3.1641-.2659-4.3446-.8919-2.2034-4.4199-1.9275-5.8882-.5882zm3.7249 3.6269-.7842.0004c-1.9867.0278-.0515 1.9558.655.6753.1078-.1954.1177-.4167.1273-.6336z" fill="#1d5797" fill-rule="evenodd"/><path d="m16.418 43.9365.1695.1695zm50.511 0 .1695.1695z" fill="#4495b0"/><path d="m24.0455 44.106.1695.1695zm82.7165 0 .169.1695z" fill="#8181ff"/><path d="m127.949 44.106.169.1695z" fill="#fff"/><path d="m19.4689 44.2756.1695.1695z" fill="#8181ff"/><path d="m23.876 44.2756.1695.1695z" fill="#4495b0"/><path d="m26.4185 44.6147.1695.1695z" fill="#8181ff"/><path d="m75.404 44.6147.1695.1695zm25.086 0 .17.1695zm13.73 0 .169.1695zm.169.1695.17.1695z" fill="#4495b0"/><path d="m32.6899 44.9536.1695.1695z" fill="#8181ff"/><path d="m114.559 44.9536.169.1695z" fill="#4495b0"/><path d="m17.0959 45.123.1695.1695z" fill="#8181ff"/><path d="m97.778 45.2925.1695.1695z" fill="#8181ff"/><path d="m114.897 45.2925.17.1695z" fill="#4495b0"/><path d="m107.1 45.4622.17.1695z" fill="#fff"/><path d="m115.067 45.4622.169.1695zm.169.1695.17.1695zm-86.2751.1695.1695.1695zm64.7491 0 .1695.1695zm21.696 0 .169.1695zm.169.1695.17.1695zm13.56 0 .17.1695zm-13.39.1695.169.1695zm.169.1695.17.1695z" fill="#4495b0"/><path d="m18.791 46.4792.1695.1695z" fill="#8181ff"/><path d="m18.9604 46.4792.1695.1695zm97.1236 0 .169.1695z" fill="#4495b0"/><path d="m129.474 46.4792.17.1695z" fill="#8181ff"/><path d="m116.253 46.6487.17.1695z" fill="#4495b0"/><path d="m107.779 46.8181.169.1695z" fill="#fff"/><path d="m116.423 46.8181.169.1695zm.169.1695.17.1695zm.17.1695.169.1695z" fill="#4495b0"/><path d="m31.334 47.3267.1695.1695z" fill="#fff"/><path d="m116.592 47.4961.17.1695z" fill="#4495b0"/><path d="m125.237 47.6658.17.1695z" fill="#fff"/><path d="m26.927 47.8352.1695.1695zm-10.509.339.1695.1695zm14.238 0 .1695.1695z" fill="#8181ff"/><path d="m70.1495 48.5132.1695.1695zm.5085.1695.1695.1695zm43.223.1695.169.1695z" fill="#fff"/><path d="m19.1299 49.3606.1695.1695zm10.3395 0 .1695.1695z" fill="#8181ff"/><path d="m28.6219 50.0386.1695.1695z" fill="#fff"/><path d="m26.588 51.2251.1695.1695z" fill="#4495b0"/><path d="m26.249 51.3948.1695.1695z" fill="#8181ff"/></svg>