<svg fill="none" height="56" viewBox="0 0 56 56" width="56" xmlns="http://www.w3.org/2000/svg"><g fill="#ff4438"><path d="m6.25 35.5c0-3.3137 2.68629-6 6-6 3.3137 0 6 2.6863 6 6v7.5c0 3.3137-2.6863 6-6 6h-6z"/><path d="m22 26.5c0-3.3137 2.6863-6 6-6 3.3137 0 6 2.6863 6 6v16.5c0 3.3137-2.6863 6-6 6h-6z"/><path d="m37.75 16c0-3.3137 2.6863-6 6-6 3.3137 0 6 2.6863 6 6v27c0 3.3137-2.6863 6-6 6h-6z"/></g><path d="m28.2531 4.29406c.2254-.39208.7684-.39208.9938 0l1.8819 3.27357c.081.14086.2131.24131.3661.27841l3.5556.86205c.4258.10325.5936.64387.3071.98944l-2.3925 2.88527c-.103.1241-.1534.2866-.1399.4504l.3156 3.8064c.0378.4559-.4015.79-.804.6115l-3.3606-1.4904c-.1446-.0641-.3078-.0641-.4524 0l-3.3606 1.4904c-.4025.1785-.8418-.1556-.804-.6115l.3156-3.8064c.0135-.1638-.0369-.3263-.1399-.4504l-2.3925-2.88527c-.2865-.34557-.1187-.88619.3071-.98944l3.5556-.86205c.153-.0371.2851-.13755.3661-.27841z" fill="#ffc400"/></svg>