<svg fill="none" height="56" viewBox="0 0 56 56" width="56" xmlns="http://www.w3.org/2000/svg" xmlns:xlink="http://www.w3.org/1999/xlink"><clipPath id="a"><path d="m4 4h48v48h-48z"/></clipPath><g clip-path="url(#a)"><path d="m42.25 28c.4867-1.3502.75-2.7931.75-4.2921 0-7.5707-6.7157-13.7079-15-13.7079s-15 6.1372-15 13.7079c0 1.499.2633 2.9419.75 4.2921" stroke="#0de298" stroke-linecap="round" stroke-width="4.5"/><path d="m4.61214 35.0031c1.26453 5.9492 7.11236 9.7468 13.06146 8.4823l-4.5792-21.5438c-5.94916 1.2646-9.74679 7.1124-8.48226 13.0615z" fill="#00b3bd"/><path d="m10.4906 22.9276c-.3646-1.7157.7306-3.4022 2.4463-3.7669 1.7156-.3646 3.4021.7306 3.7668 2.4462l4.4034 20.7167c.3647 1.7156-.7305 3.4021-2.4462 3.7668-1.7157.3647-3.4021-.7305-3.7668-2.4462z" fill="#00b3bd"/><path d="m10.4906 22.9276c-.3646-1.7157.7306-3.4022 2.4463-3.7669 1.7156-.3646 3.4021.7306 3.7668 2.4462l4.4034 20.7167c.3647 1.7156-.7305 3.4021-2.4462 3.7668-1.7157.3647-3.4021-.7305-3.7668-2.4462z" fill="#000" fill-opacity=".1"/><path d="m51.3879 35.0031c-1.2646 5.9492-7.1124 9.7468-13.0615 8.4823l4.5792-21.5438c5.9492 1.2646 9.7468 7.1124 8.4823 13.0615z" fill="#00b3bd"/><path d="m45.5094 22.9276c.3646-1.7157-.7306-3.4022-2.4463-3.7669-1.7156-.3646-3.4021.7306-3.7668 2.4462l-4.4034 20.7167c-.3647 1.7156.7305 3.4021 2.4462 3.7668 1.7157.3647 3.4021-.7305 3.7668-2.4462z" fill="#00b3bd"/><path d="m45.5094 22.9276c.3646-1.7157-.7306-3.4022-2.4463-3.7669-1.7156-.3646-3.4021.7306-3.7668 2.4462l-4.4034 20.7167c-.3647 1.7156.7305 3.4021 2.4462 3.7668 1.7157.3647 3.4021-.7305 3.7668-2.4462z" fill="#000" fill-opacity=".1"/><g fill="#0de298"><path d="m26.5 25c0-.8284.6716-1.5 1.5-1.5.8284 0 1.5.6716 1.5 1.5v10.5c0 .8284-.6716 1.5-1.5 1.5-.8284 0-1.5-.6716-1.5-1.5z"/><rect height="7.5" rx="1.5" width="3" x="31.75" y="27.25"/><rect height="7.5" rx="1.5" width="3" x="21.25" y="27.25"/></g></g></svg>