<svg fill="none" height="56" viewBox="0 0 56 56" width="56" xmlns="http://www.w3.org/2000/svg"><path clip-rule="evenodd" d="m25.2902 45.5831 4.2723-7.3999-11.5572-6.6726-4.272 7.3994c1.4198 1.7016 3.158 3.1866 5.189 4.3592 2.0304 1.1723 4.185 1.935 6.3679 2.3139zm-1.6112 2.7374c-2.1442-.4847-4.2528-1.2963-6.2567-2.4532-2.0045-1.1573-3.762-2.578-5.2542-4.1932-1.4396 3.0997-.2974 6.8408 2.7191 8.5824 3.0163 1.7415 6.8271.8603 8.7918-1.936z" fill="#00b3bd" fill-rule="evenodd"/><path clip-rule="evenodd" d="m11.8347 16.8183c5.3471-9.26144 17.1896-12.43462 26.451-7.08756s12.4346 17.18956 7.0875 26.45096c-5.347 9.2614-17.1895 12.4346-26.4509 7.0875-9.26143-5.3471-12.43462-17.1895-7.0876-26.4509z" fill="#0de298" fill-rule="evenodd"/><g fill="#fff"><path d="m31.582 11.3576c.104 12.474-9.9115 13.0328-12.7266 12.948 2.7897.2674 12.6328 1.9852 12.5494 13.0368.0766-11.2303 11.285-12.7105 13.1807-12.8758-.177-.0012-.4344-.0031-.7481-.0053-3.1415-.0018-12.4057-1.0821-12.2554-13.1037z"/><path d="m38.4242 10.0631c.0357 4.283-3.4032 4.4749-4.3698 4.4458.9579.0918 4.3376.6816 4.3089 4.4762.0263-3.856 3.8748-4.3642 4.5257-4.421-.0608-.0004-.1492-.001-.2569-.0018-1.0786-.0006-4.2596-.3715-4.2079-4.4992z"/></g></svg>