<svg fill="none" height="56" viewBox="0 0 56 56" width="56" xmlns="http://www.w3.org/2000/svg"><path clip-rule="evenodd" d="m48.9346 38.5c1.9405-3.0309 3.0655-6.6341 3.0655-10.5 0-10.7696-8.7304-19.5-19.5-19.5-9.7728 0-17.8665 7.1892-19.281 16.5676.4209-.0447.8483-.0676 1.281-.0676 6.6274 0 12 5.3726 12 12 0 3.1633-1.224 6.0408-3.2243 8.1846 2.7463 1.4773 5.8874 2.3154 9.2243 2.3154 3.8223 0 7.3877-1.0997 10.3971-3l7.6029 1.5zm-35.9341-10.3756c.0392 6.2834 3.0503 11.8619 7.6984 15.4005 1.7255-1.6397 2.8012-3.9567 2.8012-6.5249 0-4.9706-4.0294-9-9-9-.5109 0-1.0119.0426-1.4996.1244z" fill="#00b3bd" fill-rule="evenodd"/><path d="m41.5 28c0 4.9706-4.0294 9-9 9s-9-4.0294-9-9 4.0294-9 9-9 9 4.0294 9 9z" fill="#fff"/><path clip-rule="evenodd" d="m23.5 37c0-4.9706-4.0294-9-9-9-4.97056 0-9 4.0294-9 9 0 1.7865.519 3.4473 1.41391 4.8451l.33021.5157-.50546 2.4216 2.45868-.485.50512.3189c1.38784.8763 3.03114 1.3837 4.79754 1.3837 4.9706 0 9-4.0294 9-9z" fill="#0de298" fill-rule="evenodd"/></svg>