<svg fill="none" height="56" viewBox="0 0 56 56" width="56" xmlns="http://www.w3.org/2000/svg"><g clip-rule="evenodd" fill-rule="evenodd"><path d="m13.3245 40.5273 14.694 2.591c9.1781 1.6184 17.9305-4.5101 19.5488-13.6882l.2901-1.6452c.2211-1.2541.3208-2.5015.3075-3.7302.7748 1.8387 1.2805 3.8277 1.4638 5.9223l1.7583 20.0985-8.8738-3.4171-13.6523 1.1944c-6.3381.5545-12.1689-2.4344-15.5364-7.3255z" fill="#ffc400"/><path d="m8.98035 21.9938c1.73995-9.8678 11.14985-16.45661 21.01755-14.71666l1.0384.18309c9.2978 1.63947 15.5062 10.50597 13.8667 19.80377l-.2901 1.6451c-1.3306 7.5465-8.527 12.5854-16.0734 11.2548l-15.4832-2.7301-7.16201 2.0619z" fill="#0de298"/><path d="m26.4376 14.441c-.9218-.3037-1.9527.1521-2.2803 1.0758l-.9427 2.6582-2.7766-.243c-.9695-.0848-1.8638.5975-1.9498 1.5799-.0859.9824.6763 1.8096 1.6459 1.8944l1.8764.1642-1.5926 4.4906-2.7781-.243c-.9696-.0849-1.8639.5974-1.9498 1.5798-.086.9824.6763 1.8096 1.6458 1.8944l1.8779.1643-.6499 1.8328c-.3312.9339.2053 1.9193 1.1338 2.2252.9217.3038 1.9527-.1521 2.2803-1.0758l.9425-2.6579 4.6581.4075-.65 1.8328c-.3312.9339.2054 1.9193 1.1338 2.2252.9218.3038 1.9527-.1521 2.2803-1.0758l.9426-2.6579 2.777.243c.9695.0848 1.8639-.5975 1.9498-1.5799.0859-.9823-.6763-1.8095-1.6458-1.8944l-1.8769-.1642 1.5926-4.4906 2.7786.2431c.9695.0848 1.8638-.5975 1.9498-1.5799.0859-.9823-.6763-1.8096-1.6459-1.8944l-1.8783-.1643.65-1.833c.3312-.9339-.2053-1.9193-1.1338-2.2253-.9217-.3037-1.9527.1522-2.2802 1.0759l-.9427 2.6581-4.6581-.4075.6501-1.833c.3312-.9339-.2053-1.9193-1.1338-2.2253zm-2.313 11.9444 1.5926-4.4906 4.658.4075-1.5925 4.4906z" fill="#fff"/></g></svg>