<svg fill="none" height="40" viewBox="0 0 40 40" width="40" xmlns="http://www.w3.org/2000/svg" xmlns:xlink="http://www.w3.org/1999/xlink"><clipPath id="a"><path d="m0 0h40v40h-40z"/></clipPath><g clip-path="url(#a)"><path d="m0 0h40v40h-40z" fill="#ff4338"/><path d="m31.6523 19.6983h-10.8046v-4.727l.6752-.6753h9.4541l.6753.6753z" fill="#ffc400"/><path d="m36.3778 26.4512h-20.2587v-4.727l.6753-.6753h18.9081l.6753.6753z" fill="#ffc400"/><path d="m41.1052 33.2042h-29.7126v-4.727l.6753-.6753h28.362l.6753.6753z" fill="#ffc400"/><path d="m44.4811 34.5546h-36.46548v6.7529h36.46548z" fill="#ffc400"/><g fill="#ff7b73"><path d="m12.0683 28.477h-.6753c-1.1184-.0017-2.02412-.9075-2.02581-2.0259h1.35061c0 .3731.3022.6753.6752.6753h.6753z"/><path d="m36.7847 21.8593h-.6753v-1.3506h.6753c.3731 0 .6752-.3022.6752-.6753h1.3506c-.0017 1.1184-.9074 2.0242-2.0258 2.0259z"/><path d="m17.2011 21.8593h-.6752c-1.1185-.0017-2.0242-.9075-2.0259-2.0259h1.3506c0 .3731.3022.6753.6753.6753h.6752z"/><path d="m21.5234 14.9711h-.6753c-1.1184-.0017-2.0241-.9075-2.0258-2.0259h1.3505c0 .3731.3022.6753.6753.6753h.6753z"/><path d="m31.6519 14.9711h-.6753v-1.3506h.6753c.373 0 .6752-.3022.6752-.6753h1.3506c-.0017 1.1184-.9074 2.0242-2.0258 2.0259z"/></g><path d="m26.9248 19.0229v-1.3506c0-.3729-.3023-.6752-.6753-.6752-.3729 0-.6753.3023-.6753.6752v1.3506z" fill="#fff"/><path d="m35.7039 21.724h-18.908c-.7462 0-1.3506-.6044-1.3506-1.3506l5.4023-1.3505h10.8046l5.4023 1.3505c0 .7462-.6044 1.3506-1.3506 1.3506z" fill="#ff655c"/><path d="m26.9248 25.7759v-1.3506c0-.373-.3023-.6753-.6753-.6753-.3729 0-.6753.3023-.6753.6753v1.3506z" fill="#fff"/><path d="m22.1982 25.7759v-1.3506c0-.373-.3023-.6753-.6753-.6753-.3729 0-.6752.3023-.6752.6753v1.3506z" fill="#fff"/><path d="m31.6514 25.7759v-1.3506c0-.373-.3024-.6753-.6753-.6753-.373 0-.6753.3023-.6753.6753v1.3506z" fill="#fff"/><path d="m40.4294 28.477h-28.362c-.7462 0-1.3506-.6044-1.3506-1.3506l5.4023-1.3506h20.2586l5.4023 1.3506c0 .7462-.6044 1.3506-1.3506 1.3506z" fill="#ff655c"/><path d="m26.9248 32.5288v-1.3506c0-.3729-.3023-.6752-.6753-.6752-.3729 0-.6753.3023-.6753.6752v1.3506z" fill="#fff"/><path d="m18.8213 32.5288v-1.3506c0-.3729-.3024-.6752-.6753-.6752-.373 0-.6753.3023-.6753.6752v1.3506z" fill="#fff"/><path d="m35.0283 30.503h-1.3506v2.0258h1.3506z" fill="#fff"/><path d="m44.4821 35.2299h-36.46551c-.74619 0-1.35057-.6044-1.35057-1.3506l4.72698-1.3505h29.7127l4.727 1.3505c0 .7462-.6044 1.3506-1.3506 1.3506z" fill="#ff655c"/><path d="m26.249 37.9309c.7462 0 1.3506.6044 1.3506 1.3506v1.3506h-2.7012v-1.3506c0-.7462.6044-1.3506 1.3506-1.3506z" fill="#fff"/><path d="m12.7432 37.9309c.7461 0 1.3505.6044 1.3505 1.3506v1.3506h-2.7011v-1.3506c0-.7462.6044-1.3506 1.3506-1.3506z" fill="#fff"/><path d="m19.4971 37.9309c.7462 0 1.3505.6044 1.3505 1.3506v1.3506h-2.7011v-1.3506c0-.7462.6044-1.3506 1.3506-1.3506z" fill="#fff"/><path d="m33.0029 37.9309c.7462 0 1.3506.6044 1.3506 1.3506v1.3506h-2.7012v-1.3506c0-.7462.6044-1.3506 1.3506-1.3506z" fill="#fff"/><path d="m39.7549 37.9309c.7462 0 1.3505.6044 1.3505 1.3506v1.3506h-2.7011v-1.3506c0-.7462.6044-1.3506 1.3506-1.3506z" fill="#fff"/><path d="m25.5747 8.8938h1.3506c1.1184 0 2.0258.90742 2.0258 2.0259 0 1.1184-.9074 2.0258-2.0258 2.0258h-1.3506c-1.1185 0-2.0259-.9074-2.0259-2.0258 0-1.11848.9074-2.0259 2.0259-2.0259z" fill="#ffc400"/><path d="m26.526 4.35171c-.168-.11204-.3869-.11204-.5549 0l-.6958.46408c-.6576.43809-1.0526 1.17585-1.0526 1.96678v.76054h4.0517v-.76054c0-.79009-.3951-1.52869-1.0526-1.96678z" fill="#ffc400"/><path d="m24.8994 6.86775h2.7012c.7461 0 1.3505.60438 1.3505 1.35058 0 .74619-.6044 1.35057-1.3505 1.35057h-2.7012c-.7462 0-1.3506-.60438-1.3506-1.35057 0-.7462.6044-1.35058 1.3506-1.35058z" fill="#ff7b73"/><path d="m30.9765 14.9713h-9.4541c-.7461 0-1.3505-.6044-1.3505-1.3506l4.0517-1.3505h4.0517l4.0517 1.3505c0 .7462-.6043 1.3506-1.3505 1.3506z" fill="#ff655c"/><path d="m6.11564 4.64653c.03044-.09105.15923-.09105.18968 0l1.16383 3.48072c.01364.04079.05183.06829.09484.06829h3.68551c.0969 0 .1371.12401.0587.18093l-2.97695 2.16093c-.03496.0254-.04967.0703-.03648.1115l1.13734 3.548c.02944.0918-.07535.168-.15363.1117l-3.0096-2.1653c-.03489-.0251-.08191-.0251-.1168 0l-3.00922 2.165c-.07832.0563-.18315-.02-.15359-.1118l1.13674-3.5328c.01326-.0412-.0015-.0863-.03656-.1117l-3.00541-2.17545c-.07854-.05686-.03832-.18101.05864-.18101h3.71424c.04301 0 .0812-.0275.09484-.06829z" fill="#ffd138"/><path d="m12.4766 1.88943c.0643-.0714.1824-.01991.1739.07578l-.0872.97799c-.0038.04303.0204.08366.0601.10073l.9009.38767c.089.03831.0769.1682-.0176.18943l-.9594.21537c-.042.00942-.0733.04464-.0776.08745l-.1013.99502c-.0097.09582-.136.12383-.1853.04112l-.5077-.85094c-.0221-.03698-.0654-.05568-.1074-.04643l-.9708.21364c-.0944.02078-.1604-.09116-.0965-.16372l.6576-.74735c.0286-.03252.033-.07978.0109-.11705l-.5038-.84994c-.0494-.08329.0366-.18112.1256-.14285l.9116.39232c.0393.01695.0851.00691.1138-.02495z" fill="#ffd138"/><path d="m16.8298 5.98043c.0873-.04064.1759.05331.1303.13804l-.4654.8648c-.0206.03814-.0142.08517.0157.11648l.6757.70701c.0669.07001.0052.18474-.0901.16749l-.9689-.1754c-.0421-.00764-.0845.01244-.1053.04991l-.4861.87697c-.0467.08422-.1738.06025-.1866-.0352l-.1313-.9795c-.0058-.04285-.0384-.07715-.0809-.08503l-.9761-.18092c-.0951-.01764-.1122-.14664-.025-.18849l.9-.43177c.0389-.01869.0615-.0603.0559-.10316l-.1284-.97922c-.0126-.09584.1047-.15197.1715-.08209l.6844.71609c.0296.03099.0757.03965.1145.02155z" fill="#ffd138"/><path d="m14.1607 12.4418c-.0797-.0542-.0442-.1787.0521-.1826l.9876-.0403c.043-.0017.08-.0308.092-.0721l.2717-.9396c.0268-.0927.1564-.0974.1898-.0069l.3396.9192c.0148.0402.0537.0665.0966.0653l1.0059-.0286c.0966-.0027.1405.1196.0642.1789l-.7815.6077c-.0343.0267-.0475.0724-.0326.1132l.338.9271c.033.0907-.0688.1709-.1493.1176l-.8337-.553c-.0357-.0237-.0825-.022-.1164.0042l-.7861.6075c-.0765.0592-.1841-.014-.1572-.1069l.2736-.9465c.0121-.0416-.004-.0862-.0398-.1105z" fill="#ffd138"/><path d="m13.5594 16.511c.09.0348.0834.1642-.0095.1897l-.9519.2617c-.0416.0114-.0712.0482-.0734.0913l-.0498.9757c-.0049.0964-.1301.1305-.1833.05l-.5409-.819c-.0236-.0357-.0673-.0525-.1087-.0416l-.9739.2547c-.0935.0245-.1638-.0846-.103-.1597l.6223-.768c.0274-.0338.0298-.0814.006-.1177l-.5408-.8263c-.0529-.0808.0282-.1822.1187-.1484l.9378.3505c.0402.015.0854.0027.1125-.0305l.6269-.7691c.0611-.0749.1823-.0282.1774.0683l-.0503.9844c-.0022.0431.0235.0828.0638.0983z" fill="#ffd138"/></g></svg>