<svg fill="none" height="40" viewBox="0 0 40 40" width="40" xmlns="http://www.w3.org/2000/svg"><path d="m0 0h40v40h-40z" fill="#00b3bd"/><path d="m24.7536 9.42032h-9.5798v2.39498h9.5798z" fill="#fff"/><path d="m24.7536 9.42039h-9.5798l2.395-2.39494h4.7898z" fill="#ff4338"/><path d="m22.3582 5.22409h-4.7898v1.80132h4.7898z" fill="#fff"/><path d="m22.3582 5.22406h-4.7898l.6546-1.19747 1.3013-2.38768c.1894-.34764.6886-.34764.878 0l1.3013 2.38768z" fill="#ff4338"/><path clip-rule="evenodd" d="m13.6973 11.6747h12.5236c1.1046 0 2 .8954 2 2v1.5283h.9144c2.2092 0 4 1.7908 4 4v14.4525c0 2.2091-1.7908 4-4 4h-2.5861v2.3445h-13.4716v-2.3445h-2.2866c-2.20912 0-3.99998-1.7909-3.99998-4v-14.4525c0-2.2092 1.79086-4 3.99998-4h.9063v-1.5283c0-1.1046.8954-2 2-2z" fill="#80d9de" fill-rule="evenodd"/><path clip-rule="evenodd" d="m16.0488 14.3718c0-.432.3503-.7823.7823-.7823s.7822.3503.7822.7823v1.1734h-1.5645zm3.1289 0c0-.432.3503-.7823.7823-.7823s.7822.3503.7822.7823v1.1734h-1.5645zm3.9112-.7823c-.432 0-.7823.3503-.7823.7823v1.1734h1.5645v-1.1734c0-.432-.3502-.7823-.7822-.7823z" fill="#fff" fill-rule="evenodd"/><path clip-rule="evenodd" d="m19.3652 38.5h1.1975v1.4998h-1.1975zm-2.9941.0001h1.1975v1.4998h-1.1975zm7.1857-.0001h-1.1974v1.4998h1.1974z" fill="#fff" fill-rule="evenodd" opacity=".5"/><path d="m20.1782 37.3556c5.6212 0 10.1782-4.5569 10.1782-10.1781 0-5.6213-4.557-10.1782-10.1782-10.1782-5.6213 0-10.1782 4.5569-10.1782 10.1782 0 5.6212 4.5569 10.1781 10.1782 10.1781z" fill="#40c6cd"/><g clip-rule="evenodd" fill-rule="evenodd"><path d="m26.6154 22.4978-11.3143 10.9764c-.6534-.4752-1.2321-1.047-1.7152-1.6943l11.3878-11.0476c.6319.502 1.1861 1.0974 1.6417 1.7655z" fill="#fff"/><path d="m26.2684 22.0269-11.4276 11.0862c-.3189-.2695-.6164-.5635-.8896-.8791l11.4654-11.1229c.307.2825.592.5887.8518.9158z" fill="#ff4338"/><path d="m13.5857 22.4978 11.3144 10.9764c.6534-.4752 1.2321-1.047 1.7151-1.6943l-11.3877-11.0476c-.6319.502-1.1861 1.0974-1.6418 1.7655z" fill="#fff"/><path d="m13.9328 22.0269 11.4275 11.0862c.3189-.2695.6165-.5635.8897-.8791l-11.4654-11.1229c-.3071.2825-.592.5887-.8518.9158z" fill="#ff4338"/><path d="m28.5592 30.2021h-5.333v5.3473c-.9505.346-1.9765.5347-3.0466.5347-1.1407 0-2.2314-.2145-3.2338-.6053v-5.2767h-5.1458c-.3408-.9442-.5266-1.9625-.5266-3.0242 0-1.0618.1859-2.0803.5268-3.0246h5.1456v-5.2763c1.0024-.3908 2.0931-.6053 3.2338-.6053 1.0701 0 2.0961.1887 3.0466.5347v5.3469h5.3328c.341.9443.5268 1.9628.5268 3.0246 0 1.0617-.1858 2.08-.5266 3.0242z" fill="#fff"/><path d="m28.8218 29.339c.1724-.692.264-1.4159.264-2.1612 0-.7454-.0916-1.4693-.2641-2.1613h-6.5084v-6.4877c-.6836-.1681-1.3982-.2572-2.1337-.2572-.8029 0-1.5809.1062-2.3209.3054v6.4395h-6.3212c-.1725.692-.2641 1.4159-.2641 2.1613 0 .7453.0916 1.4692.2641 2.1612h6.3212v6.4396c.74.1991 1.518.3053 2.3209.3053.7358 0 1.4506-.0892 2.1345-.2573v-6.4876z" fill="#ff4338"/><path d="m20.1796 34.084c3.8142 0 6.9062-3.092 6.9062-6.9062s-3.092-6.9062-6.9062-6.9062-6.9062 3.092-6.9062 6.9062 3.092 6.9062 6.9062 6.9062zm8.9062-6.9062c0 4.9187-3.9874 8.9062-8.9062 8.9062-4.9187 0-8.9062-3.9875-8.9062-8.9062 0-4.9188 3.9875-8.9062 8.9062-8.9062 4.9188 0 8.9062 3.9874 8.9062 8.9062z" fill="#fff"/></g></svg>