<svg fill="none" height="40" viewBox="0 0 40 40" width="40" xmlns="http://www.w3.org/2000/svg" xmlns:xlink="http://www.w3.org/1999/xlink"><clipPath id="a"><path d="m0 0h40v40h-40z"/></clipPath><clipPath id="b"><path d="m8.75 5.83334h22.5v11.25h-22.5z"/></clipPath><g clip-path="url(#a)"><path d="m0 0h40v40h-40z" fill="#ffc400"/><path d="m-1.3607 13.6848c-2.13948 0-3.87368 1.7956-3.87368 4.0108 0 .2167.01684.4297.04931.6376h7.64873c.03247-.2079.04931-.4209.04931-.6376 0-2.2152-1.734196-4.0108-3.87367-4.0108z" fill="#fff"/><path d="m41.3594 13.6848c-2.1391 0-3.8731 1.7956-3.8731 4.0108 0 .2167.0169.4297.0493.6376h7.6488c.0324-.2079.0493-.4209.0493-.6376-.0012-2.2152-1.7352-4.0108-3.8743-4.0108z" fill="#fff"/><path d="m2.73302 18.5546h-8.19005v11.5103h8.19005z" fill="#ff4338"/><path d="m-1.40649 22.5397c-.78792.0242-1.39429.7265-1.39429 1.5318v2.6732h2.8775824v-2.7338c-.0011866-.8296-.6680744-1.4967-1.4832924-1.4712z" fill="#ffc400"/><path d="m3.39707 18.3332c0-.4887-.40117-.8854-.89546-.8854h-7.72724c-.4943 0-.89546.3967-.89546.8854 0 .4888.40116.8855.89546.8855h7.72604c.49549 0 .89666-.3967.89666-.8855z" fill="#ff7b73"/><path d="m45.4537 18.5546h-8.19v11.5103h8.19z" fill="#ff4338"/><path d="m41.3142 22.5397c-.7879.0242-1.3943.7265-1.3943 1.5318v2.6732h2.8776v-2.7338c-.0012-.8296-.6693-1.4967-1.4833-1.4712z" fill="#ffc400"/><g fill="#ff655c"><path d="m13.3597 26.7446h-3.54357c-.24359 0-.44113.1888-.44113.4215v2.8988h4.4271v-2.8976c-.0013-.2339-.1988-.4227-.4424-.4227z"/><path d="m29.9609 51.0934h7.3417c.2861-.1914.5685-.3889.8484-.59v-20.4385h-8.1901z"/><path d="m38.1504 50.4293c3.2552-2.3308 6.0411-5.2678 8.19-8.6445v-11.7199h-8.19z"/><path d="m-6.3418 41.7854c2.14897 3.3764 4.93481 6.3132 8.19005 8.6439v-20.3644h-8.19005z"/><path d="m1.84766 50.5034c.27992.2011.5623.3974.84834.59h7.3417v-21.0285h-8.19004z"/><path d="m13.136 30.0649h-3.0989v21.0285h3.0989z"/><path d="m29.959 30.0649h-3.3203v21.0285h3.3203z"/></g><path d="m21.4824 3.31372c0-.26642-.216-.48305-.483-.48305h-2.0163c-.2671 0-.4831.21598-.4831.48305s.216.48306.4831.48306h2.0169c.2664-.00065.4824-.21663.4824-.48306z" fill="#fff"/><path d="m20.4739 2.14973v4.03388c0 .26643-.216.48306-.483.48306-.2671 0-.4831-.21598-.4831-.48306v-4.03388c.0007-.26707.2166-.48306.4831-.48306.267 0 .483.21599.483.48306z" fill="#fff"/><path d="m20.8651 6.13641v-.91503c0-.21404-.1733-.38735-.3873-.38735h-.9713c-.2141 0-.3874.17331-.3874.38735v.91503z" fill="#fff"/><g clip-path="url(#b)"><path d="m24.8125 16.9784h-9.4512c.0298-1.174.1832-4.427.9713-6.8168.671-2.03497 1.9171-3.47561 2.6349-4.17913.3217-.0294.6497-.0441.9799-.0441.4366 0 .8669.0252 1.2908.0735.72.71402 1.9426 2.14416 2.6051 4.14973.786 2.3877.9394 5.6428.9692 6.8168z" fill="#ff655c"/><path d="m18.9658 5.98251c-.7157.70561-1.9639 2.14625-2.6349 4.17909-.7881 2.3878-.9415 5.6429-.9713 6.8168h-6.6096c0-5.7731 4.4902-10.50868 10.2158-10.99589z" fill="#407bff"/><g fill="#ff4338"><path d="m18.9658 5.98251c-.7157.70561-1.9639 2.14625-2.6349 4.17909-.7881 2.3878-.9415 5.6429-.9713 6.8168h-6.6096c0-5.7731 4.4902-10.50868 10.2158-10.99589z"/><path d="m31.1431 16.9784h-6.3305c-.0299-1.174-.1832-4.427-.9714-6.8168-.6624-2.00767-1.8851-3.43571-2.6029-4.14973 5.5744.63002 9.9048 5.29843 9.9048 10.96653z"/></g></g><path d="m31.2896 17.2265h-22.79937v12.8384h22.79937z" fill="#ff4338"/><path d="m11.5506 20.2538c-.4978.0145-.8826.4492-.8826.9482v2.9685c0 .1384.1129.2513.2513.2513h1.2445c.1796 0 .3253-.1457.3253-.3254v-2.932c0-.5124-.4225-.9252-.9385-.9106z" fill="#fff"/><path d="m19.9276 18.6147c-.4978.0145-.8827.4492-.8827.9482v2.9685c0 .1384.1129.2513.2513.2513h1.2445c.1797 0 .3254-.1457.3254-.3254v-2.932c0-.5124-.4225-.9252-.9385-.9106z" fill="#fff"/><path d="m12.4505 23.203h-1.7239c-.3799 0-.6875.3245-.6875.7253v5.4114c0 .4007.3076.7253.6875.7253h1.7239c.3799 0 .6875-.3246.6875-.7253v-5.4114c0-.3996-.3076-.7253-.6875-.7253z" fill="#ff655c"/><path d="m28.3836 20.3258c-.4852.0147-.8582.4532-.8582.9567v2.9951c0 .1396.1098.2535.2444.2535h1.21c.1747 0 .3164-.147.3164-.3283v-2.9583c0-.5169-.4108-.9334-.9126-.9187z" fill="#fff"/><path d="m29.2442 23.2683h-1.8236c-.4019 0-.7272.3254-.7272.7273v5.4259c0 .4018.3253.7272.7272.7272h1.8236c.4019 0 .7273-.3254.7273-.7272v-5.4259c0-.4007-.3254-.7273-.7273-.7273z" fill="#ff655c"/><path d="m22.2129 23.203h-4.4258v3.3214.735 2.8056h4.4271v-2.8056-.735-3.3214z" fill="#ff655c"/><path d="m20.909 21.6535h-1.8179l-1.304 1.5495h4.4271z" fill="#ff655c"/><path d="m33.7231 16.5625c0-.4887-.4081-.8854-.9109-.8854h-25.62593c-.50281 0-.91088.3967-.91088.8854s.40807.8854.91088.8854h25.62593c.5028 0 .9109-.3967.9109-.8854z" fill="#fff"/><path d="m30.182 26.7446h-3.5436c-.2436 0-.4411.1888-.4411.4215v2.8988h4.427v-2.8976c0-.2339-.1987-.4227-.4423-.4227z" fill="#ff655c"/><path d="m26.6392 30.0649h-13.5025v21.0285h13.5025z" fill="#ff4338"/><path d="m47.4203 30.9503h-54.84227c-.50343 0-.91201-.3966-.91201-.8854 0-.4887.40858-.8854.91201-.8854h54.84227c.5034 0 .912.3967.912.8854 0 .4888-.4086.8854-.912.8854z" fill="#ff7b73"/><path d="m46.1184 18.3332c0-.4887-.4105-.8854-.9164-.8854h-7.9067c-.5058 0-.9164.3967-.9164.8854 0 .4888.4106.8855.9164.8855h7.9067c.5059 0 .9164-.3967.9164-.8855z" fill="#ff7b73"/><path d="m19.9986 36.4321c-2.5671 0-4.649 2.0656-4.649 4.6155v10.8792h9.2968v-10.8792c.0012-2.5487-2.0806-4.6155-4.6478-4.6155z" fill="#ff655c"/><path d="m19.998 38.2029c-1.4669 0-2.6562 1.2201-2.6562 2.725v4.5746 1.8497 4.5746h5.3125v-4.5746-1.8497-4.5746c0-1.5049-1.1893-2.725-2.6563-2.725z" fill="#fff"/><path d="m4.47609 33.901c-1.70107-.2709-2.86606-1.8772-2.59517-3.5783l1.04564-6.5599 6.17349.9831-1.04565 6.56c-.27088 1.701-1.87724 2.866-3.57831 2.5951z" fill="#ffc400"/><path d="m2.16602 28.718c.31445 1.2862 1.36957 2.3224 2.75997 2.544 1.38852.2216 2.71452-.4357 3.41351-1.5609l.71983-4.5065-6.17349-.9831z" fill="#ff4338"/><path d="m2.62109 25.672c.31446 1.2862 1.36957 2.3224 2.75998 2.544 1.38852.2217 2.71452-.4357 3.41351-1.5609l.30498-1.9113-6.17349-.9831z" fill="#000"/><path d="m15.0985 35.1055c-1.72-.0928-3.0441-1.5685-2.9513-3.2904l.358-6.6338 6.2417.3372-.358 6.6338c-.0948 1.7219-1.5704 3.046-3.2904 2.9532z" fill="#ffc400"/><path d="m12.2637 30.1898c.4451 1.2465 1.6044 2.1671 3.0081 2.2429 1.4056.0757 2.6558-.7142 3.2336-1.9057l.2481-4.5576-6.2417-.3372z" fill="#ff4338"/><path d="m12.4023 27.1135c.4452 1.2464 1.6045 2.167 3.0082 2.2428 1.4055.0758 2.6558-.7141 3.2335-1.9057l.1042-1.9321-6.2417-.3372z" fill="#000"/><path d="m25.1994 35.0752c-1.72.1023-3.2033-1.2123-3.3075-2.9324l-.3978-6.6319 6.2398-.3731.3978 6.6319c.1042 1.72-1.2104 3.2032-2.9323 3.3055z" fill="#ffc400"/><path d="m21.8255 30.5139c.5835 1.1877 1.8394 1.972 3.243 1.8867 1.4037-.0833 2.5573-1.0115 2.9949-2.2618l-.2709-4.5557-6.2398.3732z" fill="#ff4338"/><path d="m21.6116 27.4431c.5834 1.1877 1.8393 1.972 3.243 1.8867 1.4037-.0833 2.5573-1.0115 2.9949-2.2617l-.1156-1.9322-6.2398.3732z" fill="#000"/><path d="m35.7265 34.1679c-1.7087.2311-3.2847-.9718-3.5158-2.6785l-.8884-6.5827 6.1943-.8354.8884 6.5827c.2311 1.7067-.9718 3.2847-2.6785 3.5139z" fill="#ffc400"/><path d="m32.0221 29.8698c.6706 1.1403 1.9815 1.8299 3.3757 1.6423 1.3942-.1875 2.4758-1.1991 2.8187-2.4777l-.6081-4.5236-6.1943.8354z" fill="#ff4338"/><path d="m31.5818 26.8237c.6706 1.1404 1.9814 1.8299 3.3756 1.6424s2.4758-1.1991 2.8187-2.4777l-.2595-1.9171-6.1943.8354z" fill="#000"/><path d="m21.4438 25.6947c-5.2889.0246-10.7009-.358-16.17538-1.1498-14.37765-2.0743-24.33592-6.3004-24.43442-6.3421l.2349-.5456c.0985.0417 9.99803 4.2413 24.3037 6.3042 8.3974 1.2105 16.6489 1.4605 24.5254.7407 9.837-.8998 19.1133-3.3226 27.5713-7.2021l.2482.5399c-8.5224 3.9079-17.8669 6.3496-27.7779 7.2532-2.7884.2557-5.6241.3883-8.4958.4016z" fill="#fff"/></g></svg>