<svg fill="none" height="40" viewBox="0 0 40 40" width="40" xmlns="http://www.w3.org/2000/svg"><path d="m0 0h40v40h-40z" fill="#ffccc9"/><path clip-rule="evenodd" d="m40 39.7248v.2752h-40v-.2758c3.39414-5.5424 6.91146-13.338 9.10929-18.2091.87089-1.9302 1.53461-3.4012 1.90141-4.0909 1.1795-2.218 2.984-2.0468 4.3892-1.9134.2708.0257.5267.05.7605.0555.6133.0148.9-.1966 1.2372-.4453.4586-.3382 1.0105-.7452 2.6034-.746 1.598.0008 2.1489.4084 2.6062.7467.3358.2484.6211.4594 1.2335.4446.2338-.0055.4897-.0298.7604-.0555 1.4052-.1334 3.2098-.3046 4.3893 1.9134.3669.69 1.031 2.1619 1.9024 4.0933 2.1979 4.8715 5.7145 12.6657 9.1072 18.2073zm-19.999-25.3498h.0048-.0097z" fill="#ff4338" fill-rule="evenodd"/><path d="m20.0153 24.2684c0 .0002.0002.0004.0004.0004 4.049-.0004 2.9595-6.3584 5.3131-4.4288.911.7472 1.7484 1.49 3.4083 3.8455 2.3143 3.2848 3.5152.8085 2.8136-.742-1.1887-2.6261-2.0936-4.667-2.5464-5.5184-1.4068-2.6454-3.7027-1.8921-5.1497-1.8579-1.4488.0341-1.0774-1.1922-3.8463-1.1922h.0087-.0201.0088c-2.7689 0-2.3975 1.2263-3.8446 1.1913-1.4471-.0342-3.7429-.7875-5.1497 1.8579-.4529.8514-1.35771 2.8924-2.54638 5.5185-.70163 1.5513.49842 4.0267 2.81358.7419 1.6599-2.3554 2.4973-3.0982 3.4083-3.8454 2.3537-1.9297 1.264 4.4288 5.3135 4.4288h.0144c.0003 0 .0005.0002.0005.0004z" fill="#fff"/><g clip-rule="evenodd" fill-rule="evenodd"><path d="m26.0428 0h13.9572v13.9561c-1.642 1.1814-3.6567 1.8772-5.834 1.8772-5.5228 0-10-4.4771-10-9.99996 0-2.17697.6957-4.19147 1.8768-5.83334z" fill="#fff"/><path d="m34.1654 11.6667c3.2216 0 5.8333-2.61169 5.8333-5.83335s-2.6117-5.83333474-5.8333-5.83333474c-3.2217 0-5.8334 2.61167474-5.8334 5.83333474s2.6117 5.83335 5.8334 5.83335z" fill="#ff4338"/></g></svg>