<svg fill="none" height="40" viewBox="0 0 40 40" width="40" xmlns="http://www.w3.org/2000/svg" xmlns:xlink="http://www.w3.org/1999/xlink"><clipPath id="a"><path d="m0 0h40v40h-40z"/></clipPath><g clip-path="url(#a)"><path d="m0 0h40v40h-40z" fill="#00b3bd"/><path clip-rule="evenodd" d="m40 30.6668v9.3332h-40v-9.3369l1.77902-4.9821c.14213-.3981.51913-.6637.94176-.6637h.6796v-2.3506c0-.5523.44771-1 1-1h15.58672.0256 15.5867c.5523 0 1 .4477 1 1v2.3506h.6785c.4226 0 .7996.2656.9418.6637z" fill="#ff4338" fill-rule="evenodd"/><path d="m19.9872 18.2601h12.0557c3.6642 0 6.7333-1.8347 6.7333-1.8347s-4.6845-.6878-6.7333-1.0886c-5.0221 0-12.0557 0-12.0557 0s-7.0336 0-12.05664 0c-2.04778.4008-6.73329 1.0886-6.73329 1.0886s3.06901 1.8347 6.73329 1.8347z" fill="#ff4338"/><path d="m19.9872 18.2601h12.0557c3.6642 0 6.7333-1.8346 6.7333-1.8346s-4.0711 5.1083-6.7333 5.3915h-24.11234c-2.66222-.2832-6.73329-5.3915-6.73329-5.3915s3.06901 1.8346 6.73329 1.8346z" fill="#ffc400"/><path d="m32.0693 9.4334c3.6643 0 6.7333-1.83464 6.7333-1.83464s-6.7333 0-10.8896-2.59876c0 0-2.7793 1.16492-7.9121 1.16492s-7.9121-1.16492-7.9121-1.16492c-4.15735 2.59876-10.88958 2.59876-10.88958 2.59876s3.06901 1.83464 6.7333 1.83464z" fill="#ff4338"/><path d="m19.9872 9.43332h12.0557c3.6642 0 6.7333-1.83464 6.7333-1.83464-1.1331 1.4222.0436 4.67002-6.7333 5.39142h-24.11234c-2.66222-.2831-6.73329-5.39142-6.73329-5.39142s3.06901 1.83464 6.73329 1.83464z" fill="#ffc400"/><path d="m32.0439 12.989h-24.11226v2.3467h24.11226z" fill="#fff"/><path d="m12.2773 33.3374c0-4.2652 3.4576-7.7227 7.7227-7.7227 4.2652 0 7.7227 3.4575 7.7227 7.7227v6.6626h-15.4454z" fill="#fff"/><path d="m22.5736 35.3813c.0244.9372-.4568 1.8138-1.2567 2.2897-.7999.4758-1.7926.4758-2.5925 0-.7999-.4759-1.2811-1.3525-1.2567-2.2897-.0244-.9372.4568-1.8139 1.2567-2.2897s1.7926-.4758 2.5925 0 1.2811 1.3525 1.2567 2.2897z" fill="#ff4338"/><path d="m22.5736 35.3813c.0244.9372-.4568 1.8138-1.2567 2.2897-.7999.4758-1.7926.4758-2.5925 0-.7999-.4759-1.2811-1.3525-1.2567-2.2897-.0244-.9372.4568-1.8139 1.2567-2.2897s1.7926-.4758 2.5925 0 1.2811 1.3525 1.2567 2.2897z" fill="#ff4338"/><path d="m14.8086 32.9892 1.4639-1.6961.3485.3-1.4657 1.6978z" fill="#000"/><path d="m14.8086 32.9892 1.4639-1.6961.3485.3-1.4657 1.6978z" fill="#000"/><path d="m17.4494 35.072c.081.651.252 1.3287 1.2533 1.4026.3748.0229 1.1051-.0879 1.355-1.112.3308-.9818 1.3198-1.2633 1.9938-.7319.3854.2498.491.6457.5156.9448-.0299.9502-.579 1.7772-1.2811 2.1467-.8095.4803-1.9287.4909-2.9089-.2376-.4417-.4135-1.1124-1.1317-.9277-2.4126z" fill="#00b3bd"/><g clip-rule="evenodd" fill-rule="evenodd"><path d="m16.2773 31.2982.0045-.0051.3507.2995-.6764.7774-.8002.9262-.3473-.302.0012-.0014-.0012-.001.0026-.003-.0026-.0022.4449-.5114 1.0179-1.1821zm-.9863 2.1035 1.4732-1.6935.3507.2977-1.475 1.697zm.4863.4331 1.4629-1.7021.3482.3021-1.4646 1.7004zm8.5391-1.8572-.5828-.6845-.3508.2985.5848.6868zm.2582.3032-.3433.3073.6073.7133.3508-.2984zm-1.2307.5354-.5868-.6892-.3509.2984.6167.7243-.017-.045h.0035zm-.0698.6285.3433-.3072.5955.6993-.3508.2985zm1.4466-.0291-1.4539-1.7106-.3469.2968 1.4522 1.7124zm-1.4186 5.573.5796-.6924-.3476-.2851-.5771.6894zm.1295.1104.5821-.6945.3486.2859-.5838.6966zm.8427-1.0054.3425.2931.5718-.6823-.3468-.288zm-.4715-.4035.3415.2923.5662-.6764-.3451-.288zm.4213-.79-.5611.6704-.3322-.2842h-.0017l-.0269.0149.5769-.6892zm-1.7534 1.3945.5735-.6852.3476.2851-.576.6881zm-6.2496-.573-.586-.6823-.3519.2971.5888.6856zm.2674.3114-.3432.3072.5984.6969.3519-.2972zm-.3529-1.4057 1.4541 1.7092-.3504.2986-1.4541-1.7091zm-.9766.8345 1.4541 1.7091-.3504.2987-1.4541-1.7092z" fill="#000"/><path d="m26.6363 30.4414c-1.492-2.0478-3.9087-3.3787-6.6363-3.3787s-5.1443 1.3309-6.6363 3.3787h-3.3637c1.7956-3.7134 5.5987-6.2747 10-6.2747s8.2044 2.5613 10 6.2747z" fill="#ffc400"/></g></g></svg>