<svg fill="none" height="40" viewBox="0 0 40 40" width="40" xmlns="http://www.w3.org/2000/svg"><path d="m0 0h40v40h-40z" fill="#ffc400"/><path d="m19.7653 14.6999c.1039-.0608.1738-.1703.1738-.2954 0-.191-.1595-.3457-.3566-.3457s-.3566.1547-.3566.3457c0 .1286.0735.2398.1792.2989l-2.5555 5.6738v13.8302h5.473v-13.8302z" fill="#ff655c"/><path clip-rule="evenodd" d="m16.9359 40h-6.2367v-23.5295h6.2367zm11.5449 0h-6.2367v-23.5295h6.2367zm-2.7344-36.28273c-.0017.18936-.1424.34398-.3248.37004l3.0593 12.38309h-3.1184-3.1184l3.0611-12.38483c-.1859-.02606-.3266-.18589-.3249-.37698.0035-.20847.1737-.37699.3839-.37525h.007c.2084.00348.377.17373.3752.38393zm-11.5432 0c-.0017.18936-.1424.34398-.3248.37004l3.0575 12.38309h-3.1183-3.1184l3.061-12.38483c-.1858-.02606-.3266-.18589-.3248-.37698.0035-.20847.1737-.37699.3839-.37525h.007c.2084.00174.3769.17373.3769.38393z" fill="#ff4338" fill-rule="evenodd"/><path clip-rule="evenodd" d="m14.6712 17.1975v4.5046h-1.7024v-4.5046c0-.4708.3804-.8513.8512-.8513s.8512.3805.8512.8513zm9.8405 0v4.5046h1.7025v-4.5046c0-.4708-.3804-.8513-.8512-.8513s-.8513.3805-.8513.8513z" fill="#fff" fill-rule="evenodd"/><path clip-rule="evenodd" d="m33.807 40h-27.97302v-1.2387h27.97302z" fill="#ff4338" fill-rule="evenodd"/><path d="m7.0502 30.8559h25.5405l1.2163 7.9054h-27.97302z" fill="#fff"/><path d="m8.267 21.284h23.1081l1.2162 9.572h-25.54052z" fill="#ff4338"/><path d="m12.5 26h15v14h-15z" fill="#ff4338"/><path d="m12.5 26h15v11.3333h-15z" fill="#ffc400"/><path d="m16.0013 29.6726s-.0237 0-.038-.0095c-.0183-.0147-.0357-.0306-.0521-.0474l-.0332-.0238-.0332-.0426s-.0332-.057-.019-.0949c.019-.0474.0474-.0616.0711-.0759.0238-.0142.0759-.0284.0759-.0284l.0569-.0237.0617-.0143.0285-.0142.0426-.0047.0522-.0143.0806.0048h.2419c.056.0216.113.0406.1707.0569.0285.0047.0901.0142.1139.0284.0284.0143.0474.038.0616.0522.0142.019.0142.0379.019.0522v.0521l-.0237.0427-.0285.0475-.0379.0332s-.0285.0237-.0522.0237-.2419-.0427-.3889-.0427c-.1423 0-.3699.0427-.3699.0427" fill="#ad1519"/><path d="m16.3086 29.3548c0-.0711.0284-.1233.0664-.1233.0379 0 .0664.0522.0664.1233 0 .0664-.0285.1186-.0664.1186-.038 0-.0664-.0522-.0664-.1186" fill="#c09400"/><path d="m16.3477 29.3547c0-.0616.0142-.1138.0284-.1138.019 0 .0332.0474.0332.1138 0 .0617-.0142.1091-.0332.1091-.0142 0-.0284-.0474-.0284-.1091" fill="#c09400"/><path d="m16.3329 29.2266c0-.0237.0189-.0475.0427-.0475.0237 0 .0474.0238.0474.0475s-.0237.0426-.0474.0426c-.0262 0-.0475-.0212-.0475-.0474" fill="#c09400"/><path d="m16.4087 29.2078v.0284h-.0711v-.0284h.0237v-.0617h-.0332v-.0285h.0332v-.0284h.0285v.0284h.0284v.0285h-.0284v.0617z" fill="#c09400"/><path d="m16.4425 29.2078v.0284h-.128v-.0284h.0474v-.0617h-.0332v-.0285h.0332v-.0284h.0284v.0284h.0285v.0285h-.0285v.0617h.0475" fill="#c09400"/><path d="m16.3758 29.6631h-.2372v-.0569l-.0142-.057-.0095-.0758c-.0664-.0854-.1233-.1423-.1422-.1281 0-.019.0094-.0284.0189-.0379.0569-.0332.1755.0474.2656.1849l.0237.0332h.1897l.0237-.0332c.0902-.1375.2087-.2181.2656-.1849.0095.0095.019.0189.0237.0379-.0237-.0142-.0806.0427-.1422.1281l-.0143.0758-.0094.057-.0048.0569z" fill="#c09400"/><path d="m16.0304 29.7672c-.0075-.0169-.0171-.0328-.0284-.0474.0948-.0332.2276-.0474.3746-.0474.1423 0 .2798.0142.3747.0474l-.0285.0427-.0142.0379c-.0854-.0284-.1992-.0379-.332-.0379-.1375 0-.2656.0142-.332.0379z" fill="#c09400"/><path d="m16.3755 29.8908c.099.0003.1976-.0109.2941-.0332.0331-.0095.0521-.0238.0474-.038 0-.0095-.0048-.0142-.0143-.019-.1081-.0293-.2198-.0437-.3319-.0426-.1233 0-.2514.0189-.3225.0426-.0095 0-.0143.0095-.019.019 0 .0142.019.0285.0474.038.0474.0142.1802.0332.2988.0332" fill="#c09400"/><path d="m16.756 29.6629-.0284-.0237s-.0285.0142-.0617.0095c-.0332-.0048-.0474-.0475-.0474-.0475s-.0379.0332-.0711.0285c-.0285 0-.0475-.0285-.0475-.0285s-.0379.0238-.0664.0238c-.0332 0-.0616-.0427-.0616-.0427s-.0285.0427-.0569.0474c-.0332 0-.0569-.0285-.0569-.0285s-.0143.0285-.0475.0332c-.0427.0048-.0759-.0284-.0759-.0284s-.0237.0332-.0474.0474c-.0284.0048-.0616-.019-.0616-.019l-.0095.0238-.0142.0094.0094.019c.2419-.0577.4941-.0561.7351.0048z" fill="#c09400"/><path d="m16.3758 29.5398h.0142c-.0062.0158-.0043.0337.0052.0479.0094.0141.0252.0228.0422.0232.0285 0 .0474-.0142.0569-.0379l.0048-.019v.0237c.0047.0237.0284.0427.0569.0427.0288 0 .0522-.0234.0522-.0522v-.0047l.0189-.019.0095.019c-.0036.0073-.0052.0155-.0047.0237 0 .0284.0237.0474.0474.0474.019 0 .0379-.0047.0474-.019l.0095-.0142v.019c0 .0142.0095.0284.0237.0332 0 0 .019 0 .0474-.019l.038-.0379v.0237s-.0237.0379-.0474.0521l-.0475.0143c-.0142-.0048-.0237-.019-.0332-.0332-.0111.0081-.0242.013-.0379.0142-.0285 0-.0569-.019-.0664-.0474-.0139.0173-.0347.0277-.0569.0284-.0234-.0015-.0453-.0117-.0617-.0284-.0143.0127-.033.0194-.0521.019-.0285 0-.0522-.0143-.0664-.0332-.0143.0189-.038.0332-.0664.0332-.0176-.0007-.0343-.0074-.0475-.019-.0189.0142-.0426.0284-.0664.0284-.0214.0005-.0421-.0081-.0569-.0237-.0094.0237-.0379.038-.0664.038-.0142 0-.0284 0-.0379-.0095-.0047.0142-.019.0284-.0332.0332-.0168-.0005-.0332-.0054-.0474-.0143-.0187-.0145-.0347-.0322-.0475-.0521v-.0237l.0427.0379c.0237.019.0427.019.0427.019.019 0 .0237-.019.0237-.0332v-.019l.0095.0142c.0095.0143.0285.0238.0474.0238.0238 0 .0475-.0238.0475-.0475.0029-.0092.0029-.0192 0-.0284l.0047-.019.019.019c0 .0332.0237.0569.0474.0569.0332 0 .0569-.019.0569-.0474v-.0143l.0095.0143c.0095.0237.0285.0379.0522.0379.0332 0 .0569-.0237.0569-.0522-.0003-.0066-.0019-.013-.0048-.0189z" fill="#c09400"/><path d="m16.3752 29.6725c-.147 0-.2798.0142-.3746.0474l-.0143-.0095c0-.0094 0-.0142.0095-.0189.0949-.0285.2277-.0475.3794-.0475.1518 0 .2846.019.3794.0475l.0095.0142c0 .0095-.0095.0142-.0142.0095-.0949-.0285-.2277-.0474-.3794-.0474" fill="#c09400"/><path d="m16.2347 29.7242c0-.0139.0093-.0232.0232-.0232.0093 0 .0186.0093.0186.0232 0 .0093-.0093.0185-.0232.0185s-.0186-.0092-.0186-.0185" fill="#fff"/><path d="m16.3761 29.7293h-.0474c-.0038 0-.0074-.0015-.0101-.0041-.0026-.0027-.0041-.0063-.0041-.0101 0-.0047.0047-.0142.0142-.0142h.0948c.0045-.0016.0095-.0008.0133.002.0038.0029.006.0075.0057.0122.0003.0048-.0019.0094-.0057.0122-.0038.0029-.0088.0036-.0133.002z" fill="#ad1519"/><path d="m16.144 29.748h-.0332c-.0095.0048-.019 0-.019-.0095-.0003-.0063.0035-.0121.0095-.0142l.0332-.0047.0379-.0095c.0095 0 .0143.0047.019.0142 0 .0095-.0047.0142-.0142.019h-.038" fill="#058e6e"/><path d="m16.0059 29.7715.0139-.0232.0325.0046-.0186.0279z" fill="#ad1519"/><path d="m16.475 29.7242c0-.0139.0093-.0232.0185-.0232.014 0 .0232.0093.0232.0232 0 .0093-.0092.0185-.0232.0185-.0139 0-.0185-.0092-.0185-.0185" fill="#fff"/><path d="m16.608 29.748h.0379c.0048.0048.0142 0 .0142-.0095.0004-.0063-.0035-.0121-.0094-.0142l-.038-.0047-.0332-.0095c-.0095 0-.0142.0047-.019.0142 0 .0095.0048.0142.0143.019h.0332" fill="#058e6e"/><path d="m16.741 29.7714-.0093-.0232h-.0325l.0139.0278h.0325" fill="#ad1519"/><path d="m16.3766 29.8622c-.1185 0-.2276-.0094-.3082-.0332.101-.0234.2045-.0345.3082-.0332.1186 0 .2229.0143.3083.0332-.0854.0238-.1897.0332-.3083.0332" fill="#ad1519"/><path d="m16.7447 29.6056c.0046-.0093 0-.0185 0-.0185-.0093 0-.0186 0-.0232.0092 0 .0093 0 .0186.0093.0232.0046 0 .0139-.0046.0139-.0139" fill="#c09400"/><path d="m16.5133 29.558c0-.0092 0-.0139-.0093-.0185-.0092 0-.0139.0093-.0139.0185 0 .0093 0 .014.0093.0186.0046 0 .0139-.0093.0139-.0186" fill="#c09400"/><path d="m16.2382 29.558c0-.0092 0-.0139.0092-.0185.0093 0 .014.0093.014.0185 0 .0093 0 .014-.0093.0186z" fill="#c09400"/><path d="m16.0067 29.6056c-.0046-.0093 0-.0185.0046-.0185.0047 0 .014 0 .0186.0092 0 .0093 0 .0186-.0093.0232-.0046 0-.0139-.0046-.0139-.0139" fill="#c09400"/><path d="m16.3767 29.4259-.0427.0238.0332.0664.0095.0094.0095-.0094.0332-.0664-.0475-.0238" fill="#c09400"/><path d="m16.2852 29.5255.0189.0285.0617-.019.0095-.0095-.0095-.0094-.0617-.019z" fill="#c09400"/><path d="m16.4671 29.5255-.019.0285-.0617-.019-.0094-.0095.0047-.0094.0664-.019z" fill="#c09400"/><path d="m16.1055 29.4543-.0332.0284.0426.057.0095.0047.0095-.0095.0142-.0664-.0474-.0142" fill="#c09400"/><path d="m16.0352 29.5633.0237.0237.0616-.0332v-.0189h-.0711z" fill="#c09400"/><path d="m16.2151 29.5302-.0142.0285-.0664-.0048-.0095-.0094.0047-.0095.0617-.0332z" fill="#c09400"/><path d="m15.9673 29.5729v.0332l-.0711.0047h-.0095v-.0142l.0522-.0474z" fill="#c09400"/><path d="m16.1016 29.5486c0-.0185.0092-.0278.0232-.0278.0139 0 .0232.0093.0232.0232 0 .0128-.0104.0232-.0232.0232-.0129 0-.0232-.0104-.0232-.0232" fill="#c09400"/><path d="m16.6462 29.4543.0332.0284-.0427.057-.0095.0047-.0095-.0095-.0142-.0664.0474-.0142" fill="#c09400"/><path d="m16.7171 29.5633-.0285.0237-.0569-.0332-.0047-.0095.0094-.0094h.0664z" fill="#c09400"/><path d="m16.5371 29.5302.0142.0285.0664-.0048.0095-.0094-.0047-.0095-.0617-.0332z" fill="#c09400"/><path d="m16.7754 29.5729v.0332l.0711.0047h.0095v-.0142l-.0522-.0474z" fill="#c09400"/><path d="m16.3477 29.5252c-.0002-.0072.003-.0141.0085-.0187s.0129-.0064.0199-.005c.0142 0 .0237.0095.0237.0237-.0023.0112-.0122.0192-.0237.019-.0114.0002-.0214-.0078-.0237-.019" fill="#c09400"/><path d="m16.604 29.5486c-.0014-.0069.0004-.014.0049-.0195.0045-.0054.0112-.0084.0183-.0083.0128 0 .0232.0104.0232.0232s-.0104.0232-.0232.0232-.0232-.0104-.0232-.0232" fill="#c09400"/><path d="m15.8789 29.611-.0332-.038-.0332-.0142s.0142-.0142.0285-.0142l.0237.0094v-.0094s.0142 0 .0189.0189v.0475" fill="#c09400"/><path d="m15.8778 29.5964.0278.0047c.0093.0092.0093.0185 0 .0232-.0092.0046-.0139.0046-.0185 0-.0093-.0093-.0139-.0186-.0093-.0232" fill="#c09400"/><path d="m16.8641 29.6108.0332-.038.0332-.0142s-.0142-.0142-.0284-.0142c-.009-.0008-.0178.0027-.0238.0095v-.0095s-.0142 0-.0189.019v.0332z" fill="#c09400"/><path d="m16.863 29.5965-.0232.0046c-.0092.0093-.0139.0186-.0092.0232h.0278c.0093-.0093.0093-.0186.0046-.0232" fill="#c09400"/><path d="m15.8359 30.1657h1.0861v-.2846h-1.0861z" fill="#c09400"/><path d="m15.9492 30.3553.0237-.0047h.83c-.0285-.0095-.0474-.0332-.0474-.0617 0-.0284.0237-.0569.0474-.0664-.0077.0027-.0156.0043-.0237.0048h-.8063c-.0078.0013-.0158.0013-.0237 0 .0332.0095.0474.0332.0474.0616 0 .0285-.0189.0522-.0474.0617" fill="#c09400"/><path d="m15.9682 30.3508h.8157c.0237 0 .0474.0142.0474.0379 0 .019-.0237.038-.0474.038h-.8157c-.0285 0-.0522-.019-.0522-.038 0-.0237.0237-.0379.0474-.0379" fill="#c09400"/><path d="m15.9673 30.1658h.8158c.0237 0 .0474.0095.0474.0285 0 .0189-.0237.0332-.0474.0332h-.8158c-.0284 0-.0474-.0143-.0474-.0332 0-.019.019-.0332.0474-.0332" fill="#c09400"/><path d="m17.134 34.9368c-.0657.0011-.1308-.0135-.1897-.0426-.0595-.0272-.1244-.0402-.1897-.038-.0759 0-.1423.0142-.1897.038-.0586.0306-.1236.0468-.1897.0474-.0662-.0004-.1312-.0167-.1897-.0474-.0595-.027-.1244-.04-.1897-.038-.0638-.0013-.127.0117-.185.038-.0474.0284-.1138.0474-.1897.0474v.1138c.0661-.0007.131-.017.1897-.0474.0594-.0274.1244-.0403.1897-.038.0641.0002.1273.0148.185.0427.0591.0287.124.0433.1897.0427.0656.0006.1306-.014.1897-.0427.0591-.0286.124-.0432.1897-.0427.0711 0 .1423.019.1897.0427.0589.0293.1239.044.1897.0427z" fill="#005bbf"/><path d="m17.134 35.0505c-.0654.0026-.1304-.0104-.1897-.0379-.0595-.0272-.1244-.0402-.1897-.038-.0759 0-.1423.0143-.1897.038-.0591.0286-.1241.0432-.1897.0427-.0662-.0004-.1312-.0167-.1897-.0475-.0595-.027-.1244-.04-.1897-.0379-.0712 0-.1376.0142-.185.0427-.0591.0286-.124.0432-.1897.0427v.1138c.0657.0007.1306-.0139.1897-.0427.0593-.0277.1243-.0407.1897-.0379.0637-.0014.1269.0116.185.0379.0585.0308.1235.047.1897.0474.066-.0007.131-.017.1897-.0474.0595-.027.1244-.04.1897-.0379.0657-.0008.1306.0138.1897.0426.0591.0287.124.0433.1897.0427z" fill="#e9e9e9"/><path d="m17.134 35.1738c-.0661-.0003-.1312-.0166-.1897-.0474-.0595-.0272-.1244-.0401-.1897-.0379-.0657-.0006-.1306.014-.1897.0427s-.124.0434-.1897.0426c-.0662-.0003-.1312-.0166-.1897-.0474-.0595-.027-.1244-.04-.1897-.0379-.0638-.0014-.127.0116-.185.0379-.0587.0304-.1236.0467-.1897.0474v.1139c.0711 0 .1423-.0143.1897-.0427.0593-.0275.1244-.0405.1897-.038.0637-.0013.1269.0117.185.038.1195.0593.2599.0593.3794 0 .0595-.027.1244-.04.1897-.038.0711 0 .1423.0143.1897.038.0474.0284.1138.0474.1897.0474v-.1233" fill="#005bbf"/><path d="m17.134 35.4061c-.0662-.0001-.1313-.0164-.1897-.0474-.0599-.0254-.1248-.0367-.1897-.0332-.0653-.002-.1302.011-.1897.038-.0591.0288-.124.0434-.1897.0426-.0662-.0003-.1312-.0166-.1897-.0474-.0599-.0254-.1248-.0367-.1897-.0332-.0638-.0013-.127.0117-.185.038-.0591.0286-.124.0432-.1897.0426v-.1185c.0657.0005.1306-.0141.1897-.0427.0594-.0273.1244-.0403.1897-.0379.0637-.0014.1269.0116.185.0379.0474.0285.1138.0474.1897.0474.066-.0009.131-.0171.1897-.0474.0595-.027.1244-.04.1897-.0379.0653-.0021.1302.0109.1897.0379.0474.0285.1138.0474.1897.0474z" fill="#e9e9e9"/><path d="m17.134 35.5249c-.0661-.0004-.1312-.0166-.1897-.0474-.0594-.0274-.1244-.0404-.1897-.038-.0657-.0005-.1306.0141-.1897.0427-.0595.027-.1244.04-.1897.038-.0658.001-.1308-.0136-.1897-.0427-.0595-.027-.1244-.04-.1897-.038-.0638-.0013-.127.0117-.185.038-.0474.0284-.1138.0474-.1897.0474v-.1186c.0711 0 .1423-.0189.1897-.0474.0598-.0257.1247-.0371.1897-.0332.0637-.0013.1269.0117.185.0379.0591.0287.124.0433.1897.0427.0657.0008.1306-.0139.1897-.0427.0595-.027.1244-.0399.1897-.0379.0653-.002.1302.0109.1897.0379.0591.0287.124.0433.1897.0427z" fill="#005bbf"/><path d="m15.9492 34.4578.0095.0284c0 .0712-.0617.1281-.1423.1281h1.1193c-.0759 0-.1376-.0569-.1376-.1281l.0048-.0284c-.0079.0014-.0159.0014-.0237 0z" fill="#c09400"/><path d="m15.9682 34.3867h.8157c.0237 0 .0474.0143.0474.0332 0 .0238-.0237.038-.0474.038h-.8157c-.0285 0-.0522-.0142-.0522-.038 0-.0189.0237-.0379.0474-.0379" fill="#c09400"/><path d="m15.8262 34.8989h1.105v-.2845h-1.105z" fill="#c09400"/><path d="m15.7302 33.3813c-.1043.0616-.1802.128-.166.1612 0 .0285.038.0474.0901.0854.0759.0522.1233.1517.0854.1944.0673-.0537.1061-.1355.1052-.2217-.0009-.0861-.0415-.167-.1099-.2193" fill="#ad1519"/><path d="m15.9824 34.3393h.7873v-3.8699h-.7873z" fill="#e9e9e9"/><path d="m17.5806 31.9204c-.2591-.0913-.5315-.1394-.8063-.1423-.1272.0028-.2541.0155-.3794.038-.4695.0806-.8299.2656-.8015.4221v.0094l-.1755-.4126c-.0331-.1707.3652-.3794.8917-.4647.1535-.026.309-.0387.4647-.038.332 0 .6261.0427.8015.1091v.4743" fill="#ad1519"/><path d="m15.9824 32.3996c-.2229-.0142-.3699-.0711-.3889-.166-.0142-.0711.0617-.1518.1897-.2229.0617.0047.1281.0142.1992.0142v.3794" fill="#ad1519"/><path d="m16.7743 32.1102c.1328.019.2371.0475.2845.0949l.0095.0047c.0237.0475-.0948.1565-.2988.2751v-.3794" fill="#ad1519"/><path d="m15.4895 33.1488c-.019-.0616.1897-.1897.4932-.2988.1423-.0474.2514-.0996.3936-.1612.4221-.1897.7304-.3984.6925-.4743l-.0048-.0095c.0237.019.0569.3984.0569.3984.038.0712-.2466.2846-.6307.4648-.1233.0616-.3842.1565-.5075.1992-.2229.0759-.4411.2229-.4221.2751z" fill="#ad1519"/><path clip-rule="evenodd" d="m16.6604 31.7307.1375-.3225c-.0173.0018-.0348.0018-.0521 0-.028.0805-.0596.1596-.0949.2372-.0143-.0287-.0293-.0566-.0442-.0844-.0246-.0459-.0489-.0913-.0696-.1386l-.0474.0048h-.0522l.1755.3083.0237-.0048zm-.4645-.2512.0379-.0142.0617.2751.128-.0332v.0189l.0095.019-.2134.0427-.0712-.3083zm-.2696.2513c.0949-.0332.1613-.0758.1281-.1517-.019-.0474-.0664-.0569-.1423-.0332l-.1328.0474.1186.294.0426-.0142.038-.0142-.0474-.1281zm-.0571-.1421.0332-.0095c.0285-.0142.0617 0 .0712.038.0142.0237.0095.0521-.0237.0759-.0107.0056-.0218.0104-.0332.0142zm1.2619-.1377-.0237.0427v.0047h-.0095c-.0095-.0284-.0285-.0474-.0617-.0474-.0426-.0095-.0663.0095-.0663.0379-.0021.0268.0289.0428.0638.0609.0456.0236.098.0508.0927.1099-.0048.0569-.0759.0948-.1613.0853-.0332-.0047-.0664-.0142-.0901-.0284.0094-.0183.0174-.0374.0237-.0569h.0095c.0047.0332.0332.0569.0711.0569.038.0047.0712-.0095.0759-.038.0022-.0344-.0317-.0512-.0686-.0695-.0444-.0221-.0931-.0463-.0879-.106.0095-.0521.0569-.0901.1423-.0806.0321.0011.0632.0109.0901.0285z" fill="#c09400" fill-rule="evenodd"/><path d="m23.6227 29.5822s-.0379.0379-.0616.0474c-.0285 0-.0617-.0284-.0617-.0284s-.0237.0237-.0521.0332c-.0285.0047-.0664-.0332-.0664-.0332s-.0285.0379-.0569.0474c-.0238.0095-.0522-.0095-.0522-.0095s-.0095.019-.0332.0285h-.0237l-.0285-.0238-.0332-.0332-.0284-.0094-.0143-.0522-.0047-.0285c-.0047-.0332.0427-.0664.1138-.0853.038-.0095.0712-.0048.0949 0 .0474-.0275.1017-.0407.1565-.038.0527-.0032.1052.0083.1517.0332.0437-.0234.0928-.0349.1423-.0332.0712 0 .1281.0143.1565.038.0327-.0085.067-.0085.0996 0 .0712.0189.1186.0521.1138.0853v.0285l-.0189.0474-.0285.0142-.0332.038-.0284.0142s-.0143.0095-.0237.0048c-.0238-.0095-.0332-.0285-.0332-.0285s-.0285.019-.057.0095c-.0237-.0095-.0474-.0474-.0474-.0474s-.0427.0379-.0711.0332c-.0285-.0095-.0522-.0332-.0522-.0332s-.0332.0284-.0569.0237c-.0285 0-.0664-.0427-.0664-.0427" fill="#ad1519"/><path d="m23.5555 29.3785c0-.0521.0285-.0948.0617-.0948.0379 0 .0664.0427.0664.0948 0 .0522-.0285.0949-.0664.0949-.038 0-.0664-.0427-.0664-.0949" fill="#c09400"/><path d="m23.5898 29.3784c0-.0474.0143-.0901.0332-.0901.0143 0 .0285.0427.0285.0901 0 .0475-.0142.0854-.0332.0854-.0142 0-.0285-.0379-.0285-.0854" fill="#c09400"/><path d="m23.2718 29.7672c-.0061-.0166-.014-.0326-.0238-.0474.0949-.0332.223-.0474.37-.0474s.2845.0142.3794.0474l-.0285.0427-.0189.0379c-.0854-.0284-.1945-.0379-.332-.0379-.1328 0-.2656.0142-.332.0379l-.0095-.0332" fill="#c09400"/><path d="m23.6188 29.8907c.1186 0 .2514-.019.2988-.0332.0332-.0095.0474-.0237.0474-.0379 0-.0095-.0095-.0142-.0189-.019-.1067-.029-.2168-.0433-.3273-.0427-.1089-.0001-.2173.0143-.3225.0427-.0095 0-.019.0095-.019.019 0 .0142.0143.0284.0475.0379.0474.0142.1754.0332.294.0332" fill="#c09400"/><path d="m23.9066 29.4206c-.0002-.0112.0076-.021.0186-.0232.0139 0 .0232.0092.0232.0232 0 .0092-.0093.0185-.0232.0185-.0095-.0017-.0168-.0091-.0186-.0185" fill="#fff"/><path d="m23.9982 29.6629-.0284-.0237s-.0285.0142-.0617.0095c-.0332-.0048-.0474-.0475-.0474-.0475s-.0332.0332-.0664.0285c-.0332 0-.0522-.0285-.0522-.0285s-.0332.0238-.0664.0238c-.0284 0-.0569-.0427-.0569-.0427s-.0332.0427-.0616.0474c-.0285 0-.0522-.0285-.0522-.0285s-.0142.0285-.0522.0332c-.0379.0048-.0711-.0284-.0711-.0284s-.0237.0332-.0474.0474c-.0285.0048-.0617-.019-.0617-.019l-.0095.0238-.019.0094.0095.019c.2419-.0577.4941-.0561.7351.0048z" fill="#c09400"/><path d="m23.2855 29.4206c0-.0129.0104-.0232.0232-.0232.011.0022.0188.012.0186.0232-.0018.0094-.0092.0168-.0186.0185-.0139 0-.0232-.0093-.0232-.0185" fill="#fff"/><path d="m23.6227 29.5398h.0095v.0189c0 .0285.0237.0475.0522.0475.0237 0 .0474-.0095.0521-.0332l.0095-.019v.0237c0 .0237.0285.0427.0522.0427.0146.0013.0291-.0036.04-.0135.0108-.0099.0169-.024.0169-.0387.0001-.0016.0001-.0031 0-.0047l.0142-.019.0095.019c-.002.0078-.002.0159 0 .0237 0 .0284.019.0474.0474.0474.0181.0024.036-.0048.0475-.019l.0047-.0142v.019c0 .0142.0095.0284.0237.0332 0 0 .019 0 .0474-.019l.038-.0379v.0237s-.0237.0379-.0475.0522c-.0094.0047-.0284.0142-.0474.0142-.0142-.0048-.0237-.019-.0284-.0332-.0112.0081-.0243.013-.038.0142-.0332 0-.0616-.019-.0711-.0474-.0139.0174-.0347.0278-.0569.0284-.0238.0001-.0463-.0103-.0617-.0284-.0142.0142-.0332.019-.0474.019-.0279.002-.0548-.0106-.0711-.0332-.0132.0171-.0326.0282-.054.0309-.0214.0026-.0429-.0034-.0599-.0167-.0153.0181-.0379.0285-.0616.0284-.0237 0-.0474-.0094-.0569-.0237-.0095.0237-.038.038-.0712.038-.0142 0-.0237 0-.0379-.0095-.0048.0142-.0142.0284-.0332.0332-.0168-.0005-.0332-.0054-.0474-.0142l-.0475-.0522v-.0237l.0475.0379c.0189.019.0379.019.0379.019.019 0 .0237-.019.0237-.0332v-.019l.0142.0142c.0095.0143.0238.0238.0427.0238.0285 0 .0475-.0238.0475-.0475.0029-.0092.0029-.0192 0-.0284l.0094-.019.0143.019c0 .0332.0237.0569.0521.0569.0285 0 .0522-.019.0569-.0474v-.0143l.0095.0143c.0048.0237.0285.0379.0475.0379.0186.0031.0375-.0041.0493-.0189.0118-.0147.0147-.0347.0076-.0522h.0095" fill="#c09400"/><path d="m23.6174 29.6725c-.1423 0-.2751.0142-.3699.0474l-.019-.0095.0095-.0189c.0949-.0285.2324-.0475.3794-.0475s.2846.019.3794.0475c.0095 0 .0142.0095.0095.0142 0 .0095-.0095.0142-.0142.0095-.0949-.0285-.2277-.0474-.3747-.0474" fill="#c09400"/><path d="m23.4792 29.7242c0-.0139.0093-.0232.0186-.0232s.0232.0093.0232.0232c0 .0093-.0139.0185-.0232.0185s-.0232-.0092-.0232-.0185" fill="#fff"/><path d="m23.623 29.7293h-.0474c-.0095 0-.019-.0047-.019-.0142 0-.0047.0095-.0142.019-.0142h.0949c.0078 0 .0142.0064.0142.0142 0 .0095-.0048.0142-.0142.0142z" fill="#ad1519"/><path d="m23.3862 29.7483h-.0332c-.0038.0015-.008.0014-.0117-.0005-.0036-.0018-.0063-.005-.0073-.0089 0-.0079.0064-.0143.0142-.0143l.0332-.0047.0332-.0095c.0095 0 .019.0047.019.0142s0 .0143-.0143.019h-.0331" fill="#058e6e"/><path d="m23.248 29.7715.0186-.0232.0278.0046-.0185.0279z" fill="#ad1519"/><path d="m23.7172 29.7242c0-.0139.0092-.0232.0232-.0232.0092 0 .0185.0093.0185.0232 0 .0093-.0093.0185-.0185.0185-.0093 0-.0232-.0092-.0232-.0185" fill="#fff"/><path d="m23.856 29.748h.0332c.0095.0048.0142 0 .019-.0095 0-.0078-.0064-.0142-.0142-.0142l-.0332-.0047-.0332-.0095c-.0095 0-.019.0047-.019.0142s0 .0142.0142.019h.0332" fill="#058e6e"/><path d="m23.9859 29.7714-.014-.0232h-.0324l.0185.0278h.0279" fill="#ad1519"/><path d="m23.618 29.8622c-.1022.001-.204-.0101-.3035-.0332.2026-.0485.4138-.0485.6165 0-.1026.0239-.2077.035-.313.0332" fill="#ad1519"/><path d="m23.9918 29.6056-.0046-.0185c-.0093 0-.0139 0-.0186.0092l.0047.0232c.0092 0 .0139-.0046.0185-.0139" fill="#c09400"/><path d="m23.7555 29.558c0-.0092 0-.0139-.0093-.0185-.0046 0-.0139.0093-.0139.0185 0 .0093 0 .014.0093.0186.0093 0 .0139-.0093.0139-.0186" fill="#c09400"/><path d="m23.4843 29.558c0-.0092 0-.0139.0092-.0185.0047 0 .014.0093.014.0185 0 .0093 0 .014-.0093.0186-.0093 0-.0139-.0093-.0139-.0186" fill="#c09400"/><path d="m23.2479 29.6056.0047-.0185c.0092 0 .0139 0 .0185.0092l-.0046.0232c-.0093 0-.0139-.0046-.0186-.0139" fill="#c09400"/><path d="m23.618 29.4259-.0379.0238.0284.0664.0095.0094.0142-.0094.0285-.0664z" fill="#c09400"/><path d="m23.5273 29.5255.019.0285.0664-.019.0048-.0095-.0048-.0094-.0664-.019z" fill="#c09400"/><path d="m23.7132 29.5255-.019.0285-.0664-.019-.0048-.0095.0048-.0094.0664-.019z" fill="#c09400"/><path d="m23.3477 29.4543-.0332.0284.0474.057.0095.0047.0047-.0095.0142-.0664z" fill="#c09400"/><path d="m23.2812 29.5633.0238.0237.0569-.0332.0047-.0095-.0047-.0094h-.0712z" fill="#c09400"/><path d="m23.4612 29.5302-.0142.0285-.0664-.0048-.0095-.0094v-.0095l.0616-.0332z" fill="#c09400"/><path d="m23.2143 29.5729-.0048.0332-.0711.0047h-.0095v-.0142l.0569-.0474z" fill="#c09400"/><path d="m23.3481 29.5486c-.0014-.0069.0004-.014.0049-.0195.0045-.0054.0113-.0084.0183-.0083.0128 0 .0232.0104.0232.0232s-.0104.0232-.0232.0232-.0232-.0104-.0232-.0232" fill="#c09400"/><path d="m23.8876 29.4543.0379.0284-.0474.057-.0095.0047-.0048-.0095-.0142-.0664.0427-.0142" fill="#c09400"/><path d="m23.9604 29.5633-.0237.0237-.0617-.0332v-.0095l.0047-.0094h.0712z" fill="#c09400"/><path d="m23.7793 29.5302.0142.0285.0664-.0048.0095-.0094v-.0095l-.0616-.0332z" fill="#c09400"/><path d="m24.0156 29.5729.0048.0332.0664.0047h.0142v-.0142l-.0569-.0474z" fill="#c09400"/><path d="m23.5938 29.5248c0-.0139.0139-.0232.0231-.0232.0093 0 .0232.0093.0232.0232 0 .0093-.0092.0185-.0232.0185-.0112.0003-.0209-.0075-.0231-.0185" fill="#c09400"/><path d="m23.8462 29.5486c-.0014-.0069.0004-.014.0049-.0195.0045-.0054.0112-.0084.0183-.0083.0139 0 .0232.0093.0232.0232s-.0093.0232-.0232.0232c-.0128 0-.0232-.0104-.0232-.0232" fill="#c09400"/><path d="m23.5762 29.2645c0-.0189.0189-.0379.0474-.0379s.0427.019.0427.0427-.019.0427-.0474.0427c-.0244-.0025-.0429-.023-.0427-.0475" fill="#c09400"/><path d="m23.6521 29.2552v.0284h-.0712v-.0284h.0237v-.0664h-.0284v-.0285h.0284v-.0237h.0332v.0237h.0285v.0285h-.0285v.0664z" fill="#c09400"/><path d="m23.6847 29.2552v.0284h-.1281v-.0284h.0475v-.0664h-.0332v-.0285h.0284v-.0237h.0332v.0237h.0285v.0285h-.0285v.0664h.0474" fill="#c09400"/><path d="m23.125 29.611-.0332-.038-.0332-.0142s.0142-.0142.0284-.0142l.0238.0094v-.0094s.0094 0 .0142.0189c.0095.0143 0 .0332 0 .0332z" fill="#c09400"/><path d="m23.1235 29.5965.0232.0046c.0093.0093.0139.0186.0046.0232h-.0232c-.0092-.0093-.0092-.0186-.0046-.0232" fill="#c09400"/><path d="m24.1063 29.6108.0332-.038.0332-.0142s-.0142-.0142-.0285-.0142c-.0089-.0008-.0177.0027-.0237.0095v-.0095s-.0142 0-.0189.019v.0332z" fill="#c09400"/><path d="m24.1064 29.5963-.0232.0047c-.0093.0093-.0093.0185-.0046.0232.0046.0093.0139.0046.0232 0 .0093-.0093.0139-.0186.0046-.0232" fill="#c09400"/><path d="m23.0829 30.1657h1.0813v-.2846h-1.0861v.2846z" fill="#c09400"/><path d="m24.049 30.3553c-.0059-.0029-.0124-.0045-.019-.0047h-.8347c.0285-.0095.0474-.0332.0474-.0617 0-.0284-.0237-.0569-.0474-.0664l.019.0048h.8347c-.0332.0095-.0474.0332-.0474.0616 0 .0285.0189.0522.0474.0617" fill="#c09400"/><path d="m23.2193 30.3508h.8062c.0285 0 .0522.0142.0522.0379 0 .019-.0237.038-.0474.038h-.811c-.0285 0-.0474-.019-.0474-.038 0-.0237.0189-.0379.0474-.0379" fill="#c09400"/><path d="m23.2201 30.1658h.8063c.0284 0 .0521.0095.0521.0285 0 .0189-.0237.0332-.0474.0332h-.811c-.0284 0-.0521-.0143-.0521-.0332 0-.019.0237-.0332.0474-.0332" fill="#c09400"/><path d="m22.8633 34.9368c.0759 0 .1423-.0142.1897-.0426.0594-.0272.1244-.0402.1897-.038.0711 0 .1423.0142.1897.038.0474.0284.1186.0474.1897.0474.0661-.0004.1312-.0167.1897-.0474.0595-.027.1244-.04.1897-.038.0711 0 .1328.0142.185.038.0474.0284.1185.0474.1897.0474v.1138c-.0661-.0007-.1311-.017-.1897-.0474-.0594-.0274-.1244-.0403-.1897-.038-.0712 0-.1328.019-.185.0427-.059.029-.124.0436-.1897.0427-.0657.0006-.1306-.014-.1897-.0427-.0591-.0286-.124-.0432-.1897-.0427-.0711 0-.1423.019-.1897.0427-.0589.0293-.124.044-.1897.0427z" fill="#005bbf"/><path d="m22.8633 35.0505c.0653.0026.1304-.0104.1897-.0379.0594-.0272.1244-.0401.1897-.0379.0711 0 .1423.0142.1897.0379.0591.0286.124.0432.1897.0427.0759 0 .1423-.019.1897-.0474.0594-.0272.1244-.0402.1897-.038.0643-.0017.1279.013.185.0427.059.0288.124.0434.1897.0427v.1138c-.0657.0007-.1307-.0139-.1897-.0427-.0593-.0276-.1244-.0407-.1897-.0379-.0712 0-.1328.0142-.185.0379-.0585.0308-.1236.0471-.1897.0475-.0661-.0008-.1311-.017-.1897-.0475-.0595-.027-.1244-.04-.1897-.0379-.0657-.0007-.1307.0139-.1897.0427-.0589.0293-.124.0439-.1897.0427z" fill="#e9e9e9"/><path d="m22.8633 35.1738c.0759 0 .1423-.0189.1897-.0474.0594-.0272.1244-.0401.1897-.0379.0657-.0006.1306.014.1897.0427.0474.0237.1186.0426.1897.0426.0759 0 .1423-.0189.1897-.0474.0595-.027.1244-.04.1897-.0379.0711 0 .1328.0142.185.0379.0474.0285.1185.0474.1897.0474v.1139c-.0657.0007-.1307-.0139-.1897-.0427-.0594-.0275-.1244-.0405-.1897-.038-.0637-.0013-.1269.0117-.185.038-.0585.0308-.1236.047-.1897.0474-.0661-.0009-.131-.0172-.1897-.0474-.0595-.027-.1244-.04-.1897-.038-.0711 0-.1423.0143-.1897.038-.0585.0309-.1236.0472-.1897.0474v-.1233" fill="#005bbf"/><path d="m22.8633 35.4061c.0661-.0001.1312-.0164.1897-.0474.0599-.0254.1248-.0367.1897-.0332.0653-.002.1302.011.1897.038.0474.0237.1186.0426.1897.0426.0759 0 .1423-.0189.1897-.0474.0599-.0254.1248-.0367.1897-.0332.0711 0 .1328.0143.185.038.0474.0237.1185.0426.1897.0426v-.1185c-.0657.0009-.1307-.0137-.1897-.0427-.0594-.0273-.1244-.0403-.1897-.0379-.0637-.0014-.1269.0116-.185.0379-.0585.0308-.1236.047-.1897.0474-.0661-.0009-.131-.0171-.1897-.0474-.0595-.027-.1244-.04-.1897-.0379-.0653-.0021-.1302.0109-.1897.0379-.0585.0308-.1236.047-.1897.0474z" fill="#e9e9e9"/><path d="m22.8633 35.5249c.0759 0 .1423-.019.1897-.0474.0594-.0274.1244-.0404.1897-.038.0657-.0005.1306.0141.1897.0427.0474.0237.1186.038.1897.038.0759 0 .1423-.0143.1897-.0427.0595-.027.1244-.04.1897-.038.0711 0 .1328.0143.185.038.0474.0284.1185.0474.1897.0474v-.1186c-.0661-.0005-.1311-.0168-.1897-.0474-.0598-.0257-.1248-.0371-.1897-.0332-.0712 0-.1328.0142-.185.0379-.059.029-.124.0436-.1897.0427-.0657.0008-.1307-.0139-.1897-.0427-.0595-.027-.1244-.0399-.1897-.0379-.0653-.0022-.1303.0108-.1897.0379-.0589.0292-.124.0438-.1897.0427z" fill="#005bbf"/><path d="m24.049 34.4578-.0095.0284c0 .0712.0616.1281.1423.1281h-1.1193c.0759 0 .1375-.0569.1375-.1281.0011-.0094.0011-.019 0-.0284z" fill="#c09400"/><path d="m23.2193 34.3867h.8062c.0285 0 .0522.0143.0522.0332 0 .0238-.0237.038-.0474.038h-.811c-.0285 0-.0474-.0142-.0474-.038 0-.0189.0189-.0379.0474-.0379" fill="#c09400"/><path d="m23.0672 34.8989h1.1051v-.2845h-1.1098v.2845z" fill="#c09400"/><path d="m24.2671 33.3813c.1043.0616.1802.128.1707.1612-.0095.0285-.0474.0474-.0948.0854-.0759.0522-.1234.1517-.0854.1944-.0673-.0537-.1062-.1355-.1052-.2217.0009-.0861.0415-.167.1099-.2193" fill="#ad1519"/><path d="m23.2246 34.3393h.792v-3.8699h-.7872v3.8699z" fill="#e9e9e9"/><path d="m22.418 31.9204c.3811-.1292.7878-.165 1.1856-.1043.4695.0806.83.2656.8015.4221v.0094s.1755-.3983.1755-.4126c.0332-.1707-.3652-.3794-.8916-.4647-.1536-.026-.3091-.0387-.4648-.038-.332 0-.626.0427-.8015.1091v.4743" fill="#ad1519"/><path d="m24.0215 32.3996c.2181-.0142.3652-.0711.3794-.166.019-.0711-.0569-.1518-.1897-.2229-.0569.0047-.1233.0142-.1897.0142v.3794" fill="#ad1519"/><path d="m23.2248 32.1102c-.1328.019-.2372.0475-.2846.0949l-.0095.0047c-.0237.0475.0949.1565.2988.2751v-.3794" fill="#ad1519"/><path d="m24.5099 33.1488c.0189-.0616-.1898-.1897-.4933-.2988-.1423-.0474-.2513-.0996-.3936-.1612-.4174-.1897-.7304-.3984-.6924-.4743l.0047-.0095c-.019.019-.0569.3984-.0569.3984-.0379.0712.2466.2846.6308.4648.1233.0616.3841.1565.5074.1992.2229.0759.4411.2229.4221.2751z" fill="#ad1519"/><path clip-rule="evenodd" d="m23.214 31.4178h-.0047v-.0047zm-.0047 0v.2751c.0427.0002.0854-.0014.128-.0048v.038h-.2182l.0095-.3083zm-.2939.328c.0285-.1138.0664-.2229.1044-.332-.0079.002-.0158.0035-.0238.0048-.0094.0005-.0189.0005-.0284 0-.019.0853-.0427.1612-.0711.2418l-.1376-.2086-.0474.0095-.0474.0047c.0688.0931.1352.188.1992.2846h.0521zm.7411-.2664-.0996-.0142-.0285.2798-.0379-.0047h-.0474l.0284-.2846h-.1043v-.0379l.294.0237-.0047.019zm.0173.294c.0143 0 .0285 0 .0475.0095l.0379.0094.0332-.1422h.0047l.0237.0569.0475.1091c.0142 0 .0332 0 .0474.0094l.0522.0095-.0143-.0284-.0711-.147c.0569 0 .0949-.019.1091-.0617.0047-.0332-.0048-.0569-.0332-.0759-.0283-.0144-.0587-.024-.0901-.0284l-.1186-.0238zm.1652-.2623-.0137-.0032-.0284.1233c.0616.0142.0948 0 .1091-.0474.0009-.0079.0009-.0159 0-.0237 0-.0335-.0331-.0411-.067-.049zm.4006.3571-.0142.0996.0427.0237.0427.0237.0284-.351c-.0134-.0047-.0261-.0111-.0379-.0189l-.313.1944.0284.0142.019.0143.0854-.0664zm.0132-.1469-.1044.0664.0902.0474z" fill="#c09400" fill-rule="evenodd"/><path d="m19.9667 27.7516c.3225 0 .6166.0474.7968.1233.1304.0536.2677.0887.4078.1043.1234.0143.2372.019.332.0095.1376 0 .3273.038.5217.1233.1385.058.2666.1381.3794.2372l-.0806.0711-.019.1897-.2086.2371-.1044.0949-.2513.1897-.1233.0142-.038.1091-1.5982-.1897-1.6031.1897-.0426-.1091-.1233-.0095-.2467-.1991-.1043-.0902-.2087-.2371-.0237-.1897-.0759-.0711c.113-.0989.2411-.179.3794-.2372.1897-.0853.3795-.1233.517-.1233.0948.0095.2087.0048.332-.0095.1401-.0156.2774-.0507.4078-.1043.1897-.0759.4553-.1233.7778-.1233z" fill="#ad1519"/><path d="m19.9951 29.8619c-.5976 0-1.1287-.0711-1.5129-.1897-.0285 0-.0427-.0284-.0379-.0569-.0015-.0253.014-.0485.0379-.0569.4935-.1308 1.0024-.1946 1.5129-.1897.5928.0048 1.1287.0759 1.5081.1897.0285.0095.0427.0332.0427.0569 0 .0285-.0142.0522-.0474.0617-.4903.1305-.996.1943-1.5034.1897" fill="#c09400"/><path d="m19.9892 29.7865c-.468.0032-.9347-.051-1.3896-.1612.3699-.0949.8537-.1518 1.3896-.1518.4708-.006.9405.0449 1.3991.1518-.37.0949-.8584.1612-1.3991.1612" fill="#ad1519"/><path d="m19.99 29.3736c-.5155-.0093-1.0296.0546-1.5271.1897.0332-.0142.0284-.0474-.0095-.1518-.0474-.1233-.1233-.1185-.1233-.1185.5415-.1431 1.0999-.2117 1.6599-.204.6545 0 1.2426.0807 1.6647.204 0 0-.0712-.0048-.1186.1185-.0427.0996-.0474.1423-.0142.1565-.3795-.1185-.9296-.1944-1.5319-.1944" fill="#c09400"/><path d="m19.9904 29.0891c-.56-.0072-1.1183.0614-1.6599.2039-.0237.0095-.0569 0-.0664-.0284-.0043-.0139-.0027-.0289.0045-.0415s.0193-.0216.0334-.0249c.4221-.1281 1.0244-.2087 1.6884-.2087.6687 0 1.2758.0806 1.6979.2087.0284.0094.0427.0426.0332.0664-.0095.0284-.038.0379-.0664.0284-.4221-.1233-1.0102-.1992-1.6599-.2039" fill="#c09400"/><path d="m19.5254 29.241c0-.0285.0237-.0522.0522-.0522.0332 0 .0569.0237.0569.0475 0 .0284-.0237.0521-.0569.0521-.0253-.0022-.0453-.0222-.0475-.0474" fill="#fff"/><path d="m19.9947 29.2786h-.1613c-.0284 0-.0522-.0237-.0522-.0474 0-.0285.0238-.0522.0475-.0522h.3272c.0134-.0013.0267.003.0367.0121.0099.009.0156.0219.0155.0353 0 .0285-.0237.0522-.0522.0522z" fill="#ad1519"/><path d="m19.1933 29.3214-.1186.0143c-.0284 0-.0569-.0143-.0569-.0475-.0013-.0134.0031-.0267.0121-.0366.0091-.01.0219-.0156.0353-.0155l.1139-.0143.1185-.0142c.0139-.0013.0277.003.0384.0119s.0173.0217.0185.0355c0 .0237-.0189.0475-.0474.0522l-.1185.0142" fill="#058e6e"/><path d="m18.7227 29.3312c0-.0237.0237-.0474.0521-.0474.0141-.0029.0288.0008.0399.01s.0173.023.017.0374c0 .0285-.0237.0522-.0569.0522-.0252-.0022-.0452-.0222-.0474-.0474" fill="#fff"/><path d="m18.3672 29.4257.0616-.0806.1613.0237-.1281.0949z" fill="#ad1519"/><path d="m20.7969 29.3216.1138.0142c.0284 0 .0569-.0142.0616-.0474.0014-.0134-.003-.0267-.0121-.0367-.009-.0099-.0219-.0156-.0353-.0155l-.1186-.0142-.1138-.0143c-.0332 0-.0569.019-.0616.0475 0 .0237.0189.0474.0474.0521z" fill="#058e6e"/><path clip-rule="evenodd" d="m20.4065 29.1888c-.0284 0-.0569.0237-.0569.0522.0012.0139.0079.0267.0186.0356s.0245.0131.0383.0118c.0285 0 .0522-.0237.0522-.0521 0-.0238-.0237-.0475-.0522-.0475zm.7972.0949c-.0237 0-.0475.0237-.0475.0522.0025.0269.0252.0475.0522.0474.0285 0 .0522-.0237.0522-.0522.0003-.0144-.006-.0282-.0171-.0374-.011-.0092-.0257-.0129-.0398-.01z" fill="#fff" fill-rule="evenodd"/><path d="m21.6127 29.4257-.0569-.0806-.1613.0237.1328.0949.0901-.038" fill="#ad1519"/><path d="m18.7847 28.1736.0711.0521.0996-.1612c-.125-.0749-.1953-.2155-.1802-.3604.0095-.2135.2656-.3842.5928-.3842.166 0 .3178.0474.4269.1186l.0095-.0901c-.1336-.0735-.2839-.1111-.4364-.1091-.3794 0-.6687.2087-.6829.4648-.0118.1442.0464.2854.1565.3794l-.0569.0948" fill="#c09400"/><path d="m18.7899 28.1737c-.122-.0825-.1977-.218-.204-.3652 0-.166.1044-.313.2704-.4078-.0971.0727-.159.1828-.1708.3035-.0118.1443.0465.2854.1565.3794l-.0474.0949" fill="#c09400"/><path d="m17.6654 28.3445c-.0753-.0813-.1175-.1879-.1185-.2987 0-.0664.0189-.1328.0474-.1897.0996-.2135.4268-.37.811-.37.1043 0 .2087.0095.2988.0332-.019.0237-.038.0475-.0475.0712-.0828-.0161-.167-.0241-.2513-.0237-.351 0-.645.1422-.7304.3225-.0244.0485-.0374.1021-.0379.1565.001.1106.0514.215.1375.2845l-.128.2087-.0712-.0569.0901-.1423" fill="#c09400"/><path d="m17.7932 27.6427c-.0842.05-.1531.1222-.1992.2087-.0307.0602-.0469.1268-.0474.1944 0 .1138.0474.2182.1186.2988l-.0807.1233c-.0727-.0918-.1128-.2053-.1138-.3225 0-.2039.1281-.3841.3225-.5027" fill="#c09400"/><path d="m19.9902 27.197c.0806 0 .1565.0569.1755.1328.0095.0664.0189.1422.0189.2229v.0569c0 .1707.0285.3177.0617.4126l-.2608.2466-.2609-.2466c.0332-.0949.0569-.2419.0617-.4126v-.0569c0-.0807.0094-.1565.0237-.2229.0142-.0759.0948-.1328.1755-.1328" fill="#c09400"/><path d="m19.9899 27.2727c.0426.0008.0795.0299.0901.0712.0116.0705.018.1419.019.2134v.0522c0 .1612.0237.3035.0569.3889l-.1707.1659-.1707-.1659c.0332-.0854.0569-.2277.0569-.3889v-.0522c0-.0759.0094-.147.0237-.2134.0095-.038.0474-.0664.0948-.0664" fill="#c09400"/><path d="m21.1857 28.1736-.0664.0522-.1044-.1612c.1269-.0736.1992-.2145.185-.3605-.0095-.2134-.2703-.3841-.5928-.3841-.1509-.0038-.2995.0374-.4269.1185-.0035-.0302-.0083-.0602-.0142-.0901.135-.0742.2871-.1118.4411-.109.3746 0 .6639.2086.6829.4647.0118.1443-.0464.2855-.1565.3794z" fill="#c09400"/><path d="m21.1808 28.1737c.128-.0948.2087-.2229.2087-.3652 0-.166-.1091-.313-.2704-.4078.1089.0816.1723.2102.1708.3462 0 .1328-.0617.2561-.1565.3414l.0474.0902" fill="#c09400"/><path d="m22.309 28.3445c.1211-.133.1493-.3263.0711-.4884-.1043-.2135-.4268-.37-.8157-.37-.1005-.0001-.2007.011-.2988.0332.0237.0237.038.0475.0522.0712.0812-.0159.1638-.0238.2466-.0237.3557 0 .6497.1422.7351.3225.0237.0474.038.0995.038.1565-.0022.1114-.0544.2159-.1423.2845l.1328.2087.0664-.0569-.0854-.1423" fill="#c09400"/><path d="m22.1805 27.6427c.0842.05.1531.1222.1992.2087.0305.0603.0467.1268.0474.1944 0 .1138-.0474.2182-.1185.2988l.0759.1233c.0744-.0912.1162-.2048.1185-.3225 0-.2039-.128-.3841-.3272-.5027" fill="#c09400"/><path d="m19.8954 28.0552c0-.0475.0427-.0901.0948-.0901.0474 0 .0901.0426.0901.0901-.0012.0239-.0119.0463-.0297.0623s-.0412.0243-.0651.023c-.0239.0013-.0474-.007-.0652-.023s-.0284-.0384-.0297-.0623" fill="#fff"/><path clip-rule="evenodd" d="m19.9888 27.3439c-.0284 0-.0474.0189-.0474.0426 0 .0238.019.038.0427.038s.0427-.0142.0427-.038c0-.0237-.0095-.0426-.038-.0426zm-.0552.185c0-.0237.0237-.0474.0522-.0474.0141-.0029.0287.0008.0398.01.0111.0093.0174.023.0171.0374 0 .0285-.0237.0522-.0569.0522-.0253-.0022-.0453-.0222-.0475-.0474zm.0516.0995c-.0379 0-.0711.0285-.0711.0664v.0048c0 .0379.0332.0664.0711.0664.0427 0 .0759-.0285.0759-.0664 0-.0427-.0332-.0712-.0759-.0712zm-.0602.1889c-.0178.016-.0285.0385-.0297.0624l-.0047.0047c.0012.0239.0119.0464.0297.0624s.0412.0243.0651.023c.0239.0013.0474-.007.0652-.023.0177-.016.0284-.0385.0297-.0624 0-.0498-.0404-.0901-.0901-.0901-.0239-.0013-.0474.007-.0652.023z" fill="#fff" fill-rule="evenodd"/><path d="m19.9944 28.5816.0616.0095c-.0208.0716-.0068.149.038.2087s.1151.0948.1897.0948c.1016.002.1931-.0609.2276-.1565 0 0 .019-.0806.0285-.0806s.0095.0901.0142.0901c.0143.1138.1186.1897.2372.1897.0667.0017.131-.0254.1764-.0744s.0675-.1152.0607-.1817l.0711-.0711.0427.0948c-.0155.0292-.0236.0618-.0237.0949.0012.0591.0259.1153.0686.1562s.0999.0632.159.0619c.0747 0 .145-.0351.1897-.0948l.0475-.0617v.0759c0 .0711.0332.1423.1043.1518 0 0 .0854.0047.1945-.0807.0632-.0483.1219-.1023.1754-.1612l.0095.0901s-.0948.1423-.1897.1992c-.0569.0332-.1423.0664-.2087.0522-.0711-.0095-.1233-.0664-.147-.1281-.0517.0306-.1106.0469-.1707.0474-.1312.0033-.2521-.0711-.3083-.1897-.0693.0708-.1649.1095-.2639.1068-.0991-.0027-.1925-.0465-.2578-.121-.065.0586-.1496.0907-.2371.0901-.1147.0012-.2227-.0537-.2893-.147-.0671.0922-.1753.1454-.2893.1423-.0869.0019-.1714-.0286-.2371-.0854-.0653.0745-.1588.1183-.2578.121s-.1946-.036-.2639-.1068c-.0562.1186-.1771.193-.3083.1897-.0601-.0002-.1191-.0166-.1707-.0474-.0285.0617-.0759.1186-.147.1328-.0664.0095-.1518-.0237-.204-.0569-.1043-.0569-.1944-.2039-.1944-.2039l.0095-.0854s.0616.0711.1707.1612c.1138.0854.1992.0807.1992.0807.0711-.0095.1043-.0807.1043-.1518v-.0759l.0474.0617c.0443.0603.1149.0956.1898.0948.1233 0 .2276-.0948.2276-.2181 0-.0332-.0095-.0664-.0237-.0949l.0379-.0948.0759.0711v.0285c.0013.0616.0269.1202.0714.1629s.1041.066.1657.0647c.1186 0 .2229-.0806.2372-.1897 0 0 0-.0901.0095-.0901.0094 0 .0332.0854.0332.0806.0345.0956.126.1585.2276.1565.0754.0021.1471-.0325.1923-.0928.0453-.0604.0585-.1389.0353-.2107z" fill="#c09400"/><path clip-rule="evenodd" d="m19.3933 28.6765c-.0047-.0427.0142-.0759.0474-.0806.0285-.0048.0569.0237.0617.0664.0047.0474-.0143.0806-.0474.0853-.0285 0-.057-.0284-.0617-.0711zm1.1554-.0806c.0332.0047.0522.0379.0427.0806h.0047c-.0047.0427-.0332.0711-.0616.0711-.0332-.0047-.0522-.0379-.0475-.0853.0048-.0427.0332-.0712.0617-.0664zm1.0582.1944c.0285.0047.0427.0474.0285.0853-.0142.0427-.0522.0664-.0806.0569-.0237-.0047-.038-.0474-.0237-.0853.0095-.0427.0474-.0664.0758-.0569zm-3.2245-.0049c-.0332.0142-.0427.0521-.0332.0948h.0047c.0143.038.0475.0617.0759.0569.0285-.0094.0427-.0521.0285-.0901-.0143-.0427-.0475-.0664-.0759-.0616z" fill="#fff" fill-rule="evenodd"/><path d="m18.8033 28.188c.0538.0322.0942.0827.1138.1423 0 0 0-.0095.0332-.0285.0284-.0142.0522-.0142.0522-.0142l-.0095.0664c-.0048.0142-.0048.0664-.019.1091-.006.0295-.0155.0581-.0285.0853-.0206-.0186-.0483-.0273-.0758-.0237-.0282.005-.0526.0224-.0664.0475 0 0-.0332-.0285-.0569-.0664l-.057-.1044-.0332-.0569h.0522c.0332.0047.0474.0142.0474.0142-.0071-.0624.0099-.1251.0475-.1754" fill="#c09400"/><path clip-rule="evenodd" d="m18.9746 28.6006c.0035.0195.0002.0396-.0095.0569h-.0047s.0474.0237.0948.0332c.0332.0142.0949.0142.1139.0142h.0569c-.0152-.0206-.0279-.0429-.038-.0664.0593-.0146.1115-.0499.147-.0996-.0511-.0359-.1132-.0527-.1754-.0474l.0095-.0427v-.0284l-.0475.0189-.1091.0475c-.0379.0237-.0711.0616-.0711.0616.0172.0126.029.0313.0332.0522zm-.1795.0286c.0046.0208.0164.0393.0332.0522 0 0-.0332.0332-.0758.0617-.019.0126-.0506.0253-.0752.0351-.0123.0049-.0228.0091-.0292.0123l-.0474.019v-.0332l.0095-.038c-.0607.0042-.1209-.0125-.1707-.0474.0335-.0505.0839-.0875.1422-.1043l-.0237-.0332-.0142-.0285h.0569c.019 0 .0806 0 .1138.0095l.0901.0332c-.0113.0184-.0147.0407-.0095.0616z" fill="#c09400" fill-rule="evenodd"/><path d="m18.7793 28.6148c0-.0569.0474-.0996.1043-.0996.0617 0 .1091.0427.1091.0949 0 .0569-.0474.1043-.1091.1043-.0558.0001-.1018-.0438-.1043-.0996" fill="#ad1519"/><path d="m19.9902 28.0269c.0538.0475.0877.1135.0949.1849 0 0 .0094-.0142.0474-.0284.0379-.0143.0569-.0048.0569-.0048l-.0237.0664c-.0095.019-.019.0759-.0427.1233-.0124.0302-.0283.0589-.0474.0854-.0222-.0231-.0534-.0352-.0854-.0332-.0285 0-.0616.0142-.0806.0332 0 0-.0285-.0332-.0474-.0854-.0238-.0474-.0332-.1043-.0427-.1233l-.0285-.0664s.0285-.0047.0617.0095c.0379.0095.0474.0237.0474.0237.006-.0731.04-.141.0948-.1897" fill="#c09400"/><path clip-rule="evenodd" d="m21.0717 28.3303c.0186-.0613.0591-.1137.1138-.147.0376.0503.0546.113.0474.1754 0 0 .0095-.0095.0427-.0142h.0569l-.0332.0569-.0569.1044-.0569.0664c-.0138-.0251-.0382-.0425-.0664-.0475-.0275-.0036-.0553.0051-.0759.0237l-.0332-.0853-.0142-.1091-.0095-.0664s.0237 0 .0522.0142zm-1.158.2515c-.0167-.0163-.0269-.0383-.0284-.0616 0-.0285.0094-.0474.0284-.0664 0 0-.0474-.0332-.0948-.0522-.0292-.0146-.0752-.0236-.1036-.0291-.0085-.0016-.0154-.003-.0197-.0041l-.0617-.0142.0047.0332.019.0474c-.0711 0-.1375.038-.1849.0854.0509.0502.1182.0805.1897.0854l-.0238.0474-.0094.0284.0664-.0095.1233-.0332zm.1566 0c.0142-.0142.0237-.0379.0237-.0616.0009-.0244-.0076-.0481-.0237-.0664 0 0 .0474-.0332.0948-.0522.0292-.0146.0753-.0236.1036-.0291.0085-.0016.0154-.003.0198-.0041l.0616-.0142-.0095.0332c-.0052.0162-.0115.0321-.0189.0474.0717.0035.1395.034.1897.0854-.051.0502-.1183.0805-.1897.0854l.0189.0474.0095.0284-.0616-.0095-.1234-.0332c-.0332-.016-.065-.0351-.0948-.0569z" fill="#c09400" fill-rule="evenodd"/><path clip-rule="evenodd" d="m21.01 28.6006c-.0021.02.0029.0402.0142.0569 0 0-.0427.0237-.0901.0332-.0332.0142-.0948.0142-.1138.0142h-.0569c.0039-.0098.0087-.0194.0142-.0284l.019-.038c-.0569-.0142-.1091-.0521-.1423-.0996.0511-.0359.1132-.0527.1755-.0474 0 0-.0095-.019-.0095-.0427v-.0284l.0474.0189c.019.0048.0759.0285.1044.0475.0379.0237.0711.0616.0711.0616-.0142.0095-.0285.0285-.0332.0522zm.1852.0287c-.0047.0189-.0189.0379-.0332.0521.0219.0226.0457.0432.0712.0617l.1091.0474.0474.019v-.0332l-.0095-.0379c.0607.0042.1209-.0126.1707-.0475-.0347-.0514-.087-.0885-.147-.1043l.0285-.0332.0094-.0285h-.0521c-.0237 0-.0806 0-.1186.0095l-.0854.0332c.0109.0186.0143.0407.0095.0617z" fill="#c09400" fill-rule="evenodd"/><path clip-rule="evenodd" d="m21.0985 28.5152c-.0569 0-.1044.0427-.1044.0996.0026.0558.0486.0997.1044.0996.0616 0 .1091-.0474.1091-.1043 0-.0522-.0475-.0949-.1091-.0949zm.9576.3321c.0379-.0332.0901-.038.1138-.0143.0237.0285.0142.0759-.0237.1091s-.0901.0332-.1138.0095-.0143-.0711.0237-.1043z" fill="#ad1519" fill-rule="evenodd"/><path clip-rule="evenodd" d="m17.9274 28.8471c.0176.0132.0308.0314.0379.0522.0283.0048.0568.008.0854.0095.0252.0031.065-.0021.0945-.006.0149-.0019.0272-.0035.0336-.0035l.0616-.0095-.019-.0237-.0426-.038c.0545-.0194.1001-.0582.128-.109-.0604-.0232-.1255-.0314-.1897-.0237-.0024-.0237-.0024-.0475 0-.0712l-.0664.038c-.0332.0142-.0948.0474-.1186.0806-.0237.0332-.0426.0806-.0426.0806s.0332-.1091 0-.185c-.0285-.0758-.0949-.0901-.0949-.0901l-.0095.0522c-.0284-.0332-.0759-.0569-.1233-.0569-.0786 0-.1423.0637-.1423.1423 0 0 .1044-.0143.1708.0237.0664.0379.1138.1375.1138.1375.0023-.0052.0055-.01.0095-.0142.0237-.0237.0759-.019.1138.0142zm4.1317.0001c-.0142.0142-.0332.0332-.0332.0522-.0283.0048-.0568.008-.0854.0095-.0285.0031-.0677-.0022-.0962-.006-.0141-.002-.0255-.0035-.0318-.0035l-.0664-.0095.0237-.0237.0379-.038c-.0545-.0194-.1001-.0582-.128-.109.0604-.0232.1255-.0314.1897-.0237v-.0712l.0664.038c.0457.019.0875.0464.1233.0806.0237.0332.0379.0806.0379.0806s-.0284-.1091 0-.1897c.0285-.0711.0949-.0854.0949-.0854l.0142.0522c.0237-.0332.0712-.0569.1186-.0569.0385-.0013.076.0131.1037.0399.0277.0269.0433.0638.0433.1024 0 0-.1091-.0143-.1707.0237-.0617.0379-.1186.1375-.1186.1375l-.0095-.0142c-.019-.0237-.0759-.019-.1138.0142z" fill="#c09400" fill-rule="evenodd"/><path clip-rule="evenodd" d="m19.9958 28.4204c-.0617 0-.1091.0426-.1091.0996.0026.0557.0485.0996.1044.0996.0616 0 .109-.0522.109-.1044s-.0426-.0948-.1043-.0948zm-2.0685.4268c-.0379-.0332-.0854-.0379-.1091-.0095l-.0047-.0047c-.0237.0284-.0142.0759.0284.1091.038.0332.0854.0379.1139.0094.0189-.0237.0142-.0711-.0285-.1043z" fill="#ad1519" fill-rule="evenodd"/><path d="m19.7715 27.0024c0-.1138.0948-.204.2181-.204.1186 0 .2135.0949.2135.204-.0013.0553-.0245.1079-.0645.1462-.04.0382-.0936.059-.149.0577-.0561.0026-.1109-.0176-.152-.056s-.0649-.0917-.0661-.1479" fill="#005bbf"/><path d="m19.9336 26.4333v.1091h-.1233v.1091h.1185v.3225h-.1517l-.0095.0285c0 .0284.0095.0569.0189.0806h.3937c.012-.0252.0185-.0527.019-.0806l-.0095-.0285h-.1423v-.3177h.1138v-.1091h-.1138v-.1091h-.1186z" fill="#c09400"/><path d="m20.0089 35.6008c-.6213-.003-1.234-.1457-1.7928-.4174-.394-.1897-.646-.587-.6497-1.0244v-1.622h4.8754v1.6125c0 .4506-.2561.8395-.6497 1.0339-.5557.2703-1.1653.4113-1.7832.4126" fill="#e9e9e9"/><path d="m20 32.537h2.4424v-2.7033h-2.4424z" fill="#e9e9e9"/><path d="m19.9983 34.1543c-.0075.3145-.1396.6131-.3673.8301-.2278.2171-.5324.3347-.8469.3271-.6734 0-1.2236-.5217-1.2236-1.1572v-1.6173h2.4378v1.6125" fill="#ad1519"/><path d="m18.0918 35.1123c.0806.038.185.1044.294.1328l-.0047-2.7649h-.2846v2.6274z" fill="#c09400"/><path d="m17.5566 34.1351c.0067.2778.107.5452.2846.7589v-2.3998h-.2798v1.6409z" fill="#c09400"/><path d="m18.6387 35.3068c.1138.0095.1944.0095.2845 0v-2.8266h-.2845z" fill="#c7b500"/><path d="m19.1738 35.2404c.1042-.0245.2036-.0662.2941-.1233v-2.6369h-.2846l-.0095 2.7649z" fill="#c09400"/><path d="m17.5605 32.537h2.4378v-2.7033h-2.4378z" fill="#ad1519"/><path d="m19.7333 34.8657c.1185-.1043.2323-.3462.2703-.6165l.0095-1.769h-.2846v2.3808z" fill="#c09400"/><path d="m22.4472 32.537v1.6125c-.0087.3158-.1425.6151-.372.8322-.2295.217-.5359.334-.8516.325-.6735 0-1.2236-.5217-1.2236-1.1572v-1.6125z" fill="#ad1519"/><path clip-rule="evenodd" d="m21.5404 33.7558v.0664h-.0697-.1295c-.0036.01-.0084.0196-.0143.0285l.2102.2354.0268.0303-.0662.0473-.2324-.2656-.0095.0047v.4411h-.0845v-.0758l-.0009.0002v-.3655l-.0095-.0047-.232.2599-.0052.0056-.0663-.0474.2419-.2703c-.0041-.0075-.0073-.0155-.0095-.0237h-.1322l-.0285.0806h-.2276l-.0237-.0806h.0664.1369v-.0664zm-1.1045.2706v-.1236c.0398-.0114.0717-.0415.0854-.0806h.1565.0664v-.0664h-.2988l.0047.0285c0 .0284-.0237.0521-.0569.0521-.0284 0-.0569-.0237-.0569-.0521 0-.0095 0-.019.0095-.0237h-.0806c-.0098.0632.0287.124.0901.1422v.1945h.0802v.0571l.0143.1375.0853-.0284s-.0142-.1471-.0142-.1091v-.1091zm0 0-.0004-.0001v.071h.0004zm.3741.2596.1137-.1224.0001.0001.0051-.0057.0432-.0465.0474.0711-.1518.166-.0806-.0332v-.0039zm-.0802-.0278.0431-.0469.0616.0474-.0245.0273-.0229.0247v.0008l-.1612.1796c.0316.0421.0316.1001 0 .1423.0448.049.0958.0921.1517.128h.0037l.0008.0005-.0424.0707c-.0689-.043-.1312-.0958-.185-.1565-.0425.0116-.0881.0028-.1233-.0238-.0273-.0196-.045-.05-.0486-.0835-.0037-.0334.0071-.0669.0296-.0919l.0095-.0095c-.0251-.0547-.0437-.112-.0555-.1709h.0027l-.0029-.0006c-.0039-.0199-.0071-.0399-.0095-.06l-.0006-.0104h.0848c.0059.0719.0235.1424.0522.2087.0237-.0043.0481-.0027.0711.0047l.1609-.1756.0001.0002zm0 0 .1756-.1987-.0806-.0332-.147.166.0473.071zm-.3656.0372.0002.0011h.002l-.0002-.0006zm0 0-.0804-.0178-.0143-.2182.0854-.0284v.1233c0 .0237 0 .0475.0012.0712h-.0006l.0012.0104c.0013.0198.0036.0397.0075.0595zm.4179.4665c.0562.0358.1169.0643.1805.0849l.0189-.0806c-.0729-.0218-.1418-.0554-.2039-.0996l-.0569.0474v.0047c.0195.0152.0398.0295.0606.0427h.0011zm.3883-.2285-.0845-.0234v-.2182l.0845-.0235v.0756h.0009v.1282h-.0009zm.3287.3855c-.0498.0168-.1011.0292-.1532.037-.0173.0582-.072.0973-.1328.0948-.059.0004-.1112-.0383-.128-.0948-.0783-.0104-.1549-.0311-.2277-.0617l.038-.0711c.0616.0284.128.0474.1992.0569.014-.0334.0416-.0593.0758-.0712v-.2754l.0009.0003v-.0616h.0845v.3367c.0343.0111.0631.0349.0806.0664h.0048c.0617-.0086.1222-.0245.1802-.0474l.042.0654c-.0214.0091-.0432.0173-.0654.0246zm.2119-.1054c.0114-.0076.0226-.0155.0337-.0237l.0189.0853c-.0635.0429-.132.078-.2039.1044l-.0606-.0606c.022-.0074.0436-.0156.065-.0247l-.0007-.001c.0412-.0174.0809-.0379.119-.0613l.0003.0007c.0096-.0062.019-.0126.0283-.0191zm.3429-.5173c-.0105.0595-.0295.1166-.0534.1712l.0047.0095c.0231.0244.0346.0574.0319.0909-.0027.0334-.0194.0641-.0461.0845-.0332.0285-.0806.038-.128.0237-.045.0519-.096.098-.152.1375-.0094.0063-.019.0125-.0286.0184l-.0423-.0705c.0576-.0355.1102-.0786.1565-.128-.0331-.0411-.035-.0991-.0048-.1423l-.2039-.2324.0606-.0466.0454.0514h.0024l.1572.1754c.0229-.0074.0474-.009.0711-.0047.0209-.0458.0365-.0937.0467-.1428l.0016.0005.001-.0138c.0032-.0174.0058-.035.0076-.0526h.0783l-.0071.071zm.0136-.2651.0801.0283-.0095.2134-.0842.0234c.0041-.0232.0069-.0468.0082-.0707h-.0023l.0072-.0712v-.057h.0005zm-.3937-.2089h-.1334-.0697l.0237.0806h.2277l.0237-.0806h.1557c.0095.0379.0427.0664.0806.0806v.1236l-.0851.0189v.1091c0-.038-.0142.1091-.0142.1091l.0885.0279.0026-.0133.0085-.1237v-.0571h.0846v-.0663l.0005.0001v-.1283c.0541-.0145.0926-.0625.0948-.1185l-.0095-.0285h-.0758c.0078.0169.0068.0366-.0027.0527-.0094.0161-.0262.0265-.0448.0279-.0379 0-.0616-.0237-.0616-.0521l.0047-.0238h-.2988zm.3086.2751h-.0003v-.0709l.0003-.0001zm-.3086-.2751h.072zm.0225.4413-.0468-.0522-.001.0008-.0846-.0957.0002-.0002-.027-.0301-.0234-.0266.0806-.0332.1518.166-.0475.0712zm-1.2212.2609c.0093-.0121.0231-.0199.0383-.0216.0152-.0018.0304.0026.0423.0121.0119.009.019.023.019.038 0 .0149-.0071.0289-.019.0379-.02.0204-.0514.0243-.0759.0095-.0111-.0092-.0179-.0226-.0188-.0369-.0009-.0144.0042-.0285.0141-.039zm.1973.2654.0041.003-.0183.0823c.062.0426.1289.0776.1992.1044l.0617-.0617c-.0869-.0288-.1687-.071-.2426-.125l.0007-.003zm1.2384-.287c.014.0016.0268.0083.036.0188.0105.009.0165.0221.0165.036 0 .0149-.007.029-.0189.0379-.0237.0238-.0617.019-.0806-.0047-.0099-.0105-.015-.0246-.0141-.039.0009-.0143.0077-.0277.0188-.0369.0119-.0095.0271-.0139.0423-.0121zm-.4496.344c.0858-.0289.1659-.0722.2371-.1281l.0048-.0047-.0617-.0474c-.062.0442-.1309.0778-.2039.0996zm.0882-.4982.0806-.0332v-.0047l-.1802-.1992-.0475.0711zm-.3315.5266c-.0332 0-.0569.0238-.0569.0522h-.0048c0 .0285.0238.0569.057.0569s.0569-.0237.0569-.0569c0-.0284-.0237-.0522-.0522-.0522zm.038-.3368.0853-.0237v-.2229l-.0853-.0237v.2656z" fill="#c09400" fill-rule="evenodd"/><path clip-rule="evenodd" d="m20.4506 32.997.3083.3463.0599-.0461.1396.1504.0474-.0712-.1517-.166-.0773.0364-.2646-.2972.0143-.0284h.2229v-.0758h.2034l-.0237-.0806h-.2277l-.0236.0805h-.1513c-.0186-.0547-.0703-.0911-.1281-.0901-.0348-.0013-.0686.0116-.0936.0358-.0251.0241-.0392.0574-.0392.0922 0 .0522.038.0996.0901.1186v.2656h.0807v-.2656h.0142zm.2272-.1517-.0001.0001h.0717v-.0001zm.099.4015-.0034.0016.0454.0488.0017-.0014zm.1049.4997v-.0047h.0742l.0016.0047zm.6592 0v.0095h-.6592v-.0095h-.137v-.0049h-.0655l.0222-.0758h.2277l.0268.076h.1345l.0095-.019-.2561-.2846.0616-.0474.2514.2751h.0142v-.2989l.0003.0001v-.0806h.0803v.3746h.0142l.198-.2207.0016.0024.0489-.0553.0598.046-.2466.2798.0142.0285h.1304l-.0014.0047zm.1388 0h-.1388v-.0047h-.0688l.0223-.076h.2277l.0223.0758h-.0647zm.3889-.2799v.1944c.0433.0142.0758.0503.0853.0949h-.0806c-.0047-.019-.0237-.0285-.0474-.0285-.0214-.0011-.0415.0099-.0522.0285h-.294v-.0094h.0661l-.0014-.0049h.1534c.0138-.0391.0456-.0691.0854-.0806v-.2703h.0852v.0759zm0 0 .0851-.0237v-.2181l-.0853-.0238v.1897h.0002zm-.5543-.0791.1313-.1486-.0854-.0332-.1422.166.0458.0687.0487-.0543zm-.343-.101h-.0003v.0805l-.0851-.0236v-.2182l.0854-.0237zm-.4921.4551-.0015.0049h.067v.0094h-.2988c-.0099-.0171-.0278-.0278-.0475-.0285-.0213-.0011-.0415.0099-.0521.0285h-.0796c.011-.0449.0478-.0764.0891-.0901v-.2751h.0806v.2703c.0427.0142.0759.0427.0853.0806zm-.4125.0143-.0011.0047v-.0047zm1.7957-.4886v-.2608c.0569-.0143.0949-.0617.0949-.1186 0-.0711-.0569-.128-.1328-.128-.056.001-.1053.037-.1233.0901h-.2277v.0758h.2277c.0012.0049.0028.0096.0047.0143l-.3082.3557.0616.0474.0483-.0558v.0038l-.1803.2039.0854.0332.1423-.1659-.0471-.0754.2549-.2948c.0061.0037.0124.0069.019.0095v.1994l-.0853.0237v.2181l.0854.0237v-.1993zm-.0805 0v-.0663l-.0001.0001v.0662zm-.274.0197-.0003-.0005v.0009zm-.4504-.184v.0601h-.0055v-.0616zm.2149-.1723h-.1343c-.0128.0381-.0426.0679-.0806.0807v.0916l.0799.0222v.2182l-.0854.0237v-.204h-.0799v-.1517c-.0398-.0115-.0716-.0415-.0854-.0807h-.1353l.0014-.0048h-.07v-.071h.2039c.018-.0531.0674-.0891.1234-.0901.0616 0 .109.0379.128.0901h.2039v.071h-.0713zm0 0 .0268.0758h.2276l.0237-.0806h-.2085v.0048zm-.5896-.0048h-.2051l.0237.0806h.2277l.0223-.0758h-.0686zm-.6133.2942.0854-.0237v.0047.2609l-.0854-.0238zm.1719-.0191.0854.0238v.2181l-.0854.0237zm.2701.0949-.0474.0711.1422.166.0854-.0332zm-.365-.408c0-.0285.0238-.0569.0522-.0569.0332 0 .0569.0237.0569.0569s-.0237.0522-.0569.0522c-.0284 0-.0569-.0237-.0569-.0522zm1.6223 0c0-.0285.0284-.0569.0569-.0569.0332 0 .0569.0237.0569.0569s-.0237.0522-.0569.0522c-.0285 0-.0569-.0237-.0569-.0522zm-.7595-.0569c-.0285 0-.057.0284-.057.0569s.0285.0522.057.0522c.0332 0 .0569-.019.0569-.0522s-.0285-.0569-.0569-.0569zm.2627.0144-.0013.0047v-.0047zm0 0 .0224-.0806h.2324l.0237.0806z" fill="#c09400" fill-rule="evenodd"/><path d="m21.0801 33.7844c.0012-.034.0159-.0661.0408-.0892s.058-.0354.092-.0341c.0759 0 .1328.0521.1328.1233 0 .0348-.0142.0681-.0392.0922-.0251.0242-.0589.0371-.0936.0358-.0348.0013-.0686-.0116-.0937-.0358-.025-.0241-.0391-.0574-.0391-.0922" fill="#058e6e"/><path d="m21.2471 30.4975v-.0284l.0048-.019s-.0759.0095-.1186 0c-.0441-.0127-.0846-.0355-.1185-.0664-.038-.0332-.0522-.0474-.0807-.0569-.0664-.0095-.1138.019-.1138.019s.0474.0189.0854.0663c.0251.0314.0577.0559.0948.0712.0285.0095.1281 0 .1565.0047z" fill="#db4446"/><path d="m21.6113 30.3887v.0664c.0048.0332-.0095.0617 0 .0807l.0095.0474c.0095.0095.0142.0427.0142.0427l-.0379-.0285-.0285-.0189v.0474c.0048.0142.0143.0474.0285.0616.0142.0143.0427.0475.0474.0664.0143.019.0095.0664.0095.0664s-.019-.0332-.0427-.0427l-.0616-.0284s.0427.0379.0427.0759c0 .0332-.019.0758-.019.0758s-.0142-.0331-.038-.0521l-.0569-.0474s.0237.0569.0237.0948v.1233s-.0237-.0332-.0474-.0474l-.0474-.038c0-.0094.0237.0332.0285.057 0 .0237.0142.1138.0948.2276.0474.0664.1138.1802.2656.1423.1518-.038.0948-.2371.0616-.332-.0284-.0949-.0474-.2039-.0474-.2371.0048-.038.0332-.1423.0285-.166-.0093-.0535-.0077-.1084.0047-.1613.019-.0616.038-.0901.0474-.1138l.0238-.0664v-.0664l.0379.0712.0047.0711s.0048-.0522.0475-.0806c.0474-.0285.0948-.0569.1043-.0712l.019-.0237s-.0048.0949-.0332.1281l-.0854.1043s.0379-.0142.0617-.0142h.0426s-.0332.0237-.0711.0759c-.0379.0569-.0237.0616-.0474.109-.0332.0475-.0522.0475-.0901.0759-.0475.0474-.0237.2134-.0143.2371.0048.0238.0949.2324.0949.2846.0047.0474.0142.1565-.0759.2324-.0569.0474-.147.0474-.1707.0569-.019.0142-.0617.0569-.0617.1423s.0332.0996.0569.1233c.0237.019.0569.0095.0617.0237l.0237.0379c.0095.0095.019.0238.0142.038 0 .019-.0474.0616-.0569.0948-.0142.0285-.0474.1044-.0474.1186 0 .0095 0 .0474.0142.0664 0 0 .0427.0474.0095.0617-.019.0047-.0379-.0143-.0474-.0095l-.0474.0189c-.0143 0-.0143-.0094-.019-.0379l-.0048-.0332c-.0142 0-.0189.0095-.0189.0237 0 .0095 0 .0427-.0143.0427-.0142 0-.0284-.0237-.0426-.0285-.0095 0-.038-.0094-.0427-.0237 0-.0142.0189-.0427.0379-.0474.019 0 .038-.0142.0237-.0237-.0095-.0095-.0237-.0095-.0332 0s-.0379 0-.0379-.0142c0-.0143.0047-.0332 0-.038 0-.0095-.019-.0284.0095-.0427.0284-.0142.0379.0143.0664.0095.0284-.0047.0474-.0142.0521-.0332.0095-.0142.0095-.0474-.0094-.0711-.019-.0237-.038-.0237-.0475-.038l-.0142-.0474v.1138l-.0379-.0426c-.0143-.0143-.0285-.0664-.0285-.0664v.0664c0 .0189.019.0332.0095.0426-.0048.0048-.038-.0379-.0474-.0426-.0095-.0048-.038-.0285-.0475-.0475l-.0284-.0711c0-.0095-.0095-.0664 0-.0759l.019-.0569h-.0664c-.038 0-.0617-.0095-.0759.0142-.0143.0237-.0095.0759.0095.1423.0189.0617.0284.0949.0237.1043-.01.0178-.0229.0338-.038.0475l-.0474-.0048c-.0095-.0047-.0237-.0142-.0569-.0142h-.0664c-.0142 0-.0474-.019-.0569-.0142-.0142 0-.038.0142-.0332.0332.0095.0284-.0095.0379-.0237.0332l-.0475-.0095c-.0142-.0048-.0426 0-.0379-.019 0-.0237.0095-.0237.019-.0379.0095-.0143.0142-.0237 0-.0237h-.0332c-.0095.0094-.0237.0284-.0332.0237-.0142-.0095-.0237-.0237-.0237-.0522 0-.0332-.0332-.0617 0-.0617.0284 0 .0664.0238.0711.0095.0095-.0189 0-.0237-.0142-.0379s-.0332-.0237-.0142-.0379l.0379-.0285c.0095-.0047.019-.0379.0332-.0285.0332.0143 0 .0332.0332.0664.0284.0332.0474.0475.0996.0427.0474-.0047.0664-.0142.0664-.0284l-.0095-.0475.0095-.0474s-.0237.0142-.0285.0285l-.0237.0379v-.0996l-.0095-.0427-.0142.0475-.0047.0474s-.0332-.0237-.0238-.0712v-.0996c.0143-.0189.0427-.0806.1044-.0853h.1328l.0996-.0142s-.1423-.0712-.1755-.0949-.0854-.0806-.0996-.1043c-.019-.0285-.0332-.0759-.0332-.0759s-.0237 0-.0474.0142c-.0229.0125-.0437.0285-.0617.0474l-.0332.0475v-.0949s-.019.0617-.0474.0854l-.0711.0569v-.0474l.0094-.0475s-.0237.038-.0569.0475c-.0332.0094-.0901 0-.0948.0237 0 .0237.0095.0521 0 .0664-.0048.0189-.0237.0284-.0237.0284s-.019-.0189-.038-.0189c-.0189 0-.0332.0094-.0332.0094s-.0189-.0189-.0095-.0332c0-.0142.0332-.0332.0238-.0426-.0048-.0048-.0285.0047-.0427.0094-.0143.0095-.0427.0143-.038-.0094 0-.019.0095-.0332 0-.0475-.0047-.0142 0-.0284.0095-.0284.0095-.0048.0569 0 .0617-.0095 0-.0142-.0143-.0237-.0427-.0332-.0285-.0047-.0427-.0237-.0285-.0379l.0285-.0285c.0047-.0142.0095-.0379.0332-.0285.0284.0143.0237.0427.0474.0475.0285.0142.0949 0 .1091-.0048l.0711-.0474.0807-.0569-.0522-.038-.0474-.0521c-.0302-.0149-.0621-.026-.0949-.0332-.0237 0-.0854-.0237-.0854-.0237l.038-.0143c.0095-.0094.0332-.0284.0427-.0284h.0142-.0711c-.0143-.0095-.0475-.0285-.0617-.0285h-.0427s.038-.0189.0664-.0237l.0569-.0047s-.0474-.0143-.0616-.0285l-.0285-.0474c-.0095-.0095-.0142-.0285-.0284-.0285-.0143 0-.0427.019-.057.0143-.0142 0-.0237-.0095-.0284-.0332v-.0237c-.0095-.0143-.0332-.038-.0095-.0475h.0664c.0047-.0095-.0237-.0332-.0379-.0474-.019-.0047-.0475-.019-.0332-.0332l.0379-.0285c.0095-.0142.019-.0474.0379-.0332.0143.0095.0427.0617.0522.057.0142-.0048.019-.0427.0142-.057 0-.0142 0-.0474.0143-.0426.0142 0 .0237.0237.0474.0237.019 0 .0522-.0048.0474.0095 0 .0189-.0142.0379-.0284.0521-.0166.0218-.0203.0508-.0095.0759.0129.028.0324.0524.0569.0712.019.0142.0616.0237.0854.0379.0284.019.0901.0664.109.0711l.0427.0143s.0237-.0095.0522-.0095c.0332 0 .1043.0047.1328-.0048.0284-.0142.0616-.0332.0522-.0569-.0095-.0237-.0712-.0474-.0664-.0664.0047-.0189.0284-.0189.0664-.0237.0379 0 .0853.0095.0948-.0474.0095-.0474.0142-.0759-.0379-.0901-.0522-.0095-.0949-.0143-.0996-.0475-.0095-.0379-.019-.0474-.0095-.0616.0095-.0095.0284-.0142.0711-.0142.038-.0048.0806-.0048.0949-.0143.0095-.0094.0142-.0332.0284-.0474l.0712-.0142s.0711.0332.1422.0806c.057.0474.1091.1091.1091.1091" fill="#ed72aa"/><path d="m21.1041 30.3544-.0093-.0325-.0046-.0139s.0418 0 .0418.0093c0 .0139-.014.0139-.0186.0186 0 .0092-.0093.0139-.0093.0139" fill="#c09400"/><path d="m21.2988 30.2842v-.0237s.0332 0 .0522.0143c.0285.0189.0474.0474.0474.0474-.0095.0095-.0284-.0095-.0474-.0142h-.019c-.0095 0-.0142 0-.0189-.0095v-.0143z" fill="#c09400"/><path d="m20.5645 30.346s.0237.0142.0379.0142l.0427.0048s.0095-.0237.0047-.0474c-.0095-.057-.0616-.0664-.0616-.0664s.0142.0332.0047.0474c-.0095.0284-.0284.0474-.0284.0474" fill="#db4446"/><path d="m20.45 30.3934s-.0189-.0379-.0616-.0332c-.0474.0048-.0759.0427-.0759.0427h.0617c.0189.0142.0237.0474.0237.0474l.0332-.0284z" fill="#db4446"/><path d="m20.3985 30.5451s-.0379.0048-.0569.0285c-.0237.0237-.0189.0711-.0189.0711s.0237-.0284.0474-.0284l.0569.0094-.0142-.0426c0-.0143-.0143-.038-.0143-.038" fill="#db4446"/><path d="m21.1046 30.5397.0186-.0232.0139.0232z" fill="#c09400"/><path d="m21.1472 30.5395.0186-.0279.0185.0232h-.0371" fill="#c09400"/><path d="m21.1277 30.3789.0371.0139-.0325.0185z" fill="#c09400"/><path d="m21.1746 30.3931.0371.0092-.0279.0186z" fill="#c09400"/><path d="m20.522 31.0383s-.0189-.0237-.0569-.0142c-.0332 0-.0569.0474-.0569.0474l.0474-.0095c.019.0095.0285.0237.0285.0237l.0237-.0189z" fill="#db4446"/><path d="m20.4819 31.1808s-.0332 0-.057.0189c-.0284.019-.0284.0569-.0284.0569s.0237-.0189.0474-.0142l.038.0095.0047-.0285c.0047-.0189-.0047-.0426-.0047-.0426" fill="#db4446"/><path d="m20.5488 31.3134s0 .0379.019.0616c.019.0285.0569.0285.0569.0285l-.0142-.038c-.0048-.0189.0142-.0332.0142-.0332s-.019-.0189-.0332-.0189h-.0379" fill="#db4446"/><path d="m20.9101 31.655s-.0237-.0285-.0616-.0285c-.0332 0-.0712.0332-.0712.0332s.0475 0 .057.0095l.0189.0332.0285-.0142z" fill="#db4446"/><path d="m20.8053 31.7924s-.0474-.0048-.0711.0189-.019.0664-.019.0664.0285-.0332.0475-.0284c.0284 0 .0569.0142.0569.0142l-.0095-.0379c-.0029-.0112-.0061-.0223-.0095-.0332" fill="#db4446"/><path d="m20.9008 31.9396s-.0237.0284-.0048.0521c.0143.0285.0475.038.0475.038s-.0095-.019-.0048-.038c.0048-.0189.0332-.0379.0332-.0379z" fill="#db4446"/><path d="m21.5019 31.9963s-.0379-.0095-.0616 0c-.0237.0143-.038.0712-.038.0712s.0332-.0285.0617-.0285l.0474.0142v-.0379c-.0026-.0066-.0058-.0129-.0095-.019" fill="#db4446"/><path d="m21.5209 32.1433s-.0284.0285-.019.0569c.0082.0166.0178.0324.0285.0475 0 0 0-.0332.0142-.0475.0142-.0142.0474-.0142.0474-.0142l-.0332-.0284z" fill="#db4446"/><path d="m21.6735 32.1861s-.0142.038.0142.0617c.0285.0284.0522.0284.0522.0284s-.0237-.0379-.0143-.0616c.0048-.019.0238-.0332.0238-.0332l-.038-.0095z" fill="#db4446"/><path d="m20.1277 34.8846c.0996.0284.1518.1043.1518.1897 0 .1186-.1091.2039-.2561.2039-.1423 0-.2656-.0853-.2656-.1992 0-.0901.0474-.1897.1518-.1897 0 0 0-.0142-.0143-.0284l-.0284-.0332h.0616l.0332.0237.0285-.0332c.0142-.019.0332-.0285.0332-.0285l.0285.0332.0142.0285s.019-.019.0379-.0237l.0427-.0143-.0142.0332z" fill="#ffd691"/><path clip-rule="evenodd" d="m19.7232 35.2593c.0853.0143.275.1471.275.1471s-.1422.0474-.2987.0095c-.0607-.0212-.117-.0533-.166-.0949l-.0901-.0711c.0172.0015.0418.0005.0709-.0007.0587-.0025.1359-.0057.2089.0101zm.5828.0142c-.128.0142-.2513.1422-.2513.1422l.0474-.0047c.0092-.0023.0416-.0002.0843.0026.0459.0031.1036.0069.1576.0069.0906-.0041.1561-.0476.1874-.0683.0047-.0031.0087-.0057.0118-.0076.0284-.0237.0759-.0474.0759-.0474-.0056-.0014-.0115-.003-.0178-.0046-.059-.0156-.154-.0406-.2953-.0191z" fill="#058e6e" fill-rule="evenodd"/><path d="m20.0177 35.2593c-.0499-.0466-.0782-.1118-.0782-.1802 0-.0683.0283-.1336.0782-.1802.0508.0462.08.1116.0806.1802-.0006.0687-.0298.134-.0806.1802" fill="#ad1519"/><path d="m19.9707 35.5249s.0285-.0759.0332-.1423l-.0095-.1043h.038s.0189.0569.0189.1043l-.0095.1186-.0332.0047-.0379.0143" fill="#058e6e"/><g fill="#fff"><path d="m22.418 28.5249c0-.0285.0189-.0475.0474-.0475.0332 0 .0569.019.0569.0475 0 .0284-.0237.0521-.0569.0521-.0262 0-.0474-.0212-.0474-.0474"/><path d="m22.4844 28.3966c0-.0284.0284-.0474.0569-.0474.0262 0 .0474.0212.0474.0474 0 .0285-.019.0474-.0474.0474-.0139.0014-.0277-.0029-.0383-.0118-.0107-.0089-.0174-.0217-.0186-.0356"/><path d="m22.5371 28.2497c0-.0285.0237-.0475.0474-.0475.0142-.0029.0288.0008.0399.0101.0111.0092.0173.0229.017.0374 0 .0284-.0237.0474-.0521.0474-.0271.0001-.0497-.0205-.0522-.0474"/><path d="m22.541 28.0882c0-.0284.0237-.0474.0522-.0474.0134-.0013.0267.003.0366.0121.01.009.0156.0219.0156.0353 0 .0285-.0238.0474-.0475.0474-.0332 0-.0569-.0189-.0569-.0474"/><path d="m22.5039 27.9321c0-.0285.0237-.0475.0474-.0475.0142-.0028.0288.0008.0399.0101.0111.0092.0173.023.017.0374 0 .0284-.0237.0474-.0521.0474-.0271.0001-.0497-.0205-.0522-.0474"/><path d="m22.418 27.785c0-.0237.0237-.0474.0569-.0474.0262 0 .0474.0212.0474.0474 0 .0285-.019.0522-.0474.0522-.0139.0013-.0277-.003-.0384-.0119-.0106-.0089-.0173-.0217-.0185-.0355"/><path d="m22.3086 27.6712c0-.0285.0237-.0474.0569-.0474.0262 0 .0474.0212.0474.0474 0 .0237-.0189.0474-.0474.0474-.0138.0013-.0276-.0029-.0383-.0118s-.0174-.0218-.0186-.0356"/><path d="m22.1816 27.5716c0-.0285.0285-.0475.057-.0475.0284 0 .0521.019.0521.0475 0 .0284-.0237.0474-.0521.0474-.0134.0013-.0267-.0031-.0367-.0121-.0099-.0091-.0156-.0219-.0155-.0353"/><path d="m22.0332 27.4908c0-.0285.0237-.0475.0474-.0475.0332 0 .0569.019.0569.0475 0 .0284-.0237.0474-.0521.0474-.0271.0001-.0497-.0205-.0522-.0474"/><path d="m21.873 27.434c0-.0284.0238-.0474.057-.0474.0261 0 .0474.0212.0474.0474 0 .0285-.019.0474-.0474.0474-.0139.0014-.0277-.0029-.0384-.0118s-.0174-.0217-.0186-.0356"/><path d="m21.6973 27.4055c0-.0285.0237-.0522.0521-.0522.0332 0 .0569.0237.0569.0474 0 .0332-.0237.0522-.0569.0522-.0252-.0022-.0452-.0222-.0474-.0474"/><path d="m21.5312 27.396c0-.0285.0238-.0474.0522-.0474.0141-.0029.0288.0008.0399.01.011.0092.0173.023.017.0374 0 .0284-.0237.0474-.0569.0474-.0252-.0022-.0452-.0222-.0474-.0474"/><path d="m21.3691 27.4007c0-.0284.0238-.0474.0475-.0474.0332 0 .0569.019.0569.0474 0 .0285-.0237.0475-.0522.0475-.027.0001-.0497-.0205-.0522-.0475"/><path d="m21.2031 27.4007c0-.0284.0237-.0474.0522-.0474s.0522.019.0522.0474c0 .0285-.0237.0475-.0475.0475-.0138.0013-.0276-.003-.0383-.0119s-.0174-.0217-.0186-.0356"/><path clip-rule="evenodd" d="m21.2852 27.5428c0-.0284.0237-.0521.0521-.0521.0332 0 .0569.0237.0569.0474 0 .0284-.0237.0522-.0521.0522-.0139.0013-.0277-.003-.0384-.0119s-.0173-.0217-.0185-.0356zm.0332.152c0-.0285.0237-.0474.0569-.0474.0284 0 .0474.0189.0474.0474s-.019.0474-.0474.0474c-.0139.0013-.0277-.0029-.0384-.0118s-.0173-.0217-.0185-.0356zm.0572.1092c-.0238 0-.0475.019-.0475.0475.0025.0269.0251.0475.0522.0474.0285 0 .0522-.019.0522-.0474.0003-.0145-.006-.0282-.0171-.0374-.0111-.0093-.0257-.013-.0398-.0101zm-.0954.1893c0-.0284.019-.0521.0475-.0521.0141-.0029.0287.0008.0398.01s.0174.023.0171.0374c0 .0332-.0237.0522-.0522.0522-.0138.0013-.0276-.003-.0383-.0119s-.0174-.0217-.0186-.0356zm-.0377.0809c-.0332 0-.057.0189-.057.0474.0012.0139.0079.0267.0186.0356s.0245.0131.0384.0118c.0284 0 .0474-.0189.0474-.0474s-.019-.0474-.0474-.0474z" fill-rule="evenodd"/><path d="m21.0801 27.301c0-.0237.0237-.0474.0521-.0474.0285 0 .0522.019.0522.0474 0 .0285-.0237.0522-.0474.0522-.0139.0013-.0277-.003-.0383-.0119-.0107-.0089-.0174-.0217-.0186-.0355"/><path d="m20.9336 27.2254c0-.0332.0237-.0522.0522-.0522.0332 0 .0569.019.0569.0474 0 .0285-.0237.0522-.0522.0522-.0138.0013-.0276-.003-.0383-.0119s-.0174-.0217-.0186-.0355"/><path d="m20.7715 27.1779c0-.0332.0237-.0521.0569-.0521.0285 0 .0474.0189.0474.0474s-.0189.0474-.0474.0474c-.0139.0013-.0277-.0029-.0383-.0118-.0107-.0089-.0174-.0217-.0186-.0356"/><path d="m20.6055 27.1447c0-.0285.0237-.0474.0521-.0474.0332 0 .0569.0189.0569.0474s-.0237.0474-.0569.0474c-.0252-.0022-.0452-.0222-.0474-.0474"/><path d="m20.4453 27.1495c0-.0284.0237-.0474.0522-.0474.0284 0 .0522.019.0522.0474 0 .0285-.0238.0475-.0522.0475-.0271.0001-.0497-.0205-.0522-.0475"/><path d="m20.2734 27.1778c0-.0284.0238-.0474.0522-.0474.0134-.0014.0267.003.0367.0121.0099.009.0155.0219.0155.0353 0 .0285-.0237.0474-.0474.0474-.0139.0014-.0277-.0029-.0384-.0118s-.0174-.0217-.0186-.0356"/><path d="m20.1172 27.23c0-.0285.0237-.0475.0522-.0475.0284 0 .0521.019.0521.0475 0 .0284-.0237.0474-.0521.0474-.0271.0001-.0498-.0205-.0522-.0474"/><path d="m17.4531 28.5249c0-.0285.0237-.0474.0522-.0474.0134-.0014.0267.003.0366.0121.01.009.0156.0218.0156.0353 0 .0284-.0237.0522-.0475.0522-.0141.0028-.0287-.0009-.0398-.0101s-.0174-.023-.0171-.0374"/><path d="m17.3809 28.3966c0-.0284.0237-.0474.0474-.0474.0332 0 .0569.019.0569.0474 0 .0285-.0237.0474-.0522.0474-.0133.0014-.0267-.003-.0366-.0121-.01-.009-.0156-.0218-.0155-.0353"/><path d="m17.3301 28.2496c0-.0285.0237-.0474.0569-.0474.0262 0 .0474.0212.0474.0474 0 .0284-.019.0474-.0474.0474-.0139.0013-.0277-.0029-.0383-.0118-.0107-.0089-.0174-.0218-.0186-.0356"/><path d="m17.3242 28.0883c0-.0284.0237-.0474.0522-.0474.0332 0 .0569.019.0569.0474 0 .0285-.0237.0475-.0569.0475-.0285 0-.0474-.019-.0474-.0475"/><path d="m17.3633 27.9321c0-.0285.0237-.0475.0569-.0475.0284 0 .0474.019.0474.0475 0 .0284-.019.0474-.0474.0474-.0139.0013-.0277-.003-.0383-.0119-.0107-.0089-.0174-.0217-.0186-.0355"/><path d="m17.4473 27.785c0-.0238.0237-.0475.0474-.0475.0141-.0029.0288.0008.0398.0101.0111.0092.0174.023.0171.0374 0 .0284-.0237.0521-.0522.0521-.027.0001-.0497-.0205-.0521-.0474"/><path d="m17.5566 27.6712c0-.0285.0238-.0474.0522-.0474.0285 0 .0522.0189.0522.0474 0 .0237-.0237.0474-.0522.0474-.0284 0-.0522-.019-.0522-.0474"/><path d="m17.6844 27.5716c0-.0285.0238-.0475.0475-.0475.0332 0 .0569.019.0569.0475 0 .0284-.0237.0474-.0522.0474-.0141.0029-.0288-.0008-.0398-.0101-.0111-.0092-.0174-.0229-.0171-.0373"/><path d="m17.832 27.4908c0-.0285.0237-.0475.0569-.0475.0262 0 .0475.0213.0475.0475 0 .0284-.019.0474-.0475.0474-.0138.0013-.0276-.003-.0383-.0119s-.0174-.0217-.0186-.0355"/><path d="m17.9941 27.434c0-.0284.0238-.0474.0475-.0474.0332 0 .0569.019.0569.0474 0 .0285-.0237.0474-.0522.0474-.027.0002-.0497-.0204-.0522-.0474"/><path d="m18.168 27.4053c0-.0285.0237-.0522.0521-.0522.0134-.0013.0267.0031.0367.0121.0099.0091.0156.0219.0155.0353 0 .0332-.0237.0522-.0522.0522-.027.0001-.0497-.0205-.0521-.0474"/><path d="m18.334 27.3959c0-.0285.0237-.0475.0522-.0475.0284 0 .0521.019.0521.0475 0 .0284-.0237.0474-.0474.0474-.0139.0013-.0277-.003-.0383-.0119-.0107-.0089-.0174-.0217-.0186-.0355"/><path d="m18.4961 27.4007c0-.0284.0237-.0474.0569-.0474.0262 0 .0474.0212.0474.0474 0 .0285-.0189.0475-.0474.0475-.0138.0013-.0276-.003-.0383-.0119s-.0174-.0217-.0186-.0356"/><path d="m18.6621 27.4007c0-.0284.0237-.0474.0522-.0474.0284 0 .0569.019.0569.0474 0 .0285-.0237.0475-.0569.0475-.0271.0001-.0497-.0205-.0522-.0475"/><path clip-rule="evenodd" d="m18.5761 27.5428c0-.0284.0285-.0521.0569-.0521.0285 0 .0522.0237.0522.0474 0 .0284-.0237.0522-.0522.0522-.027.0001-.0497-.0205-.0522-.0475zm-.0273.152c0-.0285.0237-.0474.0475-.0474.0332 0 .0569.0189.0569.0474s-.0237.0474-.0522.0474-.0522-.0189-.0522-.0474zm.0471.1089c-.0332 0-.0569.019-.0569.0474.0012.0139.0079.0267.0186.0356s.0245.0132.0383.0119c.0285 0 .0475-.019.0475-.0475 0-.0284-.019-.0474-.0475-.0474zm-.01.1896c0-.0285.0285-.0522.0569-.0522.0134-.0013.0267.003.0367.0121.0099.009.0156.0219.0155.0353 0 .0332-.0237.0522-.0522.0522-.027.0001-.0497-.0205-.0521-.0474zm.1432.0809c-.0237 0-.0475.0189-.0475.0474.0025.0269.0252.0475.0522.0474.0285 0 .0522-.0189.0522-.0474s-.0237-.0474-.0569-.0474z" fill-rule="evenodd"/><path d="m18.7852 27.301c0-.0237.0237-.0474.0521-.0474.0332 0 .0569.019.0569.0474 0 .0285-.0237.0522-.0569.0522-.0252-.0022-.0452-.0222-.0474-.0474"/><path d="m18.9316 27.2254c0-.0332.0238-.0522.0522-.0522.0285 0 .0522.019.0522.0474 0 .0285-.0237.0522-.0474.0522-.0139.0013-.0277-.003-.0384-.0119s-.0174-.0217-.0186-.0355"/><path d="m19.0938 27.1779c0-.0332.0237-.0521.0474-.0521s.0569.0189.0569.0474-.0237.0474-.0522.0474c-.027.0001-.0497-.0204-.0521-.0474"/><path d="m19.2598 27.1446c0-.0285.0237-.0475.0521-.0475.0134-.0013.0267.0031.0367.0121.0099.0091.0156.0219.0155.0354 0 .0284-.0237.0474-.0474.0474-.0139.0013-.0277-.003-.0384-.0119-.0106-.0089-.0173-.0217-.0185-.0355"/><path d="m19.4199 27.1495c0-.0284.0237-.0474.0569-.0474.0262 0 .0475.0212.0475.0474 0 .0285-.019.0475-.0475.0475-.0141.0028-.0287-.0008-.0398-.0101-.0111-.0092-.0174-.023-.0171-.0374"/><path d="m19.5918 27.1778c0-.0285.0237-.0474.0522-.0474.0141-.0029.0288.0008.0398.01.0111.0092.0174.023.0171.0374 0 .0284-.0237.0474-.0569.0474-.0253-.0022-.0453-.0222-.0475-.0474"/><path d="m19.748 27.23c0-.0285.0238-.0475.057-.0475.0284 0 .0474.019.0474.0475 0 .0284-.019.0474-.0474.0474-.0139.0013-.0277-.003-.0384-.0119s-.0174-.0217-.0186-.0355"/></g><path clip-rule="evenodd" d="m18.3538 30.455h.0426v-.0427h.0854v.0474h.0474v-.0474h.0807v.1802h-.0807v.0284.0902.0047h.1803v-.0047-.0854-.0949-.0852-.0902-.0331-.0001h-.0949v-.0807-.0995h.0901v.0474h.0474v-.0474h.0759v.0474h.0474v-.0474h.0902v.1802h-.0902v.3889.0047h.166v-.0047-.0902-.0284h-.0758v-.0805-.0997h.0758v.0474h.0569v-.0474h.0712v.0474h.0474v-.0474h.0806v.1802h-.0806v.1233h.1707v.3557h-.0901v.7209h.1755v.0001.0996.0901.0899.0902h-1.3753v-.0902-.0899-.0901-.0996-.0001h.1802v-.0807-.0901-.0948-.0949-.0899-.0902-.0901-.0902h-.0042-.0859v-.0852-.0949-.0854-.0902h.166v-.0047-.0902-.0284h-.0759v-.0805-.1044h.0759z" fill="#c09400" fill-rule="evenodd"/><path d="m19.0186 32.1624v-.2371c0-.0474-.0237-.1802-.2371-.1802-.2039 0-.2229.1375-.2229.1802v.2371z" fill="#c09400"/><path clip-rule="evenodd" d="m18.8951 30.7156-.0238.2229h-.1802l-.0095-.2229zm-.2813.5883v.2371.0095h-.2466v-.2466c0-.0664.0427-.1233.1233-.1233.0759 0 .1233.0569.1233.1233zm.2104.5217.0569-.0996c-.0299-.0137-.062-.0218-.0948-.0237-.0285 0-.0712.0094-.0949.0237l.0569.0996zm-.3008.0995.1091.0142c0-.0237.0237-.0569.0332-.0664l-.0948-.0806c-.038.0237-.0475.0854-.0475.1328zm.5271 0-.1138.0142c0-.0188-.015-.0436-.0235-.0577-.0022-.0037-.004-.0067-.005-.0087l.0949-.0806c.0332.0237.0474.0854.0474.1328zm-.0896-.3841v-.2371c0-.0664.0475-.1233.1233-.1233.0759 0 .1234.0569.1234.1233v.2466h-.2467zm.0756-.6025-.019-.2229h.2229l-.0237.2229zm-.493-.2223-.0095.2229h-.1802l-.0237-.2229z" fill="#c09400" fill-rule="evenodd"/><path clip-rule="evenodd" d="m18.9844 31.3086v.2134h.1992v-.2134c0-.057-.0332-.1139-.0996-.1139s-.0996.0569-.0996.1139zm-.3938.2134v-.2134c0-.0569-.0331-.1138-.0995-.1138s-.1044.0569-.1044.1138v.2134zm.3469.6404v-.2039c0-.0332-.019-.1328-.1565-.1328-.0365-.0013-.072.012-.0987.0369s-.0424.0594-.0436.0959v.2039z" fill="#0039f0" fill-rule="evenodd"/><path d="m19.2168 32.5275c0-.4932.3557-.8916.7873-.8916.4315 0 .792.3984.792.8869 0 .4932-.3557.8916-.792.8916s-.7873-.3984-.7873-.8869" fill="#ad1519"/><path d="m19.4492 32.5228c0-.3605.2514-.6498.5549-.6498.3083 0 .5596.2893.5596.6498 0 .3604-.2513.6497-.5549.6497-.3082 0-.5596-.2893-.5596-.6497" fill="#005bbf"/><path d="m19.7427 32.0769s-.0664.0712-.0664.1376.0285.1233.0285.1233c-.01-.0282-.0365-.0472-.0664-.0474-.0197-.0014-.039.0055-.0534.019s-.0225.0324-.0225.0521l.0142.0379.0237.0475c.0095-.019.0238-.0285.0475-.0285.0284 0 .0474.0237.0474.0474v.0143h-.0569v.0474h.0522l-.038.0806.0474-.019.0475.0475.0379-.0475.0474.019-.0332-.0759h.0475v-.0521h-.057c-.0007-.0048-.0007-.0096 0-.0143 0-.0237.0238-.0474.0475-.0474s.0474.0095.0474.0285l.0285-.0475.0094-.0379c0-.038-.0284-.0711-.0711-.0711-.0332 0-.0569.0189-.0664.0474 0 0 .0237-.0569.0237-.1233s-.0664-.1423-.0664-.1423" fill="#c09400"/><path d="m19.6387 32.5324h.2134v-.0522h-.2134v.0474z" fill="#c09400"/><path d="m20.2603 32.0769s-.0664.0712-.0664.1376.0285.1233.0285.1233c-.0095-.0285-.038-.0474-.0664-.0474-.0427 0-.0759.0331-.0759.0711l.0142.0379.0237.0475c.0048-.019.0237-.0285.0474-.0285.0262 0 .0475.0212.0475.0474.0007.0047.0007.0095 0 .0143h-.0569v.0474h.0521l-.0379.0806.0474-.019.0427.0475.0427-.0475.0474.019-.0379-.0759h.0521v-.0521h-.0569c-.0008-.0048-.0008-.0096 0-.0143 0-.0237.0237-.0474.0475-.0474.0237 0 .0426.0095.0474.0285l.0284-.0475.0095-.0379c0-.038-.0332-.0711-.0711-.0711-.0332 0-.0617.0189-.0712.0474 0 0 .0285-.0569.0285-.1233s-.0664-.1423-.0664-.1423" fill="#c09400"/><path d="m20.1562 32.5324h.2135v-.0522h-.2135v.0474z" fill="#c09400"/><path d="m19.9997 32.5179s-.0617.0712-.0617.1423c0 .0664.0285.1233.0285.1233-.0105-.0299-.0395-.0492-.0711-.0474-.0376-.0001-.0687.0289-.0712.0664l.0095.0379.0237.0474c.0095-.0142.0285-.0237.0474-.0237.0285 0 .0522.019.0522.0475.0007.0047.0007.0095 0 .0142h-.0569v.0474h.0474l-.0379.0806.0522-.0237.0426.0474.038-.0474.0521.0237-.0379-.0806h.0522v-.0474h-.0569c-.0008-.0047-.0008-.0095 0-.0142 0-.0285.0189-.0475.0474-.0475.0237 0 .0427.0095.0474.0237l.0237-.0474c.0048-.0095.0143-.0237.0143-.0379 0-.038-.0332-.0664-.0759-.0664-.0299.0003-.0565.0192-.0664.0474 0 0 .0284-.0569.0284-.1281 0-.0663-.0664-.1375-.0664-.1375" fill="#c09400"/><path d="m19.8945 32.9732h.2135v-.0474h-.2135z" fill="#c09400"/><path d="m21.584 30.18h-.0143c-.0037.0071-.0085.0135-.0142.019-.0142.0095-.0332.0142-.0427 0-.0042-.0053-.006-.0123-.0047-.019-.0074.0043-.0164.0043-.0237 0-.0143-.0047-.019-.0237-.0095-.0379l.0047-.0095v-.0142h-.0142l-.0048.0142c-.0142.0095-.0284.0142-.0379.0047-.0022-.0028-.0038-.006-.0047-.0094h-.0095c-.0237.0094-.0332-.0475-.038-.0617l-.0047.0142v.0617c-.0031.0193-.0078.0384-.0142.0569.0379.0095.0948.0379.1422.0806.0466.0319.0868.0721.1186.1186l.0569-.0285c.0285-.0095.0664-.0095.0664-.0095l.0095-.0094c-.0142 0-.0759.0047-.0759-.019l.0048-.0095c-.0047.001-.0096.001-.0143 0-.0095-.0095-.0095-.0237 0-.0379h.0095v-.019h-.0142l-.0095.0047c-.0142.0143-.0332.0143-.0427 0-.0026-.006-.0026-.0129 0-.0189-.0088.0051-.0196.0051-.0284 0-.0062-.0054-.0097-.0132-.0097-.0214 0-.0081.0035-.0159.0097-.0213.0026-.0051.0058-.0099.0095-.0142z" fill="#c09400"/><path d="m21.4683 30.2126h.014s.0046.0093 0 .0093h-.0093v-.0093" fill="#c09400"/><path d="m21.5156 30.2505-.0139-.0093v-.0092h.0092l.014.0139.0139.0092s.0046.0047 0 .0093h-.0047z" fill="#c09400"/><path d="m21.436 30.1936-.0139-.0093s-.0047 0 0-.0046h.0046l.0139.0046.0093.0093.0046.0046h-.0092z" fill="#c09400"/><path d="m21.3834 30.1605h.0093l.0046.0093h-.0092z" fill="#c09400"/><path d="m21.5692 30.2883v-.0139h-.0139v.0139z" fill="#c09400"/><path d="m21.5967 30.3171.0093.0093c0 .0046.0092.0046.0092 0l-.0092-.014-.0093-.0092h-.0093v.0046z" fill="#c09400"/><path d="m21.6434 30.3547v-.0092h-.0139v.0139h.0139" fill="#c09400"/><path d="m21.5117 30.0662h-.0278l-.0093.0418.0046.0046h.0093l.0325-.0232z" fill="#c09400"/><path d="m21.4316 30.0894v.0232l.0464.0093v-.0139l-.0232-.0325z" fill="#c09400"/><path d="m21.5268 30.1418-.0237.0143-.0285-.038v-.0047h.0522z" fill="#c09400"/><path d="m21.4685 30.1085c.0034-.004.0088-.0058.0139-.0046.0062.004.0083.0121.0046.0185-.0043.0025-.0096.0025-.0139 0-.0058-.002-.0096-.0077-.0093-.0139" fill="#c09400"/><path d="m21.3652 30.0663-.0142-.038c-.0054-.0072-.0118-.0136-.019-.0189 0 0 .019-.0095.0427.0047.019.0142 0 .0427 0 .0427z" fill="#c09400"/><path d="m21.4135 30.0805-.019.0189-.0332-.0284v-.0142h.0475z" fill="#c09400"/><path d="m21.3548 30.0611.0139-.0093c.0046 0 .0093.0093.0046.0139 0 .0093-.0093.0139-.0139.0139 0 0-.0046-.0093 0-.0185" fill="#c09400"/><path d="m21.6208 30.1326h-.0284l-.0143.0379v.0095h.0095l.0427-.0189z" fill="#c09400"/><path d="m21.5398 30.1466-.0046.0279.0417.0092h.0047v-.0092l-.0186-.0372z" fill="#c09400"/><path d="m21.6255 30.213-.0284.0095-.019-.038v-.0094h.0048l.0474.0094z" fill="#c09400"/><path d="m21.5693 30.1702c.0046-.0046.0139-.0046.0186 0 .0062.004.0082.0121.0046.0186-.0053.0047-.0133.0047-.0186 0-.0047-.0053-.0047-.0133 0-.0186" fill="#c09400"/><path d="m21.7156 30.2224.0046.0279-.0417.0139h-.0047v-.0093l.0139-.0371z" fill="#c09400"/><path d="m21.7051 30.2976-.0232.0093-.0139-.0417v-.0047h.0092l.0372.0139-.0047.0232" fill="#c09400"/><path d="m21.6343 30.2271-.0093.0232.0418.0139h.0046v-.0046l-.0093-.0418z" fill="#c09400"/><path d="m21.6824 30.2739c.0047-.0053.0047-.0133 0-.0186-.0026-.0039-.0069-.0062-.0116-.0062s-.009.0023-.0116.0062c-.0025.0043-.0025.0096 0 .0139.0053.0047.0133.0047.0186 0" fill="#c09400"/><path d="m21.75 30.3602.0379.0047c.0086.0036.0166.0083.0238.0142 0 0 .0047-.0237-.0143-.0379-.0189-.0142-.0427.0095-.0427.0095z" fill="#c09400"/><path d="m21.7213 30.3174-.0143.0237.038.0237v-.0047h.0095l-.0048-.0474h-.0284" fill="#c09400"/><path d="m21.7531 30.3643s.0093-.0093.0047-.0139h-.0186c-.0046 0-.0093.0093-.0046.0139h.0139" fill="#c09400"/></svg>